<!-- Generated by IcoMoon.io -->
<svg version="1.1" xmlns="http://www.w3.org/2000/svg" width="91" height="32" viewBox="0 0 91 32">
<title>image2vector</title>
<path fill="#045cac" d="M32.113 0.027c-0.094 0.008-0.186 0.031-0.206 0.051s-0.101 0.035-0.18 0.035c-0.079 0-0.144 0.017-0.144 0.038s-0.068 0.038-0.151 0.038-0.151 0.017-0.151 0.038-0.050 0.038-0.111 0.038c-0.061 0-0.122 0.017-0.135 0.038s-0.072 0.038-0.132 0.038c-0.060 0-0.12 0.017-0.133 0.038s-0.073 0.038-0.135 0.038c-0.061 0-0.111 0.017-0.111 0.038s-0.033 0.038-0.073 0.038c-0.040 0-0.084 0.017-0.097 0.038s-0.065 0.038-0.116 0.038-0.092 0.017-0.092 0.038c0 0.021-0.051 0.038-0.113 0.038s-0.113 0.017-0.113 0.038c0 0.021-0.034 0.038-0.076 0.038s-0.076 0.017-0.076 0.038c0 0.021-0.034 0.038-0.076 0.038s-0.076 0.017-0.076 0.038c0 0.021-0.022 0.038-0.049 0.038-0.069 0-0.253 0.089-0.253 0.123-0 0.016-0.034 0.028-0.076 0.028s-0.076 0.017-0.076 0.038c0 0.021-0.034 0.038-0.076 0.038s-0.076 0.017-0.076 0.038-0.034 0.038-0.076 0.038-0.076 0.017-0.076 0.038c0 0.021-0.030 0.038-0.067 0.038s-0.092 0.034-0.122 0.076c-0.030 0.042-0.085 0.076-0.122 0.076s-0.067 0.014-0.067 0.031-0.047 0.056-0.104 0.085c-0.057 0.029-0.132 0.083-0.165 0.12s-0.082 0.067-0.108 0.067c-0.026 0-0.094 0.051-0.152 0.113s-0.124 0.113-0.145 0.113c-0.047 0-1.141 1.079-1.141 1.125 0 0.017-0.068 0.106-0.151 0.198s-0.151 0.183-0.151 0.202c0 0.019-0.030 0.062-0.067 0.096s-0.091 0.108-0.12 0.165c-0.029 0.057-0.068 0.104-0.085 0.104s-0.032 0.026-0.032 0.058c0 0.032-0.034 0.095-0.076 0.14s-0.076 0.104-0.076 0.131c0 0.027-0.017 0.050-0.038 0.050s-0.038 0.034-0.038 0.076c0 0.042-0.017 0.076-0.038 0.076s-0.038 0.034-0.038 0.076-0.017 0.076-0.038 0.076-0.038 0.034-0.038 0.076c0 0.042-0.017 0.076-0.038 0.076s-0.038 0.034-0.038 0.076c0 0.042-0.017 0.076-0.038 0.076s-0.038 0.034-0.038 0.076-0.017 0.076-0.038 0.076-0.038 0.034-0.038 0.076c0 0.042-0.017 0.076-0.038 0.076s-0.038 0.051-0.038 0.113c0 0.062-0.017 0.113-0.038 0.113s-0.038 0.034-0.038 0.076c0 0.042-0.017 0.076-0.038 0.076s-0.038 0.051-0.038 0.113-0.017 0.113-0.038 0.113-0.038 0.051-0.038 0.113-0.017 0.113-0.038 0.113-0.038 0.051-0.038 0.113-0.017 0.113-0.038 0.113-0.038 0.051-0.038 0.113-0.017 0.113-0.038 0.113-0.038 0.068-0.038 0.151c0 0.083-0.017 0.151-0.038 0.151s-0.038 0.068-0.038 0.151c0 0.083-0.017 0.151-0.038 0.151s-0.038 0.085-0.038 0.189c0 0.104-0.017 0.189-0.038 0.189s-0.038 0.085-0.038 0.189c0 0.104-0.017 0.189-0.038 0.189s-0.038 0.106-0.038 0.244c0 0.134-0.017 0.254-0.038 0.267s-0.038 0.155-0.038 0.316c0 0.161-0.016 0.309-0.036 0.329-0.062 0.062-0.080 1.264-0.098 6.515-0.012 3.348-0.030 5.072-0.055 5.057-0.021-0.013-0.037-0.089-0.037-0.17s-0.017-0.157-0.038-0.17c-0.021-0.013-0.038-0.098-0.038-0.189s-0.017-0.176-0.038-0.189c-0.021-0.013-0.038-0.099-0.038-0.191s-0.017-0.168-0.038-0.168c-0.021 0-0.038-0.085-0.038-0.189s-0.017-0.189-0.038-0.189-0.038-0.085-0.038-0.189-0.017-0.189-0.038-0.189c-0.021 0-0.038-0.076-0.038-0.168s-0.017-0.179-0.038-0.192c-0.021-0.013-0.038-0.098-0.038-0.189s-0.017-0.176-0.038-0.189c-0.021-0.013-0.038-0.089-0.038-0.17s-0.017-0.157-0.038-0.17c-0.021-0.013-0.038-0.099-0.038-0.192s-0.017-0.168-0.038-0.168c-0.021 0-0.038-0.085-0.038-0.189s-0.017-0.189-0.038-0.189c-0.021 0-0.038-0.085-0.038-0.189s-0.017-0.189-0.038-0.189c-0.021 0-0.038-0.076-0.038-0.168s-0.017-0.179-0.038-0.191c-0.021-0.013-0.038-0.098-0.038-0.189s-0.017-0.176-0.038-0.189-0.038-0.089-0.038-0.17c0-0.081-0.017-0.157-0.038-0.17s-0.038-0.099-0.038-0.191-0.017-0.168-0.038-0.168c-0.021 0-0.038-0.085-0.038-0.189s-0.017-0.189-0.038-0.189-0.038-0.085-0.038-0.189-0.017-0.189-0.038-0.189c-0.021 0-0.038-0.076-0.038-0.168s-0.017-0.178-0.038-0.191c-0.021-0.013-0.038-0.098-0.038-0.189s-0.017-0.176-0.038-0.189c-0.021-0.013-0.038-0.089-0.038-0.17s-0.017-0.157-0.038-0.17c-0.021-0.013-0.038-0.099-0.038-0.191s-0.017-0.168-0.038-0.168c-0.021 0-0.038-0.085-0.038-0.189s-0.017-0.189-0.038-0.189-0.038-0.085-0.038-0.189-0.017-0.189-0.038-0.189c-0.021 0-0.038-0.085-0.038-0.189s-0.017-0.189-0.038-0.189c-0.021 0-0.038-0.076-0.038-0.168s-0.017-0.179-0.038-0.191c-0.021-0.013-0.038-0.089-0.038-0.17s-0.017-0.158-0.038-0.17c-0.021-0.013-0.038-0.099-0.038-0.192s-0.017-0.168-0.038-0.168c-0.021 0-0.038-0.085-0.038-0.189s-0.017-0.189-0.038-0.189c-0.021 0-0.038-0.085-0.038-0.189s-0.017-0.189-0.038-0.189c-0.021 0-0.038-0.085-0.038-0.189s-0.017-0.189-0.038-0.189c-0.021 0-0.038-0.076-0.038-0.168s-0.017-0.178-0.038-0.191c-0.021-0.013-0.038-0.089-0.038-0.17s-0.017-0.157-0.038-0.17c-0.021-0.013-0.038-0.099-0.038-0.191s-0.017-0.168-0.038-0.168c-0.021 0-0.038-0.085-0.038-0.189s-0.017-0.189-0.038-0.189-0.038-0.085-0.038-0.189-0.017-0.189-0.038-0.189c-0.021 0-0.038-0.085-0.038-0.189s-0.017-0.189-0.038-0.189c-0.021 0-0.038-0.076-0.038-0.168s-0.017-0.179-0.038-0.192c-0.021-0.013-0.038-0.089-0.038-0.17s-0.017-0.157-0.038-0.17c-0.021-0.013-0.038-0.099-0.038-0.191s-0.017-0.168-0.038-0.168c-0.021 0-0.038-0.085-0.038-0.189s-0.017-0.189-0.038-0.189-0.038-0.085-0.038-0.189-0.017-0.189-0.038-0.189c-0.021 0-0.038-0.085-0.038-0.189s-0.017-0.189-0.038-0.189c-0.021 0-0.038-0.076-0.038-0.168s-0.017-0.179-0.038-0.191c-0.021-0.013-0.038-0.098-0.038-0.189s-0.017-0.176-0.038-0.189c-0.021-0.013-0.038-0.089-0.038-0.17s-0.017-0.157-0.038-0.17c-0.021-0.013-0.038-0.099-0.038-0.191s-0.017-0.168-0.038-0.168c-0.021 0-0.038-0.085-0.038-0.189s-0.017-0.189-0.038-0.189c-0.021 0-0.038-0.085-0.038-0.189s-0.017-0.189-0.038-0.189c-0.021 0-0.038-0.076-0.038-0.168s-0.017-0.178-0.038-0.191c-0.021-0.013-0.038-0.098-0.038-0.189s-0.017-0.176-0.038-0.189c-0.021-0.013-0.038-0.089-0.038-0.17s-0.017-0.157-0.038-0.17c-0.021-0.013-0.038-0.099-0.038-0.191s-0.017-0.168-0.038-0.168c-0.021 0-0.038-0.085-0.038-0.189s-0.017-0.189-0.038-0.189c-0.021 0-0.038-0.085-0.038-0.189s-0.017-0.189-0.038-0.189c-0.021 0-0.038-0.072-0.039-0.161-0.002-0.326 0.763-0.295-6.963-0.284l-6.861 0.010-0.012 0.18c-0.006 0.099-0.027 0.18-0.047 0.18s-0.036 0.085-0.036 0.189c0 0.104-0.017 0.189-0.038 0.189s-0.038 0.085-0.038 0.189c0 0.104-0.017 0.189-0.038 0.189s-0.038 0.076-0.038 0.168-0.017 0.178-0.038 0.191c-0.021 0.013-0.038 0.098-0.038 0.189s-0.017 0.176-0.038 0.189c-0.021 0.013-0.038 0.089-0.038 0.17s-0.017 0.157-0.038 0.17c-0.021 0.013-0.038 0.099-0.038 0.191s-0.017 0.168-0.038 0.168c-0.021 0-0.038 0.085-0.038 0.189s-0.017 0.189-0.038 0.189c-0.021 0-0.038 0.085-0.038 0.189s-0.017 0.189-0.038 0.189c-0.021 0-0.038 0.076-0.038 0.168s-0.017 0.179-0.038 0.192c-0.021 0.013-0.038 0.098-0.038 0.189s-0.017 0.176-0.038 0.189c-0.021 0.013-0.038 0.089-0.038 0.17s-0.017 0.157-0.038 0.17c-0.021 0.013-0.038 0.099-0.038 0.192s-0.017 0.168-0.038 0.168-0.038 0.085-0.038 0.189c0 0.104-0.017 0.189-0.038 0.189s-0.038 0.085-0.038 0.189c0 0.104-0.017 0.189-0.038 0.189s-0.038 0.076-0.038 0.168-0.017 0.179-0.038 0.191c-0.021 0.013-0.038 0.098-0.038 0.189s-0.017 0.176-0.038 0.189c-0.021 0.013-0.038 0.089-0.038 0.17s-0.017 0.157-0.038 0.17c-0.021 0.013-0.038 0.099-0.038 0.191s-0.017 0.168-0.038 0.168c-0.021 0-0.038 0.085-0.038 0.189s-0.017 0.189-0.038 0.189c-0.021 0-0.038 0.085-0.038 0.189s-0.017 0.189-0.038 0.189c-0.021 0-0.038 0.076-0.038 0.168s-0.017 0.178-0.038 0.191c-0.021 0.013-0.038 0.098-0.038 0.189s-0.017 0.176-0.038 0.189c-0.021 0.013-0.038 0.089-0.038 0.17s-0.017 0.157-0.038 0.17c-0.021 0.013-0.038 0.099-0.038 0.191s-0.017 0.168-0.038 0.168c-0.021 0-0.038 0.085-0.038 0.189s-0.017 0.189-0.038 0.189c-0.021 0-0.038 0.085-0.038 0.189s-0.017 0.189-0.038 0.189c-0.021 0-0.038 0.076-0.038 0.168s-0.017 0.179-0.038 0.192c-0.021 0.013-0.038 0.098-0.038 0.189s-0.017 0.176-0.038 0.189c-0.021 0.013-0.038 0.089-0.038 0.17s-0.017 0.158-0.038 0.17c-0.021 0.013-0.038 0.099-0.038 0.192s-0.017 0.168-0.038 0.168-0.038 0.085-0.038 0.189c0 0.104-0.017 0.189-0.038 0.189s-0.038 0.085-0.038 0.189c0 0.104-0.017 0.189-0.038 0.189s-0.038 0.076-0.038 0.168-0.017 0.179-0.038 0.191c-0.021 0.013-0.038 0.089-0.038 0.17s-0.017 0.158-0.038 0.17c-0.021 0.013-0.038 0.098-0.038 0.189s-0.017 0.176-0.038 0.189c-0.021 0.013-0.038 0.099-0.038 0.191s-0.017 0.168-0.038 0.168c-0.021 0-0.038 0.085-0.038 0.189s-0.017 0.189-0.038 0.189c-0.021 0-0.038 0.085-0.038 0.189s-0.017 0.189-0.038 0.189c-0.021 0-0.038 0.076-0.038 0.168s-0.017 0.178-0.038 0.191c-0.021 0.013-0.038 0.089-0.038 0.17s-0.017 0.157-0.038 0.17c-0.021 0.013-0.038 0.098-0.038 0.189s-0.017 0.176-0.038 0.189c-0.021 0.013-0.038 0.099-0.038 0.191s-0.017 0.168-0.038 0.168c-0.021 0-0.038 0.085-0.038 0.189s-0.017 0.189-0.038 0.189c-0.021 0-0.038 0.085-0.038 0.189s-0.017 0.189-0.038 0.189c-0.021 0-0.038 0.076-0.038 0.168s-0.017 0.179-0.038 0.192c-0.021 0.013-0.038 0.089-0.038 0.17s-0.017 0.157-0.038 0.17c-0.021 0.013-0.038 0.098-0.038 0.189s-0.017 0.176-0.038 0.189c-0.021 0.013-0.038 0.099-0.038 0.192s-0.017 0.168-0.038 0.168-0.038 0.085-0.038 0.189c0 0.104-0.017 0.189-0.038 0.189s-0.038 0.085-0.038 0.189c0 0.104-0.017 0.189-0.038 0.189s-0.038 0.076-0.038 0.168-0.017 0.179-0.038 0.191c-0.021 0.013-0.038 0.089-0.038 0.17s-0.017 0.157-0.038 0.17c-0.021 0.013-0.038 0.098-0.038 0.189s-0.017 0.176-0.038 0.189c-0.021 0.013-0.038 0.099-0.038 0.191s-0.017 0.168-0.038 0.168c-0.021 0-0.038 0.085-0.038 0.189s-0.017 0.189-0.038 0.189c-0.021 0-0.038 0.085-0.038 0.189s-0.017 0.189-0.038 0.189c-0.021 0-0.038 0.076-0.038 0.168s-0.017 0.178-0.038 0.191c-0.021 0.013-0.038 0.089-0.038 0.17s-0.017 0.157-0.038 0.17c-0.021 0.013-0.038 0.098-0.038 0.189s-0.017 0.176-0.038 0.189c-0.021 0.013-0.038 0.099-0.038 0.191s-0.017 0.168-0.038 0.168c-0.021 0-0.038 0.085-0.038 0.189s-0.017 0.189-0.038 0.189c-0.021 0-0.038 0.085-0.038 0.189s-0.017 0.189-0.038 0.189c-0.021 0-0.038 0.076-0.038 0.168s-0.017 0.179-0.038 0.192c-0.021 0.013-0.038 0.089-0.038 0.17s-0.017 0.157-0.038 0.17c-0.021 0.013-0.038 0.098-0.038 0.189s-0.017 0.176-0.038 0.189c-0.021 0.013-0.038 0.099-0.038 0.192s-0.017 0.168-0.038 0.168-0.038 0.085-0.038 0.189c0 0.104-0.017 0.189-0.038 0.189s-0.038 0.085-0.038 0.189c0 0.104-0.017 0.189-0.038 0.189s-0.038 0.076-0.038 0.168-0.017 0.179-0.038 0.191c-0.021 0.013-0.038 0.089-0.038 0.17s-0.017 0.157-0.038 0.17c-0.021 0.013-0.038 0.098-0.038 0.189s-0.017 0.176-0.038 0.189c-0.021 0.013-0.038 0.099-0.038 0.191s-0.017 0.168-0.038 0.168c-0.021 0-0.038 0.085-0.038 0.189s-0.017 0.189-0.038 0.189c-0.021 0-0.038 0.085-0.038 0.189s-0.017 0.189-0.038 0.189c-0.021 0-0.038 0.076-0.038 0.168s-0.017 0.178-0.038 0.191c-0.021 0.013-0.038 0.089-0.038 0.17s-0.017 0.157-0.038 0.17c-0.021 0.013-0.038 0.098-0.038 0.189s-0.017 0.176-0.038 0.189c-0.021 0.013-0.038 0.099-0.038 0.191s-0.017 0.168-0.038 0.168c-0.021 0-0.038 0.085-0.038 0.189s-0.017 0.189-0.038 0.189c-0.021 0-0.038 0.085-0.038 0.189s-0.017 0.189-0.038 0.189c-0.021 0-0.038 0.076-0.038 0.168s-0.017 0.179-0.038 0.192c-0.021 0.013-0.038 0.089-0.038 0.17s-0.017 0.157-0.038 0.17c-0.021 0.013-0.038 0.096-0.038 0.184s-0.015 0.177-0.033 0.196-0.045 0.159-0.059 0.31l-0.026 0.274h4.244c4.813 0 4.343 0.036 4.346-0.331 0.001-0.109 0.018-0.199 0.039-0.199s0.038-0.085 0.038-0.189c0-0.104 0.017-0.189 0.038-0.189s0.038-0.084 0.038-0.187 0.017-0.197 0.038-0.21c0.021-0.013 0.038-0.116 0.038-0.229s0.017-0.206 0.038-0.206c0.021 0 0.038-0.085 0.038-0.189s0.017-0.189 0.038-0.189c0.021 0 0.038-0.084 0.038-0.187s0.017-0.197 0.038-0.21c0.021-0.013 0.038-0.116 0.038-0.229s0.017-0.206 0.038-0.206 0.038-0.085 0.038-0.189c0-0.104 0.017-0.189 0.038-0.189s0.038-0.093 0.038-0.206 0.017-0.216 0.038-0.229c0.021-0.013 0.038-0.107 0.038-0.21s0.017-0.187 0.038-0.187c0.021 0 0.038-0.085 0.038-0.189s0.017-0.189 0.038-0.189c0.021 0 0.038-0.093 0.038-0.206s0.017-0.216 0.038-0.229c0.021-0.013 0.038-0.108 0.038-0.21s0.017-0.187 0.038-0.187 0.038-0.034 0.038-0.076c0-0.075 0.025-0.076 3.593-0.076h3.593v0.151c0 0.083 0.017 0.151 0.038 0.151s0.038 0.085 0.038 0.189c0 0.104 0.017 0.189 0.038 0.189s0.038 0.093 0.038 0.206 0.017 0.216 0.038 0.229c0.021 0.013 0.038 0.108 0.038 0.21s0.017 0.187 0.038 0.187 0.038 0.085 0.038 0.189 0.017 0.189 0.038 0.189c0.021 0 0.038 0.093 0.038 0.206s0.017 0.216 0.038 0.229c0.021 0.013 0.038 0.108 0.038 0.21s0.017 0.187 0.038 0.187c0.021 0 0.038 0.084 0.038 0.187s0.017 0.197 0.038 0.21c0.021 0.013 0.038 0.106 0.038 0.208s0.017 0.195 0.038 0.208c0.021 0.013 0.038 0.107 0.038 0.21s0.017 0.187 0.038 0.187c0.021 0 0.038 0.084 0.038 0.187s0.017 0.197 0.038 0.21c0.021 0.013 0.038 0.106 0.038 0.208s0.017 0.195 0.038 0.208c0.021 0.013 0.038 0.108 0.038 0.21s0.016 0.187 0.036 0.187 0.041 0.081 0.047 0.18l0.012 0.18 8.832 0.019v-0.225c0-0.124-0.017-0.235-0.038-0.248s-0.038-0.099-0.038-0.191-0.017-0.168-0.038-0.168c-0.021 0-0.038-0.085-0.038-0.189s-0.017-0.189-0.038-0.189c-0.021 0-0.038-0.085-0.038-0.189s-0.017-0.189-0.038-0.189c-0.021 0-0.038-0.076-0.038-0.168s-0.017-0.179-0.038-0.192c-0.021-0.013-0.038-0.098-0.038-0.189s-0.017-0.176-0.038-0.189c-0.021-0.013-0.038-0.089-0.038-0.17s-0.017-0.157-0.038-0.17c-0.021-0.013-0.038-0.099-0.038-0.192s-0.017-0.168-0.038-0.168c-0.021 0-0.038-0.085-0.038-0.189s-0.017-0.189-0.038-0.189c-0.021 0-0.038-0.085-0.038-0.189s-0.017-0.189-0.038-0.189-0.038-0.051-0.038-0.113c0-0.062 0.017-0.113 0.038-0.113s0.038 0.034 0.038 0.076c0 0.042 0.017 0.076 0.038 0.076s0.038 0.022 0.038 0.049 0.034 0.086 0.076 0.131c0.042 0.044 0.076 0.104 0.076 0.131s0.034 0.074 0.076 0.104 0.076 0.074 0.076 0.097c0 0.023 0.051 0.096 0.113 0.161s0.113 0.134 0.113 0.153 0.081 0.117 0.18 0.218c0.099 0.101 0.222 0.243 0.273 0.316 0.104 0.147 0.494 0.527 0.543 0.528 0.017 0 0.097 0.069 0.177 0.152s0.161 0.151 0.181 0.151c0.019 0 0.085 0.047 0.145 0.104s0.157 0.128 0.214 0.157c0.057 0.030 0.103 0.068 0.103 0.085s0.022 0.032 0.050 0.032 0.086 0.034 0.131 0.076c0.045 0.042 0.1 0.076 0.122 0.076s0.077 0.034 0.122 0.076 0.104 0.076 0.131 0.076c0.027 0 0.050 0.017 0.050 0.038s0.034 0.038 0.076 0.038c0.042 0 0.076 0.017 0.076 0.038s0.034 0.038 0.076 0.038 0.076 0.017 0.076 0.038 0.034 0.038 0.076 0.038c0.042 0 0.076 0.017 0.076 0.038s0.034 0.038 0.076 0.038c0.042 0 0.076 0.017 0.076 0.038s0.034 0.038 0.076 0.038 0.076 0.017 0.076 0.038 0.042 0.038 0.092 0.038 0.103 0.017 0.116 0.038c0.013 0.021 0.056 0.038 0.097 0.038s0.073 0.017 0.073 0.038c0 0.021 0.042 0.038 0.092 0.038s0.103 0.017 0.116 0.038c0.013 0.021 0.056 0.038 0.097 0.038s0.074 0.017 0.074 0.038c0 0.021 0.051 0.038 0.113 0.038s0.113 0.017 0.113 0.038c0 0.021 0.050 0.038 0.111 0.038s0.122 0.017 0.135 0.038c0.013 0.021 0.082 0.038 0.154 0.038s0.13 0.017 0.13 0.038 0.059 0.038 0.13 0.038 0.141 0.017 0.154 0.038c0.013 0.021 0.091 0.038 0.172 0.038s0.149 0.017 0.149 0.038c0 0.021 0.076 0.038 0.168 0.038s0.178 0.017 0.191 0.038c0.013 0.021 0.108 0.038 0.21 0.038s0.187 0.017 0.187 0.038c0 0.022 0.112 0.038 0.262 0.038 0.176 0 0.267 0.015 0.277 0.047 0.023 0.069 5.941 0.069 6.010 0 0.027-0.027 0.141-0.047 0.264-0.047 0.12 0 0.228-0.017 0.241-0.038s0.116-0.038 0.229-0.038 0.206-0.017 0.206-0.038c0-0.021 0.085-0.038 0.189-0.038s0.189-0.017 0.189-0.038c0-0.021 0.068-0.038 0.151-0.038s0.151-0.017 0.151-0.038c0-0.021 0.068-0.038 0.151-0.038s0.151-0.017 0.151-0.038 0.051-0.038 0.113-0.038c0.062 0 0.113-0.017 0.113-0.038s0.051-0.038 0.114-0.038c0.063 0 0.148-0.017 0.189-0.038s0.109-0.055 0.15-0.076 0.109-0.038 0.151-0.038c0.042 0 0.076-0.017 0.076-0.038s0.051-0.038 0.113-0.038 0.113-0.017 0.113-0.038 0.034-0.038 0.076-0.038c0.042 0 0.076-0.017 0.076-0.038s0.042-0.038 0.092-0.038c0.051 0 0.103-0.017 0.116-0.038s0.056-0.038 0.097-0.038 0.074-0.017 0.074-0.038c0-0.021 0.034-0.038 0.076-0.038s0.076-0.017 0.076-0.038c0-0.021 0.034-0.038 0.076-0.038s0.076-0.017 0.076-0.038c0-0.021 0.034-0.038 0.076-0.038s0.076-0.017 0.076-0.038c0-0.021 0.022-0.038 0.049-0.038s0.086-0.034 0.131-0.076c0.044-0.042 0.107-0.076 0.139-0.076s0.058-0.017 0.058-0.038c0-0.021 0.022-0.038 0.050-0.038s0.086-0.034 0.131-0.076c0.045-0.042 0.104-0.076 0.131-0.076s0.075-0.034 0.105-0.076c0.030-0.042 0.073-0.076 0.095-0.076s0.116-0.068 0.208-0.151c0.092-0.083 0.181-0.151 0.197-0.151 0.039 0 1.126-1.087 1.126-1.127 0-0.017 0.068-0.105 0.151-0.197s0.151-0.185 0.151-0.208c0-0.022 0.034-0.065 0.076-0.095s0.076-0.085 0.076-0.122c0-0.037 0.014-0.067 0.032-0.067s0.056-0.047 0.085-0.104c0.029-0.057 0.062-0.113 0.072-0.123 0.037-0.037 0.157-0.247 0.177-0.312 0.012-0.036 0.036-0.066 0.054-0.066s0.033-0.034 0.033-0.076c0-0.042 0.017-0.076 0.038-0.076s0.038-0.034 0.038-0.076c0-0.042 0.017-0.076 0.038-0.076s0.038-0.034 0.038-0.076c0-0.042 0.017-0.076 0.038-0.076s0.038-0.034 0.038-0.076 0.017-0.076 0.038-0.076 0.038-0.051 0.038-0.113 0.017-0.113 0.038-0.113 0.038-0.034 0.038-0.076c0-0.042 0.017-0.076 0.038-0.076s0.038-0.051 0.038-0.113 0.017-0.113 0.038-0.113 0.038-0.033 0.038-0.073c0-0.040 0.017-0.084 0.038-0.097s0.038-0.065 0.038-0.116 0.017-0.092 0.038-0.092c0.021 0 0.038-0.059 0.038-0.13s0.017-0.141 0.038-0.154c0.021-0.013 0.038-0.073 0.038-0.135s0.017-0.111 0.038-0.111c0.021 0 0.038-0.068 0.038-0.151s0.017-0.151 0.038-0.151c0.021 0 0.038-0.068 0.038-0.151s0.017-0.151 0.038-0.151c0.025 0 0.038 1.173 0.038 3.442v3.442h10.161c9.633 0 10.164-0.003 10.212-0.066 0.040-0.053 0.050-0.517 0.051-2.383 0.001-1.519 0.014-2.317 0.039-2.317 0.021 0 0.038 0.034 0.038 0.076s0.017 0.076 0.038 0.076c0.021 0 0.038 0.034 0.038 0.076s0.017 0.076 0.038 0.076 0.038 0.026 0.038 0.058c0 0.032 0.034 0.095 0.076 0.14s0.076 0.104 0.076 0.131c0 0.027 0.017 0.050 0.038 0.050s0.038 0.026 0.038 0.058c0 0.032 0.034 0.095 0.076 0.139s0.076 0.104 0.076 0.131 0.017 0.049 0.038 0.049c0.021 0 0.038 0.023 0.038 0.051s0.051 0.104 0.113 0.17c0.062 0.065 0.113 0.138 0.113 0.161s0.051 0.090 0.113 0.148c0.062 0.058 0.113 0.124 0.113 0.147 0 0.053 1.162 1.215 1.215 1.215 0.022 0 0.088 0.051 0.147 0.113s0.125 0.113 0.148 0.113c0.023 0 0.095 0.051 0.161 0.113s0.142 0.113 0.17 0.113c0.028 0 0.051 0.017 0.051 0.038s0.022 0.038 0.050 0.038c0.027 0 0.086 0.034 0.131 0.076s0.1 0.076 0.122 0.076c0.023 0 0.078 0.034 0.122 0.076s0.103 0.076 0.131 0.076c0.027 0 0.050 0.017 0.050 0.038s0.034 0.038 0.076 0.038c0.042 0 0.076 0.017 0.076 0.038s0.034 0.038 0.076 0.038c0.042 0 0.076 0.017 0.076 0.038s0.034 0.038 0.076 0.038c0.042 0 0.076 0.017 0.076 0.038s0.034 0.038 0.076 0.038c0.042 0 0.076 0.017 0.076 0.038s0.033 0.038 0.074 0.038 0.084 0.017 0.097 0.038c0.013 0.021 0.065 0.038 0.116 0.038s0.092 0.017 0.092 0.038c0 0.021 0.034 0.038 0.076 0.038s0.076 0.017 0.076 0.038c0 0.021 0.051 0.038 0.113 0.038s0.113 0.017 0.113 0.038c0 0.021 0.042 0.038 0.092 0.038s0.103 0.017 0.116 0.038c0.013 0.021 0.074 0.038 0.135 0.038s0.111 0.017 0.111 0.038c0 0.021 0.051 0.038 0.113 0.038s0.113 0.017 0.113 0.038c0 0.021 0.051 0.038 0.113 0.038s0.113 0.017 0.113 0.038c0 0.021 0.068 0.038 0.151 0.038s0.151 0.017 0.151 0.038c0 0.021 0.067 0.038 0.149 0.038s0.16 0.017 0.172 0.038c0.013 0.021 0.099 0.038 0.191 0.038s0.168 0.017 0.168 0.038c0 0.021 0.101 0.038 0.227 0.038s0.227 0.017 0.227 0.038c0 0.021 0.105 0.038 0.238 0.038 0.14 0 0.258 0.020 0.285 0.047 0.069 0.069 6.025 0.069 6.048 0 0.011-0.032 0.102-0.047 0.278-0.047 0.149 0 0.261-0.016 0.261-0.038s0.093-0.038 0.206-0.038 0.216-0.017 0.229-0.038c0.013-0.021 0.089-0.038 0.17-0.038s0.157-0.017 0.17-0.038c0.013-0.021 0.089-0.038 0.17-0.038s0.157-0.017 0.17-0.038c0.013-0.021 0.081-0.038 0.151-0.038s0.138-0.017 0.151-0.038c0.013-0.021 0.074-0.038 0.135-0.038s0.111-0.017 0.111-0.038c0-0.021 0.051-0.038 0.113-0.038s0.113-0.017 0.113-0.038c0-0.021 0.051-0.038 0.113-0.038s0.113-0.017 0.113-0.038c0-0.021 0.051-0.038 0.113-0.038s0.113-0.017 0.113-0.038c0-0.021 0.042-0.038 0.092-0.038s0.103-0.017 0.116-0.038c0.013-0.021 0.056-0.038 0.097-0.038s0.073-0.017 0.073-0.038c0-0.021 0.034-0.038 0.076-0.038s0.076-0.017 0.076-0.038c0-0.021 0.042-0.038 0.092-0.038s0.103-0.017 0.116-0.038c0.013-0.021 0.056-0.038 0.097-0.038s0.074-0.017 0.074-0.038c0-0.021 0.034-0.038 0.076-0.038s0.076-0.017 0.076-0.038c0-0.021 0.034-0.038 0.076-0.038s0.076-0.017 0.076-0.038c0-0.021 0.022-0.038 0.050-0.038s0.086-0.034 0.131-0.076c0.045-0.042 0.107-0.076 0.14-0.076s0.058-0.017 0.058-0.038c0-0.021 0.030-0.038 0.067-0.038s0.092-0.034 0.122-0.076c0.030-0.042 0.081-0.076 0.113-0.076s0.084-0.034 0.113-0.076c0.030-0.042 0.081-0.076 0.113-0.076s0.084-0.034 0.113-0.076c0.030-0.042 0.074-0.076 0.098-0.076s0.114-0.068 0.2-0.151c0.086-0.083 0.172-0.151 0.191-0.151 0.046 0 0.986-0.931 0.986-0.977 0-0.019 0.068-0.105 0.151-0.191s0.151-0.175 0.151-0.197c0-0.023 0.051-0.089 0.113-0.148s0.113-0.125 0.113-0.149c0-0.024 0.034-0.080 0.076-0.124s0.076-0.104 0.076-0.131 0.017-0.049 0.038-0.049c0.021 0 0.038-0.022 0.038-0.050s0.034-0.086 0.076-0.131c0.042-0.045 0.076-0.108 0.076-0.14s0.017-0.058 0.038-0.058c0.021 0 0.038-0.034 0.038-0.076s0.017-0.076 0.038-0.076 0.038-0.034 0.038-0.076 0.017-0.076 0.038-0.076c0.021 0 0.038-0.034 0.038-0.076s0.017-0.076 0.038-0.076c0.021 0 0.038-0.034 0.038-0.076s0.017-0.076 0.038-0.076 0.038-0.034 0.038-0.076 0.017-0.076 0.038-0.076c0.021 0 0.038-0.034 0.038-0.076s0.017-0.076 0.038-0.076c0.021 0 0.038-0.042 0.038-0.092s0.017-0.103 0.038-0.116c0.021-0.013 0.038-0.056 0.038-0.097s0.017-0.074 0.038-0.074c0.021 0 0.038-0.051 0.038-0.113s0.017-0.113 0.038-0.113c0.021 0 0.038-0.051 0.038-0.113s0.017-0.113 0.038-0.113c0.021 0 0.038-0.051 0.038-0.113s0.017-0.113 0.038-0.113c0.021 0 0.038-0.051 0.038-0.113s0.017-0.113 0.038-0.113c0.021 0 0.038-0.068 0.038-0.151s0.017-0.151 0.038-0.151 0.038-0.068 0.038-0.151 0.017-0.151 0.038-0.151c0.021 0 0.038-0.085 0.038-0.189s0.017-0.189 0.038-0.189c0.021 0 0.038-0.085 0.038-0.189s0.017-0.189 0.038-0.189c0.022 0 0.038-0.113 0.038-0.265s0.016-0.265 0.038-0.265c0.022 0 0.038-0.13 0.038-0.314 0-0.201 0.017-0.331 0.047-0.361 0.038-0.037 0.050-2.338 0.059-11.185l0.012-11.138h-8.969v10.78c0 7.161-0.013 10.78-0.038 10.78-0.021 0-0.038 0.093-0.038 0.206s-0.017 0.216-0.038 0.229c-0.021 0.013-0.038 0.074-0.038 0.135s-0.017 0.111-0.038 0.111c-0.021 0-0.038 0.024-0.038 0.053 0 0.063-0.158 0.376-0.199 0.394-0.016 0.007-0.028 0.033-0.028 0.059 0 0.065-0.225 0.296-0.35 0.361-0.057 0.029-0.104 0.068-0.104 0.085s-0.034 0.032-0.076 0.032c-0.042 0-0.076 0.017-0.076 0.038s-0.034 0.038-0.076 0.038-0.076 0.017-0.076 0.038-0.034 0.038-0.076 0.038c-0.042 0-0.076 0.017-0.076 0.038s-0.068 0.038-0.151 0.038c-0.083 0-0.151 0.017-0.151 0.038 0 0.022-0.132 0.038-0.319 0.038-0.176 0-0.33 0.017-0.343 0.038-0.031 0.051-1.33 0.051-1.362 0-0.013-0.021-0.159-0.038-0.324-0.038-0.175 0-0.3-0.016-0.3-0.038 0-0.021-0.068-0.038-0.151-0.038s-0.151-0.017-0.151-0.038c0-0.021-0.042-0.038-0.092-0.038s-0.103-0.017-0.116-0.038c-0.013-0.021-0.056-0.038-0.097-0.038s-0.073-0.014-0.073-0.031-0.047-0.056-0.103-0.085c-0.133-0.069-0.392-0.328-0.461-0.461-0.030-0.057-0.068-0.104-0.085-0.104s-0.032-0.034-0.032-0.076-0.017-0.076-0.038-0.076c-0.021 0-0.038-0.033-0.038-0.074s-0.017-0.084-0.038-0.097c-0.021-0.013-0.038-0.072-0.038-0.133s-0.017-0.119-0.038-0.132c-0.021-0.013-0.038-0.108-0.038-0.21s-0.017-0.187-0.038-0.187c-0.025 0-0.038-3.631-0.038-10.818v-10.818h-9.078v10.759c0 7.132 0.013 10.767 0.038 10.782 0.022 0.014 0.038 0.225 0.038 0.505 0 0.324 0.015 0.497 0.045 0.527 0.035 0.035-1.116 0.045-5.182 0.045h-5.228v-11.264c0-8.711-0.010-11.275-0.045-11.31s-1.086-0.045-4.501-0.045h-4.456v3.366c0 2.219-0.013 3.366-0.038 3.366-0.021 0-0.038-0.067-0.038-0.149s-0.017-0.16-0.038-0.172c-0.021-0.013-0.038-0.081-0.038-0.151s-0.017-0.138-0.038-0.151c-0.021-0.013-0.038-0.082-0.038-0.153s-0.017-0.13-0.038-0.13-0.038-0.051-0.038-0.113c0-0.062-0.017-0.113-0.038-0.113s-0.038-0.051-0.038-0.113-0.017-0.113-0.038-0.113-0.038-0.051-0.038-0.113-0.017-0.113-0.038-0.113-0.038-0.042-0.038-0.092c0-0.051-0.017-0.103-0.038-0.116s-0.038-0.056-0.038-0.097-0.017-0.073-0.038-0.073c-0.021 0-0.038-0.034-0.038-0.076s-0.017-0.076-0.038-0.076-0.038-0.042-0.038-0.092c0-0.051-0.017-0.103-0.038-0.116s-0.038-0.055-0.038-0.093c0-0.039-0.013-0.076-0.028-0.083-0.025-0.011-0.14-0.21-0.251-0.438-0.023-0.047-0.054-0.085-0.070-0.085s-0.028-0.034-0.028-0.076c0-0.042-0.014-0.076-0.031-0.076s-0.056-0.047-0.085-0.104c-0.029-0.057-0.084-0.137-0.12-0.177s-0.066-0.092-0.066-0.115-0.034-0.066-0.076-0.096c-0.042-0.030-0.076-0.074-0.076-0.099s-0.068-0.114-0.151-0.2c-0.083-0.086-0.151-0.171-0.151-0.19 0-0.049-0.673-0.724-0.832-0.835-0.073-0.051-0.177-0.14-0.233-0.198s-0.119-0.106-0.142-0.106c-0.023 0-0.095-0.051-0.161-0.113s-0.134-0.113-0.153-0.113c-0.019 0-0.070-0.034-0.115-0.076s-0.103-0.076-0.131-0.076c-0.027 0-0.050-0.017-0.050-0.038s-0.026-0.038-0.058-0.038-0.095-0.034-0.14-0.076c-0.045-0.042-0.103-0.076-0.131-0.076s-0.050-0.017-0.050-0.038c0-0.021-0.034-0.038-0.076-0.038s-0.076-0.017-0.076-0.038c0-0.021-0.034-0.038-0.076-0.038s-0.076-0.017-0.076-0.038-0.034-0.038-0.076-0.038-0.076-0.017-0.076-0.038c0-0.021-0.034-0.038-0.076-0.038s-0.076-0.017-0.076-0.038c0-0.021-0.042-0.038-0.092-0.038s-0.103-0.017-0.116-0.038c-0.013-0.021-0.056-0.038-0.097-0.038s-0.073-0.017-0.073-0.038c0-0.021-0.034-0.038-0.076-0.038s-0.11-0.017-0.151-0.038c-0.041-0.021-0.109-0.055-0.15-0.076s-0.108-0.038-0.149-0.038c-0.041 0-0.084-0.017-0.097-0.038s-0.072-0.038-0.132-0.038c-0.060 0-0.12-0.017-0.133-0.038s-0.073-0.038-0.135-0.038c-0.061 0-0.111-0.017-0.111-0.038s-0.068-0.038-0.151-0.038c-0.083 0-0.151-0.017-0.151-0.038s-0.065-0.038-0.144-0.038c-0.079 0-0.165-0.021-0.191-0.047-0.045-0.045-7.965-0.082-8.441-0.039zM13.277 7.752c0 0.040 0.017 0.084 0.038 0.097s0.038 0.106 0.038 0.208 0.017 0.195 0.038 0.208 0.038 0.107 0.038 0.21 0.017 0.187 0.038 0.187c0.021 0 0.038 0.085 0.038 0.189s0.017 0.189 0.038 0.189c0.021 0 0.038 0.093 0.038 0.206s0.017 0.216 0.038 0.229c0.021 0.013 0.038 0.108 0.038 0.21s0.017 0.187 0.038 0.187c0.021 0 0.038 0.085 0.038 0.189s0.017 0.189 0.038 0.189c0.021 0 0.038 0.084 0.038 0.187s0.017 0.197 0.038 0.21c0.021 0.013 0.038 0.106 0.038 0.208s0.017 0.195 0.038 0.208c0.021 0.013 0.038 0.108 0.038 0.21s0.017 0.187 0.038 0.187c0.021 0 0.038 0.084 0.038 0.187s0.017 0.197 0.038 0.21 0.038 0.106 0.038 0.208c0 0.101 0.017 0.195 0.038 0.208s0.038 0.108 0.038 0.21 0.017 0.187 0.038 0.187c0.021 0 0.038 0.085 0.038 0.189s0.017 0.189 0.038 0.189 0.038 0.093 0.038 0.206c0 0.113 0.017 0.216 0.038 0.229s0.038 0.107 0.038 0.21 0.017 0.187 0.038 0.187c0.021 0 0.038 0.085 0.038 0.189s0.017 0.189 0.038 0.189c0.021 0 0.038 0.093 0.038 0.206s0.017 0.216 0.038 0.229c0.021 0.013 0.038 0.108 0.038 0.21s0.017 0.187 0.038 0.187c0.021 0 0.038 0.085 0.038 0.189s0.017 0.189 0.038 0.189 0.038 0.084 0.038 0.187c0 0.103 0.017 0.197 0.038 0.21s0.038 0.106 0.038 0.208c0 0.102 0.017 0.195 0.038 0.208s0.038 0.108 0.038 0.21c0 0.103 0.017 0.187 0.038 0.187s0.038 0.084 0.038 0.187c0 0.103 0.017 0.197 0.038 0.21s0.038 0.106 0.038 0.208c0 0.101 0.017 0.195 0.038 0.208s0.038 0.108 0.038 0.21 0.017 0.187 0.038 0.187c0.021 0 0.038 0.085 0.038 0.189s0.017 0.189 0.038 0.189c0.021 0 0.038 0.093 0.038 0.206s0.017 0.216 0.038 0.229c0.021 0.013 0.038 0.107 0.038 0.21v0.187h-2.269c-2.244 0-2.27-0.001-2.27-0.076 0-0.042 0.017-0.076 0.038-0.076s0.038-0.084 0.038-0.187c0-0.103 0.017-0.197 0.038-0.21s0.038-0.116 0.038-0.229 0.017-0.206 0.038-0.206c0.021 0 0.038-0.084 0.038-0.187s0.017-0.197 0.038-0.21c0.021-0.013 0.038-0.106 0.038-0.208s0.017-0.195 0.038-0.208c0.021-0.013 0.038-0.108 0.038-0.21s0.017-0.187 0.038-0.187c0.021 0 0.038-0.084 0.038-0.187s0.017-0.197 0.038-0.21 0.038-0.116 0.038-0.229c0-0.113 0.017-0.206 0.038-0.206s0.038-0.084 0.038-0.187 0.017-0.197 0.038-0.21c0.021-0.013 0.038-0.116 0.038-0.229s0.017-0.206 0.038-0.206 0.038-0.085 0.038-0.189c0-0.104 0.017-0.189 0.038-0.189s0.038-0.093 0.038-0.206 0.017-0.216 0.038-0.229c0.021-0.013 0.038-0.107 0.038-0.21s0.017-0.187 0.038-0.187c0.021 0 0.038-0.084 0.038-0.187s0.017-0.197 0.038-0.21c0.021-0.013 0.038-0.116 0.038-0.229s0.017-0.206 0.038-0.206c0.021 0 0.038-0.084 0.038-0.187s0.017-0.197 0.038-0.21c0.021-0.013 0.038-0.106 0.038-0.208s0.017-0.195 0.038-0.208c0.021-0.013 0.038-0.107 0.038-0.21s0.017-0.187 0.038-0.187c0.021 0 0.038-0.084 0.038-0.187s0.017-0.197 0.038-0.21c0.021-0.013 0.038-0.116 0.038-0.229s0.017-0.206 0.038-0.206c0.021 0 0.038-0.084 0.038-0.187s0.017-0.197 0.038-0.21c0.021-0.013 0.038-0.116 0.038-0.229s0.017-0.206 0.038-0.206c0.021 0 0.038-0.085 0.038-0.189s0.017-0.189 0.038-0.189c0.021 0 0.038-0.093 0.038-0.206s0.017-0.216 0.038-0.229c0.021-0.013 0.038-0.108 0.038-0.21s0.017-0.187 0.038-0.187c0.021 0 0.038-0.084 0.038-0.187s0.017-0.197 0.038-0.21c0.021-0.013 0.038-0.116 0.038-0.229s0.017-0.206 0.038-0.206c0.021 0 0.038-0.085 0.038-0.189s0.017-0.189 0.038-0.189 0.038-0.051 0.038-0.113c0-0.107 0.008-0.113 0.151-0.113 0.125 0 0.151 0.013 0.151 0.074zM37.579 8.019c0.013 0.021 0.099 0.038 0.192 0.038s0.168 0.017 0.168 0.038c0 0.021 0.050 0.038 0.111 0.038s0.122 0.017 0.135 0.038 0.065 0.038 0.116 0.038c0.051 0 0.092 0.017 0.092 0.038s0.021 0.038 0.047 0.038c0.026 0 0.107 0.051 0.18 0.113s0.146 0.113 0.163 0.113c0.046 0 0.191 0.158 0.25 0.274 0.030 0.057 0.068 0.104 0.085 0.104s0.032 0.034 0.032 0.076 0.017 0.076 0.038 0.076c0.021 0 0.038 0.034 0.038 0.076s0.017 0.076 0.038 0.076 0.038 0.034 0.038 0.076 0.017 0.076 0.038 0.076c0.021 0 0.038 0.050 0.038 0.111s0.017 0.122 0.038 0.135c0.021 0.013 0.038 0.106 0.038 0.208s0.017 0.195 0.038 0.208c0.024 0.015 0.038 0.555 0.038 1.496v1.473h7.943v5.825h-7.943v1.473c0 0.941-0.014 1.482-0.038 1.497-0.021 0.013-0.038 0.106-0.038 0.208s-0.017 0.195-0.038 0.208c-0.021 0.013-0.038 0.074-0.038 0.135s-0.017 0.111-0.038 0.111c-0.021 0-0.038 0.042-0.038 0.092s-0.017 0.103-0.038 0.116c-0.021 0.013-0.038 0.053-0.038 0.088s-0.034 0.090-0.076 0.12-0.076 0.076-0.076 0.104c0 0.067-0.401 0.464-0.469 0.464-0.030 0-0.060 0.013-0.067 0.028-0.018 0.041-0.332 0.199-0.394 0.199-0.029 0-0.053 0.017-0.053 0.038s-0.068 0.038-0.151 0.038c-0.083 0-0.151 0.017-0.151 0.038 0 0.022-0.139 0.038-0.34 0.038s-0.34 0.015-0.34 0.038c0 0.024-0.239 0.038-0.641 0.038-0.386 0-0.65-0.015-0.664-0.038-0.013-0.021-0.167-0.038-0.343-0.038-0.188 0-0.319-0.015-0.319-0.038 0-0.021-0.068-0.038-0.151-0.038s-0.151-0.017-0.151-0.038c0-0.021-0.033-0.038-0.073-0.038s-0.084-0.017-0.097-0.038-0.065-0.038-0.116-0.038c-0.051 0-0.092-0.014-0.092-0.031s-0.047-0.056-0.104-0.085c-0.135-0.070-0.577-0.52-0.577-0.588 0-0.029-0.017-0.052-0.038-0.052s-0.038-0.034-0.038-0.076c0-0.042-0.017-0.076-0.038-0.076s-0.038-0.042-0.038-0.092c0-0.051-0.017-0.103-0.038-0.116s-0.038-0.074-0.038-0.135c0-0.061-0.017-0.111-0.038-0.111s-0.038-0.085-0.038-0.189-0.017-0.189-0.038-0.189c-0.052 0-0.052-11.826 0-11.858 0.021-0.013 0.038-0.108 0.038-0.21s0.017-0.187 0.038-0.187c0.021 0 0.038-0.051 0.038-0.113s0.017-0.113 0.038-0.113c0.021 0 0.038-0.024 0.038-0.053 0-0.069 0.152-0.361 0.236-0.455 0.037-0.040 0.066-0.089 0.066-0.108 0-0.042 0.266-0.291 0.312-0.291 0.017 0 0.069-0.034 0.113-0.076s0.103-0.076 0.131-0.076 0.050-0.017 0.050-0.038c0-0.021 0.051-0.038 0.113-0.038s0.113-0.017 0.113-0.038c0-0.021 0.051-0.038 0.113-0.038s0.113-0.017 0.113-0.038c0-0.021 0.076-0.038 0.168-0.038s0.178-0.017 0.191-0.038c0.015-0.024 0.428-0.038 1.116-0.038s1.101 0.014 1.116 0.038z"></path>
</svg>
