<!-- Generated by IcoMoon.io -->
<svg version="1.1" xmlns="http://www.w3.org/2000/svg" width="45" height="32" viewBox="0 0 45 32">
<title>amnesty_international</title>
<path fill="#060605" d="M36.954 9.55c0 0.215-0.259 0.433-0.957 0.807-1.162 0.622-1.569 1.103-1.569 1.854 0 0.691 0.315 1.128 1.019 1.412 0.549 0.222 0.455 0.302-0.349 0.302-0.723 0-0.667-0.050-0.68 0.597-0.011 0.522-0.014 0.53-0.166 0.443-0.127-0.072-0.16-0.059-0.16 0.063 0 0.145-0.033 0.165-0.61 0.366-0.561 0.196-0.618 0.201-0.669 0.059-0.036-0.101-0.038-0.102-0.084-0.040-0.145 0.197-0.197 0.215-0.372 0.125-0.094-0.049-0.098-0.048-0.075 0.008 0.106 0.255 0.11 0.23-0.063 0.38-0.189 0.164-0.184 0.179 0.047 0.137 0.168-0.031 0.178-0.028 0.241 0.051 0.086 0.108 0.098 0.105 0.164-0.033 0.054-0.114 0.057-0.116 0.207-0.098l0.152 0.018-0.017-0.105-0.017-0.105 0.395-0.163c0.627-0.258 0.721-0.28 0.784-0.183 0.060 0.092 0.098 0.097 0.178 0.025 0.057-0.051 0.059-0.017 0.059 1.037v1.090l-0.099 0.034c-0.317 0.111-0.476 0.081-0.477-0.090-0-0.078-0.001-0.078-0.106 0.024-0.133 0.128-0.155 0.128-0.301-0.010-0.137-0.13-0.184-0.142-0.15-0.040 0.065 0.192 0.044 0.224-0.241 0.369-0.63 0.32-0.838 0.61-0.743 1.033 0.029 0.129 0.024 0.155-0.050 0.267-0.086 0.131-0.070 0.178 0.063 0.179 0.107 0.001 0.174 0.062 0.196 0.176 0.023 0.125 0.038 0.132 0.128 0.064 0.070-0.053 0.182-0.062 0.228-0.017 0.017 0.016 0.21 0.11 0.431 0.209 0.596 0.267 0.604 0.272 0.615 0.384 0.011 0.107 0.040 0.113 0.211 0.045 0.233-0.093 0.276-0.017 0.295 0.513 0.020 0.562-0.059 0.498 0.836 0.673 0.394 0.077 0.904 0.18 1.133 0.229 0.764 0.164 1.063 0.207 1.118 0.161 0.042-0.034 0.050-0.176 0.058-0.925 0.008-0.789 0.014-0.885 0.061-0.894 0.062-0.012 0.123 0.138 0.125 0.31l0.002 0.115 0.067-0.139c0.071-0.146 0.092-0.152 0.302-0.085 0.064 0.020 0.068 0.013 0.053-0.12s-0.010-0.144 0.076-0.176c0.166-0.063 0.472-0.174 0.694-0.25l0.219-0.075 0.073 0.079c0.088 0.095 0.114 0.099 0.114 0.019 0-0.105 0.085-0.149 0.204-0.106 0.162 0.059 0.188 0.050 0.164-0.055-0.018-0.081-0.004-0.106 0.11-0.198 0.146-0.117 0.129-0.156-0.068-0.157-0.094-0-0.134-0.021-0.197-0.102l-0.080-0.102-0.047 0.114c-0.067 0.16-0.092 0.165-0.245 0.055l-0.135-0.098 0.022 0.176 0.022 0.176-0.171 0.087c-0.491 0.249-0.837 0.315-0.917 0.174-0.066-0.117-0.090-0.12-0.116-0.017-0.033 0.132-0.16 0.196-0.259 0.131l-0.080-0.052v-1.084c0-1.168 0.001-1.173 0.166-1.15 0.054 0.008 0.086 0.047 0.121 0.146 0.058 0.169 0.062 0.169 0.186-0.008 0.121-0.172 0.212-0.186 0.378-0.059 0.133 0.101 0.163 0.086 0.089-0.043-0.073-0.127-0.042-0.189 0.106-0.215 0.608-0.107 1.003-0.394 1.081-0.787 0.041-0.206 0.055-0.23 0.165-0.275 0.133-0.056 0.135-0.071 0.015-0.113-0.097-0.034-0.162-0.157-0.162-0.305 0-0.092-0.036-0.096-0.112-0.011-0.074 0.082-0.119 0.081-0.195-0.005-0.080-0.090-0.434-0.317-0.716-0.459-0.232-0.117-0.249-0.143-0.193-0.291 0.046-0.12 0.025-0.126-0.128-0.040l-0.132 0.075-0.062-0.076c-0.034-0.041-0.062-0.104-0.062-0.138 0-0.084-0.050-0.048-0.148 0.107-0.077 0.122-0.087 0.127-0.199 0.106-0.195-0.037-0.198-0.043-0.198-0.545 0-0.626 0.044-0.587-0.683-0.599-0.684-0.011-0.715-0.026-0.683-0.344 0.036-0.352 0.19-0.583 0.727-1.092 0.717-0.68 0.895-0.995 0.895-1.582 0-0.491-0.137-0.787-0.555-1.205-0.285-0.285-0.296-0.29-0.296-0.145zM37.186 10.202c0.149 0.356 0.007 0.764-0.623 1.789-0.421 0.685-0.526 0.936-0.549 1.31-0.044 0.72-0.778-0.014-0.783-0.784-0.003-0.534 0.242-0.905 1.070-1.618 0.548-0.471 0.688-0.613 0.737-0.741 0.040-0.106 0.090-0.091 0.146 0.045zM19.823 11.092c-0.568 0.123-0.888 0.503-0.927 1.101-0.048 0.738 0.18 1.12 1.186 1.985 0.657 0.565 0.826 1.103 0.434 1.382-0.348 0.248-0.762 0.010-0.856-0.492-0.039-0.207-0.020-0.201-0.454-0.145-0.464 0.060-0.438 0.036-0.372 0.338 0.179 0.831 0.76 1.252 1.566 1.135 0.745-0.108 1.126-0.549 1.128-1.303l0.001-0.384-0.132-0.272c-0.163-0.335-0.38-0.585-0.913-1.052-0.613-0.537-0.732-0.698-0.757-1.030-0.051-0.672 0.774-0.766 0.916-0.104l0.026 0.121 0.158-0.007c0.087-0.004 0.278-0.024 0.424-0.043l0.266-0.036-0.021-0.101c-0.19-0.895-0.786-1.284-1.671-1.092zM5.378 11.137c0 0.017-0.037 0.23-0.082 0.473-0.14 0.751-0.443 2.404-0.637 3.467-0.062 0.343-0.142 0.767-0.178 0.941s-0.064 0.322-0.064 0.329 0.191 0.008 0.424 0.004l0.424-0.009 0.023-0.128c0.012-0.070 0.045-0.301 0.073-0.512s0.058-0.417 0.067-0.457c0.016-0.072 0.019-0.073 0.519-0.064l0.503 0.009 0.039 0.32c0.021 0.176 0.056 0.439 0.076 0.584l0.037 0.264h0.429c0.236 0 0.429-0.006 0.429-0.014s-0.022-0.119-0.049-0.248c-0.027-0.129-0.085-0.429-0.127-0.666s-0.137-0.749-0.208-1.136c-0.124-0.672-0.245-1.334-0.429-2.353-0.046-0.255-0.101-0.543-0.123-0.64l-0.039-0.176-0.552-0.009c-0.336-0.005-0.552 0.003-0.552 0.022zM7.922 11.148c-0.008 0.022-0.012 1.2-0.007 2.617l0.008 2.577 0.752 0.018v-2.056c0-1.4 0.010-2.046 0.033-2.023 0.018 0.018 0.075 0.255 0.126 0.527 0.092 0.485 0.658 3.338 0.69 3.479 0.015 0.065 0.431 0.121 0.431 0.059 0-0.023 0.443-2.262 0.51-2.58 0.036-0.167 0.117-0.574 0.182-0.905s0.125-0.593 0.135-0.583 0.014 0.907 0.009 1.993c-0.005 1.087 0.001 2.001 0.013 2.032 0.019 0.049 0.069 0.056 0.387 0.056h0.365v-5.25h-0.574c-0.519 0-0.576 0.005-0.591 0.056-0.010 0.031-0.12 0.553-0.245 1.16s-0.26 1.262-0.3 1.455c-0.095 0.46-0.116 0.453-0.22-0.070-0.048-0.242-0.145-0.714-0.216-1.049-0.16-0.76-0.319-1.527-0.319-1.542 0-0.036-1.156-0.007-1.17 0.029zM12.421 13.734v2.626l0.784-0.018 0.006-1.616c0.004-1.107 0.017-1.619 0.040-1.627 0.019-0.006 0.034 0.009 0.034 0.033s0.249 0.757 0.554 1.627l0.553 1.582 0.782 0.018-0.008-2.618-0.008-2.618-0.784-0.018v1.49c0 1.433-0.012 1.613-0.089 1.385-0.019-0.057-0.102-0.284-0.184-0.504s-0.19-0.515-0.24-0.656-0.158-0.436-0.239-0.656-0.189-0.517-0.239-0.66c-0.15-0.43-0.103-0.397-0.563-0.397h-0.399v2.626zM16.027 11.129c-0.012 0.012-0.022 1.193-0.022 2.625v2.604h2.497v-0.768h-1.601v-1.569h1.152v-0.768h-1.152v-1.376h1.507l-0.009-0.376-0.009-0.376-1.171-0.008c-0.644-0.005-1.18 0.001-1.192 0.013zM21.736 11.492v0.384h0.864v4.483l0.88-0.018 0.008-2.233 0.008-2.233h0.864v-0.768h-2.625v0.384zM24.617 11.124c0 0.017 0.164 0.489 0.385 1.104 0.073 0.202 0.223 0.627 0.335 0.944s0.24 0.674 0.286 0.793l0.083 0.217v2.175h0.863l0.009-1.128 0.009-1.128 0.138-0.368c0.121-0.325 0.232-0.633 0.647-1.809 0.056-0.158 0.144-0.399 0.195-0.535s0.093-0.255 0.093-0.264c0-0.039-0.857-0.017-0.889 0.023-0.018 0.022-0.076 0.191-0.13 0.376s-0.156 0.531-0.228 0.768c-0.072 0.238-0.154 0.515-0.184 0.616-0.051 0.177-0.095 0.229-0.121 0.144-0.007-0.022-0.147-0.469-0.311-0.992l-0.299-0.952h-0.44c-0.242 0-0.44 0.007-0.44 0.016zM6.056 12.767c0.047 0.311 0.123 0.8 0.169 1.087s0.075 0.535 0.065 0.552c-0.024 0.039-0.677 0.041-0.701 0.003-0.016-0.026 0.045-0.46 0.24-1.716 0.108-0.696 0.111-0.696 0.227 0.075zM36.927 14.515c0.091 0.066 0.116 2.765 0.027 2.839-0.041 0.034-0.16 0.045-0.472 0.045h-0.418l-0.032-0.096c-0.017-0.053-0.035-0.101-0.040-0.108s-0.053 0.026-0.108 0.072c-0.121 0.102-0.171 0.105-0.282 0.017l-0.085-0.067-0.010 0.134c-0.012 0.159-0.141 0.235-0.369 0.218l-0.133-0.010-0.008-1.486c-0.008-1.348-0.003-1.491 0.045-1.545 0.072-0.079 1.779-0.091 1.886-0.013zM37.773 15.334c0.036 0.036 0.064 0.107 0.064 0.16 0 0.112-0.003 0.11 0.116 0.048 0.14-0.073 0.189-0.060 0.312 0.085 0.117 0.137 0.122 0.136 0.162-0.046 0.029-0.132 0.093-0.137 0.318-0.027 0.362 0.178 0.574 0.408 0.444 0.481-0.052 0.029-0.051 0.037 0.016 0.108 0.088 0.094 0.090 0.126 0.008 0.2-0.101 0.092-0.076 0.116 0.096 0.093l0.16-0.021v0.099c0 0.357-1.006 0.771-1.148 0.473l-0.044-0.092-0.071 0.089c-0.072 0.091-0.125 0.095-0.332 0.030-0.067-0.021-0.072-0.015-0.053 0.058 0.031 0.125-0.091 0.238-0.188 0.173-0.069-0.046-0.070-0.060-0.078-1.011l-0.008-0.964h0.080c0.044 0 0.109 0.029 0.145 0.064zM36.972 17.604c0.067 0.126 0.043 3.504-0.025 3.588l-0.058 0.072-0.91-0.182c-0.652-0.13-0.921-0.197-0.95-0.235-0.077-0.102-0.056-3.071 0.022-3.113 0.173-0.092 0.322-0.013 0.322 0.171 0 0.137 0.061 0.128 0.207-0.029 0.125-0.134 0.151-0.148 0.231-0.126 0.166 0.046 0.248 0.036 0.26-0.033 0.020-0.107 0.056-0.122 0.365-0.145 0.501-0.037 0.5-0.037 0.536 0.030zM20.56 17.732c-0.21 0.054-0.425 0.252-0.483 0.443-0.062 0.208-0.053 2.152 0.011 2.306 0.225 0.541 1.132 0.616 1.439 0.119l0.096-0.155 0.010-1.059c0.011-1.179-0.001-1.272-0.176-1.447-0.202-0.202-0.578-0.289-0.898-0.207zM4.546 19.303v1.569h0.512v-3.137h-0.512v1.569zM5.57 19.303v1.569h0.448v-0.942c0-0.518 0.011-0.95 0.026-0.958 0.020-0.012 0.469 1.209 0.66 1.797l0.034 0.104h0.465v-3.14l-0.464 0.019-0.005 0.874c-0.004 0.805-0.016 0.986-0.057 0.867-0.008-0.024-0.14-0.39-0.293-0.813s-0.292-0.808-0.309-0.856c-0.030-0.085-0.038-0.088-0.268-0.088h-0.237v1.569zM7.491 17.977v0.242l0.104-0.006c0.057-0.003 0.173-0.004 0.256-0.002l0.152 0.003v2.657h0.512v-1.329c0-1.040 0.009-1.329 0.040-1.33 0.022-0.001 0.141-0.005 0.264-0.008l0.224-0.006 0.009-0.232 0.009-0.232h-1.571v0.243zM9.347 19.303v1.569h1.505v-0.414l-0.976-0.018-0.009-0.472c-0.007-0.365 0-0.473 0.032-0.476 0.022-0.002 0.178-0.006 0.345-0.008l0.304-0.004 0.009-0.215 0.009-0.215-0.691-0.018-0.009-0.408c-0.007-0.314 0-0.408 0.032-0.409 0.023-0.001 0.228-0.004 0.457-0.008l0.416-0.007 0.009-0.232 0.009-0.232h-1.443v1.569zM11.204 19.303v1.569h0.544v-1.284l0.302 0.019 0.070 0.24c0.038 0.132 0.12 0.413 0.182 0.624l0.112 0.384 0.26 0.016c0.162 0.010 0.26 0.004 0.259-0.016 0-0.018-0.094-0.32-0.208-0.672-0.236-0.726-0.236-0.729-0.131-0.777 0.259-0.118 0.37-0.887 0.183-1.267-0.152-0.309-0.418-0.405-1.125-0.405h-0.447v1.569zM13.338 17.756c-0.012 0.012-0.021 0.718-0.021 1.569v1.547h0.48v-0.967c0-1.068 0.003-1.080 0.173-0.584 0.060 0.175 0.177 0.506 0.259 0.735s0.181 0.506 0.218 0.616l0.068 0.2h0.467v-3.137h-0.48l-0.001 0.904c-0.001 1.019 0.004 1.008-0.21 0.408-0.072-0.202-0.209-0.581-0.304-0.84l-0.172-0.472h-0.227c-0.125 0-0.237 0.010-0.248 0.021zM15.864 17.853c-0.012 0.067-0.063 0.344-0.114 0.617-0.179 0.95-0.32 1.715-0.38 2.057l-0.060 0.344h0.497l0.037-0.28c0.056-0.426 0.041-0.409 0.365-0.406 0.334 0.003 0.305-0.026 0.358 0.351 0.052 0.373 0.021 0.34 0.31 0.329l0.239-0.009-0.103-0.544c-0.056-0.299-0.157-0.84-0.223-1.2s-0.151-0.815-0.188-1.008l-0.068-0.352-0.649-0.018-0.021 0.121zM17.101 17.966l0.009 0.233 0.512 0.004 0.017 2.669h0.511l0.008-1.332 0.008-1.332 0.512-0.008v-0.448l-1.587-0.017 0.009 0.233zM19.047 19.303v1.569h0.512v-3.137h-0.512v1.569zM22.056 19.303v1.569h0.484l-0.005-0.952c-0.003-0.524 0.007-0.948 0.022-0.943s0.082 0.171 0.149 0.368c0.067 0.197 0.157 0.459 0.2 0.583s0.134 0.383 0.201 0.576l0.122 0.352 0.46 0.019v-3.14h-0.448v0.875c0 0.481-0.010 0.885-0.022 0.897-0.025 0.025-0.062-0.065-0.362-0.892-0.121-0.334-0.245-0.669-0.275-0.744l-0.055-0.136h-0.471v1.569zM24.603 17.773c-0.013 0.042-0.142 0.745-0.306 1.674-0.050 0.282-0.119 0.656-0.155 0.832s-0.074 0.381-0.086 0.456l-0.021 0.136h0.507l0.041-0.328c0.049-0.387 0.026-0.365 0.37-0.358 0.328 0.007 0.287-0.036 0.339 0.35l0.044 0.32 0.5 0.019-0.020-0.121c-0.026-0.157-0.249-1.374-0.354-1.93-0.045-0.238-0.107-0.576-0.137-0.752l-0.056-0.32-0.327-0.009c-0.245-0.007-0.331 0.001-0.34 0.032zM26.153 19.303v1.569h1.344v-0.414l-0.816-0.018-0.008-1.352-0.008-1.353h-0.511v1.569zM34.412 18.787c0 0.836-0.007 0.994-0.048 1.028-0.076 0.063-0.197 0.011-0.278-0.12l-0.075-0.12-0.010 0.14c-0.012 0.174-0.053 0.171-0.531-0.047-0.485-0.221-0.531-0.254-0.531-0.381 0-0.093-0.012-0.11-0.099-0.129-0.093-0.020-0.098-0.029-0.079-0.131 0.022-0.115-0.012-0.141-0.079-0.061-0.158 0.191-0.221-0.169-0.079-0.454 0.167-0.335 0.928-0.709 0.986-0.485 0.016 0.060 0.022 0.062 0.087 0.016 0.051-0.036 0.091-0.041 0.148-0.019 0.139 0.053 0.209 0.039 0.171-0.032-0.072-0.135 0.001-0.189 0.263-0.192l0.152-0.002v0.988zM21.031 18.208c0.185 0.15 0.186 2.072 0.001 2.221-0.135 0.109-0.359 0.072-0.434-0.072-0.058-0.113-0.070-1.976-0.013-2.082 0.067-0.126 0.325-0.165 0.446-0.067zM12.161 18.235c0.149 0.104 0.207 0.414 0.13 0.692-0.043 0.155-0.132 0.211-0.377 0.236l-0.198 0.021v-1.002h0.185c0.119 0 0.211 0.019 0.26 0.052zM16.245 18.479c0.027 0.119 0.177 1.142 0.177 1.209 0 0.066-0.39 0.1-0.428 0.037-0.009-0.014 0.026-0.27 0.077-0.568s0.094-0.589 0.094-0.646c0.001-0.119 0.055-0.14 0.080-0.032zM25.015 18.767c0.029 0.198 0.075 0.481 0.102 0.628 0.063 0.348 0.059 0.356-0.179 0.356s-0.242-0.008-0.18-0.356c0.027-0.148 0.072-0.43 0.102-0.628s0.064-0.36 0.078-0.36c0.013 0 0.048 0.162 0.078 0.36z"></path>
<path fill="#fbfb04" d="M0 16.006v16.006h44.496v-32.011h-44.496v16.006zM37.158 9.547c1.022 0.931 0.972 1.791-0.169 2.921-0.631 0.625-0.722 0.758-0.745 1.078-0.023 0.322-0.038 0.315 0.619 0.315 0.54 0 0.557 0.002 0.644 0.077l0.090 0.077 0.020 0.961 0.099 0.035c0.114 0.040 0.227-0.036 0.262-0.177 0.024-0.096 0.146-0.109 0.146-0.016 0 0.169 0.168 0.229 0.28 0.099 0.125-0.146 0.157-0.070 0.096 0.232-0.004 0.020 0.050 0.063 0.121 0.096 0.215 0.102 0.569 0.316 0.708 0.429 0.147 0.12 0.18 0.128 0.237 0.059 0.084-0.101 0.151-0.057 0.173 0.112 0.019 0.146 0.032 0.166 0.149 0.225 0.143 0.073 0.139 0.107-0.018 0.173-0.094 0.039-0.111 0.066-0.144 0.221-0.084 0.406-0.612 0.822-1.043 0.822-0.149 0-0.21 0.061-0.16 0.158 0.112 0.217 0.055 0.275-0.127 0.13s-0.234-0.133-0.376 0.087c-0.105 0.162-0.162 0.154-0.222-0.034-0.031-0.098-0.059-0.134-0.106-0.134-0.063 0-0.064 0.021-0.064 1.104v1.104h0.080c0.061 0 0.093-0.028 0.136-0.12 0.070-0.149 0.096-0.15 0.181-0.006 0.082 0.14 0.144 0.134 0.633-0.055 0.39-0.151 0.418-0.176 0.368-0.344-0.066-0.219-0.003-0.267 0.154-0.118 0.121 0.115 0.165 0.113 0.209-0.014 0.050-0.144 0.115-0.155 0.188-0.033 0.048 0.081 0.077 0.097 0.181 0.097 0.257 0 0.295 0.080 0.099 0.21-0.116 0.077-0.124 0.092-0.107 0.197 0.020 0.122-0.010 0.129-0.235 0.057-0.054-0.017-0.081 0.002-0.139 0.1l-0.072 0.122-0.085-0.1-0.085-0.1-0.272 0.108c-0.15 0.059-0.291 0.109-0.314 0.109s-0.114 0.032-0.203 0.071l-0.161 0.069 0.020 0.136c0.024 0.163-0.010 0.194-0.14 0.127-0.138-0.071-0.153-0.065-0.223 0.095-0.083 0.188-0.131 0.183-0.131-0.013 0-0.087-0.009-0.18-0.019-0.208-0.059-0.154-0.077 0.028-0.077 0.791 0 1.076 0.005 1.067-0.576 0.933-0.114-0.026-0.475-0.098-0.8-0.159s-0.614-0.119-0.64-0.129-0.275-0.060-0.552-0.111c-0.277-0.051-0.533-0.108-0.568-0.127-0.071-0.038-0.073-0.054-0.065-0.451 0.011-0.528-0.068-0.662-0.329-0.562-0.188 0.072-0.214 0.067-0.214-0.042 0-0.091-0.070-0.194-0.131-0.194-0.030 0-0.4-0.168-0.788-0.359-0.194-0.095-0.227-0.097-0.335-0.019-0.071 0.051-0.14-0.005-0.166-0.134-0.016-0.080-0.041-0.1-0.164-0.131-0.162-0.041-0.18-0.087-0.080-0.213 0.057-0.073 0.062-0.111 0.044-0.317-0.040-0.442 0.134-0.679 0.717-0.976 0.371-0.189 0.338-0.154 0.294-0.316-0.053-0.196-0.003-0.223 0.153-0.082 0.151 0.136 0.199 0.142 0.3 0.036s0.136-0.101 0.173 0.023c0.018 0.062 0.050 0.102 0.079 0.099 0.484-0.054 0.448 0.027 0.448-1.013-0-1.016-0.011-1.123-0.102-1.068-0.062 0.037-0.156-0.032-0.193-0.142-0.008-0.023-0.054-0.017-0.139 0.020-0.070 0.030-0.206 0.082-0.303 0.116-0.512 0.179-0.638 0.254-0.631 0.378s0.013 0.121-0.208 0.077c-0.075-0.015-0.092-0.002-0.133 0.094-0.068 0.161-0.113 0.175-0.201 0.063-0.073-0.094-0.083-0.097-0.268-0.080-0.238 0.022-0.262-0.043-0.063-0.169 0.168-0.106 0.185-0.16 0.099-0.309-0.086-0.149-0.045-0.181 0.132-0.107 0.14 0.058 0.18 0.045 0.264-0.086 0.082-0.128 0.117-0.129 0.176-0.001s0.060 0.127 0.407 0.008c0.155-0.053 0.375-0.127 0.49-0.163 0.26-0.083 0.284-0.103 0.309-0.257 0.026-0.161 0.053-0.174 0.19-0.090 0.153 0.095 0.153 0.096 0.173-0.47 0.022-0.635-0.035-0.588 0.728-0.588 0.322 0 0.586-0.013 0.586-0.028s-0.165-0.109-0.367-0.208c-0.924-0.453-1.232-1.22-0.836-2.087 0.184-0.403 0.61-0.746 1.652-1.326 0.565-0.315 0.736-0.482 0.736-0.719 0-0.151 0.031-0.144 0.249 0.054zM36.973 10.333c-0.079 0.099-0.295 0.302-0.48 0.451-0.5 0.403-0.919 0.844-1.072 1.127l-0.128 0.237v0.368c0 0.442 0.053 0.58 0.337 0.872 0.252 0.259 0.307 0.251 0.327-0.048 0.028-0.412 0.172-0.729 0.803-1.763 0.343-0.562 0.453-0.85 0.43-1.13-0.025-0.313-0.049-0.325-0.216-0.116zM20.785 11.101c0.341 0.152 0.623 0.534 0.713 0.967 0.058 0.281 0.087 0.252-0.295 0.294-0.561 0.061-0.567 0.060-0.589-0.070-0.092-0.534-0.698-0.621-0.834-0.12-0.092 0.341 0.069 0.608 0.707 1.165 0.432 0.377 0.698 0.655 0.84 0.875 0.51 0.793 0.254 1.799-0.543 2.131-0.952 0.397-2.021-0.281-2.026-1.286l-0-0.099 0.296-0.052c0.568-0.099 0.6-0.101 0.6-0.038 0 0.283 0.217 0.663 0.412 0.722 0.372 0.112 0.673-0.195 0.583-0.594-0.070-0.312-0.206-0.472-0.912-1.076-0.844-0.722-1.105-1.466-0.774-2.212 0.258-0.583 1.184-0.892 1.821-0.608zM6.554 11.26c0.021 0.101 0.088 0.47 0.15 0.82s0.12 0.661 0.13 0.692c0.017 0.055 0.105 0.537 0.322 1.761 0.061 0.343 0.133 0.725 0.16 0.848 0.084 0.38 0.17 0.959 0.145 0.985-0.013 0.014-0.217 0.021-0.453 0.016l-0.43-0.009-0.036-0.224c-0.020-0.123-0.053-0.332-0.073-0.464s-0.044-0.287-0.053-0.344l-0.017-0.104h-0.459c-0.534 0-0.465-0.065-0.546 0.512-0.028 0.202-0.062 0.426-0.074 0.496l-0.023 0.128h-0.896l0.003-0.080c0.004-0.086 0.163-0.999 0.265-1.521 0.101-0.513 0.377-2.017 0.532-2.897 0.042-0.238 0.093-0.515 0.114-0.616l0.038-0.184h1.162l0.037 0.184zM9.133 11.148c0.020 0.088 0.246 1.162 0.392 1.865 0.141 0.68 0.209 0.989 0.22 1s0.078-0.288 0.196-0.872c0.249-1.233 0.303-1.492 0.349-1.697 0.028-0.123 0.058-0.257 0.067-0.297l0.016-0.073 1.231 0.017v5.282h-0.819l0.002-1.983c0.001-1.091-0.004-1.976-0.013-1.968s-0.045 0.194-0.082 0.414c-0.037 0.22-0.080 0.44-0.097 0.489s-0.074 0.337-0.129 0.64c-0.054 0.303-0.112 0.594-0.129 0.647s-0.074 0.334-0.127 0.624c-0.223 1.222-0.196 1.159-0.499 1.146l-0.221-0.010-0.069-0.368c-0.093-0.497-0.254-1.312-0.347-1.761-0.042-0.203-0.132-0.648-0.199-0.99l-0.122-0.622-0.032 3.74h-0.832l-0.008-2.609c-0.005-1.435-0.001-2.627 0.007-2.649 0.032-0.085 1.223-0.054 1.243 0.032zM13.325 11.228c0.061 0.177 0.217 0.606 0.408 1.128 0.189 0.515 0.339 0.932 0.446 1.238 0.050 0.144 0.107 0.288 0.125 0.32 0.024 0.041 0.034-0.36 0.035-1.391l0.001-1.449 0.848 0.018v5.282h-0.823l-0.095-0.256c-0.052-0.141-0.123-0.35-0.158-0.464s-0.077-0.237-0.094-0.272c-0.027-0.056-0.346-0.961-0.564-1.601-0.203-0.595-0.184-0.69-0.202 1.040l-0.016 1.553h-0.424c-0.233 0-0.424-0.011-0.424-0.024s0-1.205 0-2.649v-2.625h0.884l0.053 0.152zM18.439 11.492v0.416h-1.505v1.311l1.157 0.017v0.8l-1.157 0.017v1.471h0.78c0.933 0 0.857-0.042 0.845 0.469l-0.009 0.38-2.577 0.017v-5.315h2.465v0.416zM24.393 11.492v0.416h-0.864l-0.016 4.466h-0.928l-0.016-4.466h-0.864l-0.002-0.328c-0.001-0.181-0.008-0.356-0.014-0.39s-0.004-0.074 0.004-0.088c0.009-0.014 0.62-0.026 1.359-0.026h1.343v0.416zM25.583 11.252c0.030 0.088 0.129 0.398 0.22 0.688 0.38 1.211 0.346 1.16 0.462 0.697 0.028-0.111 0.092-0.331 0.143-0.489s0.146-0.465 0.212-0.68l0.119-0.392h0.475c0.299 0 0.475 0.012 0.475 0.032 0 0.018-0.060 0.201-0.133 0.408s-0.18 0.513-0.238 0.68c-0.058 0.167-0.165 0.47-0.238 0.672s-0.181 0.505-0.241 0.672c-0.059 0.167-0.137 0.383-0.173 0.48-0.060 0.164-0.065 0.25-0.064 1.264l0.001 1.088h-0.948l-0.016-1.152c-0.015-1.074-0.021-1.164-0.084-1.329-0.037-0.097-0.119-0.32-0.182-0.496-0.117-0.329-0.289-0.812-0.49-1.376-0.211-0.591-0.3-0.858-0.3-0.902 0-0.035 0.090-0.042 0.472-0.035l0.472 0.009 0.055 0.16zM5.881 12.639c-0.030 0.17-0.092 0.562-0.136 0.87s-0.095 0.611-0.112 0.672c-0.054 0.195-0.059 0.192 0.289 0.192 0.284 0 0.32-0.006 0.32-0.056-0-0.069-0.173-1.221-0.249-1.662l-0.056-0.326-0.055 0.31zM35.070 14.572c-0.043 0.062-0.050 0.261-0.050 1.525v1.453l0.181-0.015c0.209-0.017 0.281-0.082 0.25-0.224-0.026-0.119 0.053-0.148 0.165-0.060 0.114 0.090 0.152 0.085 0.251-0.032 0.094-0.112 0.178-0.105 0.178 0.014 0 0.14 0.066 0.16 0.444 0.139 0.19-0.011 0.37-0.029 0.399-0.040 0.079-0.030 0.082-2.701 0.003-2.78-0.093-0.093-1.754-0.074-1.821 0.021zM37.621 16.255c0.008 0.927 0.010 0.951 0.073 0.951 0.051 0 0.067-0.027 0.080-0.128 0.018-0.14 0.038-0.147 0.218-0.075 0.103 0.041 0.109 0.039 0.195-0.066 0.090-0.11 0.163-0.114 0.163-0.007 0 0.316 1.031-0.052 1.064-0.38 0.008-0.077 0.002-0.080-0.144-0.069-0.161 0.012-0.205-0.040-0.104-0.123 0.026-0.022 0.048-0.065 0.048-0.096s-0.022-0.074-0.048-0.096c-0.056-0.047-0.064-0.149-0.012-0.167 0.121-0.040-0.162-0.307-0.445-0.419-0.193-0.077-0.217-0.070-0.26 0.074-0.047 0.158-0.105 0.163-0.192 0.016-0.069-0.118-0.234-0.158-0.315-0.077-0.071 0.072-0.153 0.018-0.17-0.112-0.012-0.092-0.035-0.131-0.088-0.151l-0.073-0.027 0.008 0.952zM36.318 17.635c-0.136 0.016-0.166 0.033-0.208 0.115-0.027 0.053-0.052 0.102-0.056 0.109s-0.075-0.013-0.157-0.044l-0.149-0.057-0.159 0.164c-0.189 0.196-0.203 0.199-0.232 0.045-0.041-0.221-0.181-0.312-0.298-0.194-0.057 0.057-0.055 2.969 0.002 3.041 0.024 0.030 0.171 0.078 0.36 0.116 0.841 0.172 1.418 0.271 1.467 0.252s0.054-0.161 0.054-1.798v-1.778l-0.232 0.005c-0.128 0.003-0.304 0.014-0.391 0.024zM21.257 17.755c0.205 0.090 0.34 0.241 0.403 0.452 0.055 0.183 0.062 1.934 0.009 2.182-0.152 0.708-1.264 0.798-1.619 0.13-0.074-0.138-0.11-1.966-0.045-2.261 0.11-0.5 0.708-0.741 1.251-0.503zM5.090 19.319v1.617h-0.288c-0.17 0-0.288-0.013-0.288-0.032-0-0.018-0-0.738-0-1.601s0-1.576 0-1.584c0-0.009 0.13-0.016 0.288-0.016h0.288v1.617zM6.075 17.742c0.018 0.022 0.084 0.184 0.147 0.36s0.18 0.5 0.261 0.72c0.081 0.22 0.157 0.429 0.169 0.464s0.030-0.303 0.038-0.752l0.016-0.816 0.528-0.019v3.238l-0.52-0.019-0.661-1.889-0.002 0.954-0.002 0.954-0.528-0.019-0.008-1.569c-0.005-0.863-0.001-1.587 0.007-1.609 0.010-0.027 0.096-0.040 0.269-0.040 0.164 0 0.265 0.014 0.286 0.040zM9.091 17.958v0.256h-0.511l-0.008 1.352-0.008 1.353h-0.576l-0.008-1.355-0.008-1.355-0.495 0.015-0.010-0.218c-0.014-0.331-0.086-0.304 0.825-0.304h0.801v0.256zM10.804 17.97v0.252l-0.88-0.010v0.769l0.688 0.018v0.512l-0.688 0.018v0.86l0.944 0.018 0.009 0.264 0.009 0.264h-1.571v-1.595c0-0.877 0.010-1.605 0.022-1.617s0.347-0.018 0.744-0.013l0.722 0.009v0.252zM12.425 17.78c0.548 0.2 0.689 1.236 0.221 1.629-0.053 0.045-0.091 0.101-0.084 0.124s0.081 0.258 0.163 0.522 0.177 0.548 0.21 0.63c0.102 0.25 0.102 0.25-0.238 0.25h-0.299l-0.088-0.296c-0.049-0.163-0.131-0.44-0.184-0.616s-0.101-0.338-0.108-0.36c-0.007-0.022-0.062-0.040-0.124-0.040h-0.112l-0.009 0.648-0.009 0.648h-0.576l-0.008-1.569c-0.005-0.863-0.001-1.588 0.008-1.612 0.025-0.066 1.034-0.033 1.237 0.041zM13.853 17.742c0.017 0.022 0.068 0.148 0.113 0.28 0.095 0.277 0.262 0.736 0.402 1.104l0.097 0.256 0.020-1.665h0.512v3.201h-0.512l-0.219-0.64c-0.12-0.352-0.232-0.669-0.248-0.704s-0.064-0.165-0.107-0.288l-0.078-0.224-0.005 1.875-0.528-0.019-0.008-1.569c-0.005-0.863-0.001-1.587 0.007-1.609 0.011-0.027 0.096-0.040 0.269-0.040 0.164 0 0.264 0.014 0.285 0.040zM16.586 17.83c0.012 0.062 0.046 0.22 0.074 0.352s0.094 0.478 0.145 0.768c0.051 0.29 0.146 0.816 0.211 1.168 0.164 0.888 0.181 0.798-0.154 0.81-0.268 0.009-0.28 0.006-0.295-0.064-0.018-0.079-0.082-0.554-0.082-0.605 0-0.018-0.115-0.027-0.28-0.022l-0.28 0.009-0.021 0.16c-0.012 0.088-0.031 0.243-0.043 0.344l-0.021 0.184h-0.286c-0.333 0-0.312 0.040-0.223-0.432 0.098-0.519 0.319-1.723 0.412-2.241 0.109-0.61 0.069-0.564 0.479-0.553l0.34 0.009 0.022 0.112zM18.707 17.753c0.027 0.072 0.023 0.374-0.006 0.42-0.014 0.023-0.122 0.042-0.264 0.048l-0.239 0.010-0.017 2.705h-0.288c-0.209 0-0.288-0.011-0.288-0.040-0-0.022-0.004-0.631-0.008-1.353l-0.008-1.312-0.528-0.019v-0.233c0-0.128 0.010-0.243 0.021-0.255 0.052-0.052 1.604-0.023 1.624 0.029zM19.583 19.327l0.008 1.609h-0.577v-3.236l0.56 0.019 0.008 1.609zM22.653 17.942c0.041 0.123 0.089 0.253 0.106 0.288 0.035 0.071 0.26 0.696 0.357 0.991 0.034 0.105 0.070 0.198 0.079 0.207s0.014-0.372 0.012-0.847l-0.005-0.863 0.202-0.010c0.111-0.005 0.235-0.001 0.276 0.009l0.073 0.018-0.008 1.592-0.008 1.592-0.517 0.018-0.037-0.105c-0.020-0.058-0.096-0.271-0.169-0.473s-0.173-0.491-0.224-0.64c-0.051-0.15-0.121-0.344-0.155-0.432l-0.064-0.16-0.020 1.793-0.528 0.019v-3.238l0.554 0.019 0.075 0.224zM25.305 17.758c0.012 0.031 0.071 0.33 0.131 0.664 0.2 1.121 0.329 1.822 0.394 2.142 0.036 0.175 0.058 0.329 0.049 0.344-0.014 0.023-0.554 0.041-0.559 0.019-0.001-0.004-0.026-0.159-0.056-0.344l-0.054-0.336h-0.542l-0.026 0.144c-0.014 0.079-0.036 0.23-0.049 0.336l-0.023 0.192-0.269 0.009c-0.338 0.012-0.331 0.021-0.254-0.362 0.075-0.367 0.209-1.1 0.347-1.889 0.088-0.504 0.142-0.782 0.181-0.92 0.013-0.049 0.059-0.056 0.362-0.056 0.3 0 0.35 0.007 0.369 0.056zM26.69 19.054l0.008 1.336 0.848 0.018v0.512h-1.441l-0.008-1.569c-0.005-0.863-0.001-1.587 0.008-1.61 0.012-0.030 0.090-0.039 0.296-0.032l0.281 0.009 0.008 1.336zM34.14 17.852c-0.142 0.031-0.146 0.036-0.106 0.122 0.056 0.122 0.002 0.159-0.163 0.109-0.101-0.030-0.142-0.031-0.17-0.002-0.060 0.060-0.153 0.045-0.153-0.025 0-0.229-0.756 0.169-0.914 0.481-0.127 0.251-0.104 0.484 0.039 0.391 0.094-0.062 0.148-0.012 0.118 0.109-0.015 0.059 0 0.075 0.089 0.099 0.098 0.026 0.106 0.038 0.098 0.14l-0.009 0.111 0.313 0.149c0.277 0.132 0.628 0.279 0.664 0.279 0.007 0 0.017-0.053 0.023-0.117 0.013-0.15 0.072-0.17 0.136-0.046 0.070 0.136 0.169 0.185 0.237 0.117 0.063-0.063 0.090-1.825 0.029-1.899-0.033-0.040-0.11-0.046-0.233-0.018zM20.662 18.261l-0.079 0.079v0.989c0 1.127-0.008 1.095 0.262 1.095 0.256 0 0.25 0.023 0.25-1.1v-0.983l-0.079-0.079c-0.049-0.050-0.115-0.079-0.178-0.079s-0.128 0.029-0.178 0.079zM11.755 18.671l0.009 0.456 0.101 0.010c0.276 0.027 0.395-0.116 0.395-0.474 0-0.353-0.079-0.448-0.371-0.448h-0.143l0.009 0.456zM16.203 18.535c-0.010 0.034-0.164 1.074-0.164 1.112-0 0.027 0.056 0.040 0.176 0.040 0.097 0 0.176-0.014 0.176-0.031s-0.035-0.237-0.079-0.488-0.084-0.501-0.091-0.554c-0.007-0.053-0.015-0.089-0.017-0.080zM24.845 19.119c-0.041 0.251-0.081 0.481-0.089 0.512-0.013 0.049 0.010 0.056 0.179 0.056 0.193 0 0.193 0 0.178-0.088-0.055-0.318-0.12-0.714-0.134-0.816-0.028-0.208-0.057-0.134-0.134 0.336z"></path>
<path fill="#919308" d="M37.293 9.715c0.060 0.062 0.116 0.112 0.125 0.112s-0.033-0.050-0.093-0.112c-0.060-0.062-0.116-0.112-0.125-0.112s0.033 0.050 0.093 0.112zM34.874 11.084l-0.094 0.104 0.104-0.094c0.097-0.088 0.119-0.114 0.094-0.114-0.005 0-0.052 0.047-0.104 0.104zM5.554 11.098c0.466 0.023 0.969 0.024 0.955 0.002-0.008-0.013-0.27-0.021-0.581-0.018s-0.48 0.010-0.374 0.016zM8.099 11.098c0.509 0.023 1.017 0.024 1.004 0.002-0.008-0.013-0.284-0.021-0.613-0.018s-0.505 0.010-0.39 0.016zM10.684 11.1c0.163 0.006 0.429 0.006 0.592 0s0.030-0.011-0.296-0.011c-0.326 0-0.459 0.005-0.296 0.011zM12.409 11.1c-0.008 0.013 0.11 0.020 0.262 0.015 0.512-0.016 0.568-0.028 0.159-0.034-0.223-0.003-0.413 0.005-0.421 0.018zM14.575 11.1c0.12 0.006 0.307 0.006 0.416-0s0.011-0.011-0.217-0.011c-0.229 0-0.318 0.005-0.199 0.011zM15.989 11.116c-0.008 0.022-0.011 1.214-0.007 2.649l0.008 2.609 0.008-2.634 0.008-2.634 1.213 0.009c0.667 0.005 1.207-0.002 1.198-0.015-0.028-0.045-2.412-0.029-2.429 0.016zM21.725 11.097c-0.030 0.030-0.028 0.772 0.002 0.79 0.013 0.008 0.020-0.164 0.014-0.382l-0.010-0.397h2.629v0.766l-0.768 0.021 0.784-0.003v-0.8l-1.315-0.008c-0.723-0.005-1.325 0.001-1.336 0.013zM24.833 11.1c0.128 0.006 0.337 0.006 0.464 0s0.023-0.011-0.232-0.011-0.36 0.005-0.232 0.011zM26.751 11.1c-0.008 0.013 0.198 0.024 0.459 0.024s0.467-0.011 0.459-0.024c-0.008-0.013-0.215-0.024-0.459-0.024s-0.451 0.011-0.459 0.024zM20.111 11.834c0.031 0.008 0.081 0.008 0.112 0s0.006-0.015-0.056-0.015-0.087 0.007-0.056 0.015zM17.232 11.9c0.173 0.006 0.446 0.006 0.608 0s0.021-0.011-0.314-0.010c-0.334 0-0.467 0.005-0.294 0.010zM22.264 11.9l0.304 0.011 0.009 2.224 0.008 2.224-0-2.233-0-2.233-0.624-0.004 0.304 0.011zM23.511 11.916c-0.008 0.022-0.012 1.034-0.007 2.249l0.008 2.209 0.016-2.249c0.009-1.237 0.012-2.249 0.007-2.249s-0.016 0.018-0.024 0.040zM19.727 12.324c0 0.062 0.007 0.087 0.015 0.056s0.008-0.081 0-0.112c-0.008-0.031-0.015-0.006-0.015 0.056zM13.228 14.743l0.007 1.631 0.017-1.601c0.009-0.88 0.006-1.614-0.007-1.631s-0.021 0.703-0.017 1.601zM17.197 13.245c0.153 0.006 0.412 0.006 0.576 0s0.038-0.011-0.279-0.011-0.451 0.005-0.298 0.011zM18.067 13.637c0 0.202 0.005 0.285 0.012 0.184s0.006-0.267 0-0.368c-0.006-0.101-0.012-0.018-0.012 0.184zM20.872 13.711c0 0.005 0.047 0.052 0.104 0.104l0.104 0.094-0.094-0.104c-0.088-0.097-0.114-0.119-0.114-0.094zM17.182 14.045c0.163 0.006 0.429 0.006 0.592 0s0.030-0.011-0.296-0.011-0.459 0.005-0.296 0.011zM20.063 16.444c0.040 0.008 0.104 0.008 0.144 0s0.007-0.014-0.072-0.014c-0.079 0-0.112 0.006-0.072 0.014zM36.245 17.405c0.048 0.007 0.128 0.007 0.176 0s0.009-0.013-0.088-0.013c-0.097 0-0.136 0.006-0.088 0.013zM20.767 17.693c0.040 0.008 0.104 0.008 0.144 0s0.007-0.014-0.072-0.014-0.112 0.006-0.072 0.014zM7.47 17.974c0 0.141 0.006 0.194 0.012 0.119s0.007-0.191-0-0.256c-0.007-0.066-0.012-0.004-0.012 0.137zM9.33 19.303c0 0.872 0.004 1.228 0.009 0.792s0.005-1.149 0-1.584c-0.005-0.436-0.009-0.079-0.009 0.792zM10.799 17.958c0 0.132 0.006 0.186 0.013 0.12s0.007-0.174 0-0.24c-0.007-0.066-0.013-0.012-0.013 0.12zM14.482 18.215c0 0.273 0.005 0.385 0.011 0.248s0.006-0.36 0-0.496c-0.006-0.137-0.011-0.025-0.011 0.248zM26.68 19.031c0 0.722 0.004 1.022 0.009 0.666s0.005-0.946 0-1.313-0.009-0.076-0.009 0.646zM18.165 19.575c0 0.74 0.004 1.037 0.009 0.662s0.005-0.98 0-1.344c-0.005-0.364-0.009-0.057-0.009 0.682zM32.73 18.351l-0.094 0.104 0.104-0.094c0.097-0.088 0.119-0.114 0.094-0.114-0.006 0-0.052 0.047-0.104 0.104zM8.562 19.639c0 0.687 0.004 0.963 0.009 0.614s0.005-0.911 0-1.248c-0.005-0.338-0.009-0.052-0.009 0.634zM10.228 19.495l-0.352 0.019 0.342 0.006c0.201 0.004 0.35-0.007 0.362-0.026 0.011-0.018 0.015-0.029 0.010-0.026s-0.168 0.015-0.362 0.026zM16.094 20.222c0.058 0.007 0.144 0.007 0.192-0s0.001-0.013-0.105-0.013c-0.106 0-0.145 0.006-0.088 0.013zM24.913 20.222c0.049 0.007 0.121 0.007 0.16-0s-0-0.014-0.089-0.013c-0.088 0-0.12 0.006-0.072 0.014zM10.862 20.663c0 0.123 0.006 0.17 0.013 0.103s0.007-0.167-0-0.224c-0.007-0.057-0.013-0.003-0.013 0.121zM20.751 20.958c0.048 0.007 0.128 0.007 0.176 0s0.009-0.013-0.088-0.013c-0.097 0-0.136 0.006-0.088 0.013zM37.333 21.854c0.031 0.008 0.081 0.008 0.112 0s0.006-0.015-0.056-0.015-0.087 0.007-0.056 0.015z"></path>
<path fill="#c7ce0d" d="M36.909 9.494c0 0.063-0.016 0.146-0.036 0.184-0.029 0.056-0.028 0.063 0.005 0.031 0.048-0.045 0.098-0.33 0.058-0.33-0.015 0-0.027 0.051-0.027 0.114zM37.005 9.421c0 0.006 0.047 0.052 0.104 0.104l0.104 0.094-0.094-0.104c-0.088-0.097-0.114-0.119-0.114-0.094zM37.031 10.212c-0.070 0.123-0.049 0.123 0.038-0 0.038-0.053 0.057-0.096 0.042-0.096s-0.051 0.043-0.081 0.096zM36.796 10.508l-0.159 0.168 0.168-0.159c0.092-0.087 0.168-0.163 0.168-0.168 0-0.024-0.030 0.003-0.177 0.159zM37.206 10.532c0 0.079 0.006 0.112 0.014 0.072s0.008-0.104 0-0.144c-0.008-0.040-0.014-0.007-0.014 0.072zM37.848 10.884c0 0.114 0.006 0.161 0.013 0.104s0.007-0.151 0-0.208c-0.007-0.057-0.013-0.010-0.013 0.104zM11.581 13.719l0.008 2.639h-0.398c-0.24 0-0.404-0.013-0.414-0.033-0.009-0.018-0.013-0.014-0.008 0.008 0.006 0.031 0.112 0.041 0.422 0.041h0.413l0.008-2.623c0.005-1.443-0.003-2.634-0.016-2.647s-0.020 1.163-0.016 2.615zM7.891 13.741l0 2.633h0.832l0.016-1.905c0.009-1.048 0.006-1.941-0.005-1.985s-0.022 0.809-0.024 1.897l-0.003 1.977h-0.8l-0.017-5.25 0 2.633zM15.181 13.727l-0.008 2.635-0.413-0.010c-0.227-0.005-0.406 0.001-0.398 0.014 0.027 0.044 0.812 0.029 0.829-0.016 0.008-0.022 0.011-1.214 0.007-2.649l-0.008-2.609-0.008 2.635zM19.173 11.388l-0.11 0.12 0.12-0.11c0.112-0.103 0.135-0.13 0.11-0.13-0.005 0-0.059 0.054-0.12 0.12zM16.916 12.565c0 0.37 0.005 0.517 0.010 0.326s0.006-0.493 0-0.672c-0.006-0.179-0.010-0.024-0.010 0.346zM34.358 12.212c0 0.106 0.006 0.145 0.013 0.087s0.007-0.144-0-0.192c-0.007-0.048-0.013-0.001-0.013 0.105zM37.212 12.236l-0.191 0.2 0.2-0.191c0.11-0.105 0.2-0.195 0.2-0.2 0-0.024-0.032 0.005-0.209 0.191zM18.831 12.34c0 0.070 0.007 0.095 0.015 0.056s0.007-0.097-0.001-0.128c-0.008-0.031-0.014 0.002-0.014 0.072zM35.254 12.517c0 0.097 0.006 0.136 0.013 0.088s0.007-0.128 0-0.176c-0.007-0.049-0.013-0.009-0.013 0.088zM36.7 12.717l-0.223 0.232 0.232-0.223c0.216-0.207 0.247-0.241 0.223-0.241-0.005 0-0.109 0.104-0.232 0.232zM19.943 12.847c0 0.005 0.047 0.052 0.104 0.104l0.104 0.094-0.094-0.104c-0.088-0.097-0.114-0.119-0.114-0.094zM20.167 13.071c0 0.006 0.047 0.052 0.104 0.104l0.104 0.094-0.094-0.104c-0.088-0.097-0.114-0.119-0.114-0.094zM34.732 13.205c0.060 0.062 0.116 0.112 0.125 0.112s-0.033-0.050-0.093-0.112c-0.060-0.062-0.116-0.112-0.125-0.112s0.033 0.050 0.093 0.112zM35.955 13.37c-0.004 0.123-0.021 0.203-0.046 0.214-0.031 0.013-0.031 0.017 0.001 0.019 0.060 0.004 0.076-0.063 0.063-0.257l-0.012-0.172-0.006 0.197zM35.501 13.295c0 0.005 0.047 0.052 0.104 0.104l0.104 0.094-0.094-0.104c-0.088-0.097-0.114-0.119-0.114-0.094zM19.415 13.637c0.087 0.088 0.165 0.16 0.174 0.16s-0.055-0.072-0.142-0.16c-0.087-0.088-0.165-0.16-0.174-0.16s0.055 0.072 0.142 0.16zM36.214 13.637c0 0.079 0.006 0.112 0.014 0.072s0.008-0.104 0-0.144c-0.008-0.040-0.014-0.007-0.014 0.072zM19.687 13.87c0 0.008 0.082 0.085 0.183 0.171s0.173 0.139 0.16 0.119c-0.027-0.045-0.343-0.311-0.343-0.29zM34.821 13.885c0.163 0.006 0.429 0.006 0.592 0s0.030-0.011-0.296-0.011c-0.326 0-0.459 0.005-0.296 0.011zM36.631 13.885c0.155 0.006 0.4 0.006 0.544-0s0.018-0.011-0.282-0.011c-0.299 0-0.417 0.005-0.263 0.011zM16.917 14.805l0.001 0.736 1.601 0.032 0.009 0.392 0.009 0.392-2.547 0.018 2.561-0.001 0.009-0.38c0.012-0.511 0.088-0.469-0.845-0.469h-0.78l-0.009-0.728-0.010-0.728 0.001 0.736zM37.596 14.531c0.001 0.382 0.010 0.464 0.049 0.475 0.035 0.009 0.037 0.005 0.009-0.015-0.027-0.019-0.042-0.17-0.050-0.475l-0.010-0.447 0.001 0.462zM25.657 15.253l0.001 1.12 0.462 0.009c0.254 0.005 0.473-0.002 0.487-0.016s-0.19-0.021-0.453-0.015l-0.478 0.010-0.009-1.114-0.009-1.114 0.001 1.12zM6.242 14.292c0 0.078-0.003 0.079-0.328 0.089l-0.328 0.010 0.688 0.013v-0.096c0-0.053-0.007-0.096-0.016-0.096s-0.016 0.036-0.016 0.079zM35.557 14.493c0.233 0.005 0.615 0.005 0.848 0s0.042-0.010-0.424-0.010c-0.467 0-0.657 0.004-0.424 0.010zM36.934 15.933c0.007 1.075 0 1.371-0.032 1.393-0.031 0.022-0.029 0.025 0.007 0.016 0.053-0.014 0.092-2.698 0.040-2.749-0.013-0.013-0.020 0.59-0.016 1.34zM21.584 15.077c0 0.079 0.006 0.112 0.014 0.072s0.008-0.104 0-0.144c-0.008-0.040-0.014-0.007-0.014 0.072zM4.595 15.127c-0.012 0.064-0.015 0.123-0.008 0.131s0.024-0.038 0.036-0.103c0.012-0.064 0.015-0.123 0.008-0.131s-0.024 0.038-0.036 0.103zM5.453 15.254c-0.011 0.028-0.010 0.059 0.001 0.070s0.020-0.004 0.020-0.033c0-0.069 0.914-0.082 0.937-0.013 0.008 0.023 0.012 0.020 0.010-0.008-0.005-0.074-0.94-0.089-0.968-0.015zM32.8 15.381c0.074 0.126 0.076 0.128 0.076 0.089 0-0.019-0.030-0.068-0.066-0.109l-0.066-0.076 0.056 0.096zM37.596 16.23c0 0.519 0.004 0.732 0.010 0.472s0.005-0.685 0-0.944c-0.005-0.26-0.010-0.047-0.010 0.472zM37.781 15.494c0 0.062 0.007 0.087 0.015 0.056s0.008-0.081 0-0.112c-0.008-0.031-0.015-0.006-0.015 0.056zM34.157 15.487c0.044 0.092 0.114 0.121 0.173 0.072 0.037-0.031 0.048-0.021 0.059 0.053 0.011 0.072 0.014 0.065 0.018-0.035 0.005-0.119 0.002-0.122-0.054-0.072-0.078 0.071-0.116 0.067-0.179-0.019l-0.053-0.072 0.035 0.074zM20.359 15.576c-0.077 0.029-0.092 0.043-0.046 0.044 0.036 0.001 0.094-0.019 0.128-0.045 0.073-0.055 0.066-0.055-0.082 0.001zM10.104 15.69c-0.027 0.133-0.001 0.159 0.028 0.028 0.012-0.055 0.015-0.107 0.007-0.115s-0.024 0.031-0.035 0.087zM39.387 15.742c0.034 0.040 0.078 0.072 0.099 0.072s0.066-0.032 0.099-0.072c0.061-0.072 0.061-0.072-0.006-0.016-0.037 0.031-0.079 0.056-0.094 0.056s-0.057-0.025-0.094-0.056c-0.066-0.056-0.066-0.056-0.006 0.016zM33.038 15.963c-0.001 0.038-0.020 0.077-0.042 0.086-0.031 0.013-0.031 0.017 0.001 0.019 0.049 0.003 0.084-0.074 0.060-0.133-0.009-0.023-0.018-0.010-0.019 0.028zM39.154 16.15c0.028 0.035 0.060 0.086 0.070 0.112 0.015 0.041 0.018 0.040 0.020-0.003 0.001-0.028-0.030-0.079-0.070-0.112-0.071-0.061-0.072-0.061-0.020 0.003zM9.486 16.31c0.006 0.057 0.031 0.064 0.23 0.066l0.224 0.002-0.214-0.011c-0.168-0.009-0.217-0.023-0.23-0.066-0.012-0.040-0.015-0.038-0.010 0.009zM12.385 16.367c0.014 0.014 0.211 0.021 0.439 0.016l0.414-0.009-0.439-0.016c-0.241-0.009-0.427-0.005-0.413 0.009zM4.616 16.382c0.118 0.006 0.32 0.006 0.448 0s0.032-0.011-0.215-0.011c-0.247-0-0.352 0.005-0.234 0.011zM6.793 16.382c0.118 0.006 0.32 0.006 0.448 0s0.032-0.011-0.215-0.011c-0.246-0-0.352 0.005-0.233 0.011zM22.816 16.382c0.128 0.006 0.337 0.006 0.464 0s0.023-0.011-0.232-0.011-0.36 0.005-0.232 0.011zM20.303 16.444c0.031 0.008 0.081 0.008 0.112 0s0.006-0.015-0.056-0.015-0.087 0.007-0.056 0.015zM39.292 16.75l-0.094 0.104 0.104-0.094c0.097-0.088 0.119-0.114 0.094-0.114-0.006 0-0.052 0.047-0.104 0.104zM38.468 17.338c-0.020 0.020 0.062 0.204 0.091 0.204 0.009 0-0.005-0.041-0.031-0.092s-0.039-0.101-0.027-0.112c0.011-0.011 0.013-0.020 0.004-0.020s-0.025 0.009-0.036 0.020zM37.596 18.599c0 0.59 0.004 0.831 0.010 0.536s0.005-0.777 0-1.072c-0.005-0.295-0.010-0.054-0.010 0.536zM36.765 17.597l0.176 0.012-0.008 1.783-0.008 1.783-0.224 0.040 0.1 0.004c0.178 0.008 0.173 0.057 0.164-1.856l-0.008-1.773-0.368-0.005 0.177 0.012zM36.293 17.629c0.040 0.008 0.097 0.007 0.128-0.001s-0.002-0.014-0.072-0.014c-0.071 0-0.096 0.007-0.056 0.015zM4.502 17.726c-0.008 0.013 0.081 0.020 0.198 0.015 0.371-0.015 0.415-0.029 0.111-0.034-0.162-0.003-0.301 0.006-0.309 0.019zM5.527 17.724c-0.030 0.030-0.027 3.172 0.003 3.191 0.013 0.008 0.020-0.703 0.015-1.581l-0.009-1.596 0.529-0.022-0.259-0.007c-0.142-0.004-0.268 0.003-0.28 0.015zM6.71 17.729c-0.023 0.038-0.029 1.671-0.006 1.694 0.011 0.010 0.019-0.365 0.019-0.833v-0.852l0.528-0.022-0.262-0.007c-0.144-0.004-0.27 0.005-0.279 0.020zM7.883 17.726c0.224 0.005 0.592 0.005 0.816 0s0.041-0.010-0.408-0.010-0.633 0.004-0.408 0.010zM9.709 17.726c0.208 0.006 0.539 0.006 0.736-0s0.027-0.010-0.378-0.010c-0.405 0-0.566 0.005-0.358 0.010zM11.187 17.742c-0.008 0.022-0.012 0.746-0.007 1.609l0.008 1.569h0.576l0.001-0.648 0.001-0.648-0.019 1.281h-0.543v-3.167l0.944-0.020-0.473-0.007c-0.354-0.005-0.477 0.003-0.488 0.033zM13.299 17.742c-0.008 0.022-0.012 0.746-0.007 1.609l0.008 1.569 0.512 0.004-0.496-0.022v-3.167h0.255c0.209 0 0.26 0.010 0.287 0.056 0.018 0.031 0.033 0.041 0.034 0.022 0.003-0.107-0.553-0.173-0.593-0.070zM14.741 17.726l0.24 0.012 0.018 3.022-0.001-1.521-0-1.521-0.496-0.004 0.24 0.011zM15.974 17.723c0.265 0.023 0.601 0.025 0.587 0.003-0.008-0.013-0.169-0.022-0.357-0.019s-0.292 0.010-0.23 0.015zM17.076 17.746c-0.009 0.024-0.011 0.143-0.005 0.264l0.011 0.221 0.006-0.247 0.006-0.248 1.617-0.018-0.809-0.007c-0.655-0.006-0.812 0.001-0.826 0.036zM19.152 17.726c0.084 0.007 0.214 0.006 0.288-0s0.005-0.012-0.153-0.012c-0.158 0-0.219 0.006-0.135 0.012zM22.279 17.726c0.163 0.007 0.282 0.027 0.298 0.050 0.020 0.027 0.024 0.025 0.014-0.009-0.010-0.038-0.073-0.049-0.299-0.050l-0.285-0.002 0.271 0.012zM23.198 17.724c-0.012 0.012-0.021 0.037-0.021 0.056 0 0.022 0.010 0.020 0.025-0.004 0.014-0.022 0.124-0.043 0.264-0.050l0.239-0.011-0.243-0.006c-0.134-0.004-0.252 0.003-0.264 0.015zM24.753 17.726c0.101 0.006 0.267 0.006 0.368 0s0.018-0.011-0.184-0.011c-0.202 0-0.285 0.005-0.184 0.011zM26.111 17.724c-0.030 0.030-0.027 3.172 0.003 3.191 0.013 0.008 0.020-0.703 0.015-1.581l-0.009-1.596 0.561-0.021-0.275-0.007c-0.151-0.004-0.284 0.003-0.296 0.015zM23.72 19.325c-0.009 0.884-0.005 1.596 0.008 1.583s0.021-0.737 0.016-1.607l-0.008-1.583-0.016 1.607zM18.705 17.958c0 0.114 0.006 0.161 0.013 0.104s0.007-0.151 0-0.208c-0.007-0.057-0.013-0.010-0.013 0.104zM25.294 17.798c0.002 0.083 0.052 0.22 0.053 0.144 0-0.035-0.011-0.093-0.027-0.128-0.017-0.039-0.027-0.045-0.027-0.016zM21.564 18.038c0.074 0.126 0.076 0.128 0.076 0.089 0-0.019-0.030-0.068-0.066-0.109l-0.066-0.076 0.056 0.096zM11.738 18.204c-0.030 0.030-0.027 0.939 0.003 0.939 0.013 0 0.020-0.208 0.014-0.462l-0.010-0.462 0.275-0.025-0.131-0.006c-0.072-0.003-0.14 0.004-0.152 0.016zM7.986 19.567l0.001 1.353 0.48 0.004-0.463-0.023-0.009-1.343-0.009-1.343 0.001 1.352zM9.906 18.607l0.002 0.392 0.693 0.018-0.010 0.254c-0.006 0.14 0.001 0.242 0.015 0.228s0.021-0.132 0.016-0.263l-0.009-0.237-0.686-0.018-0.010-0.383-0.011-0.383 0.002 0.392zM19.989 19.303c0 0.555 0.004 0.781 0.010 0.504s0.005-0.731 0-1.008-0.010-0.050-0.010 0.504zM21.686 19.303c0 0.555 0.004 0.781 0.010 0.504s0.005-0.731 0-1.008c-0.005-0.277-0.010-0.050-0.010 0.504zM21.11 19.319c0 0.511 0.004 0.715 0.010 0.454s0.005-0.678-0-0.928c-0.005-0.25-0.010-0.037-0.010 0.474zM32.602 18.538c-0.028 0.055-0.045 0.105-0.039 0.112s0.037-0.038 0.066-0.099c0.066-0.138 0.043-0.149-0.027-0.013zM12.271 18.663c0 0.114 0.006 0.161 0.013 0.104s0.007-0.151 0-0.208c-0.007-0.057-0.013-0.010-0.013 0.104zM20.565 19.335c0 0.484 0.004 0.682 0.010 0.44s0.005-0.638 0-0.88c-0.005-0.242-0.010-0.044-0.010 0.44zM12.909 18.663c0 0.079 0.006 0.112 0.014 0.072s0.008-0.104 0-0.144c-0.008-0.040-0.014-0.007-0.014 0.072zM24.905 18.599c0 0.035 0.014 0.064 0.032 0.064s0.032-0.029 0.032-0.064c0-0.035-0.014-0.064-0.032-0.064s-0.032 0.029-0.032 0.064zM32.245 18.759c0 0.097 0.006 0.137 0.013 0.088s0.007-0.128 0-0.176c-0.007-0.049-0.013-0.009-0.013 0.088zM14.477 18.791c0 0.062 0.007 0.087 0.015 0.056s0.008-0.081 0-0.112c-0.008-0.031-0.015-0.006-0.015 0.056zM32.264 19.040c-0.011 0.064-0.006 0.093 0.012 0.076 0.016-0.016 0.024-0.063 0.017-0.105-0.010-0.064-0.015-0.059-0.029 0.029zM38.995 19.031c-0.001 0.035 0.011 0.093 0.026 0.128 0.035 0.082 0.035-0.003 0-0.112-0.021-0.064-0.026-0.068-0.026-0.016zM22.536 19.967v0.933l-0.496 0.022 0.512-0.004 0.016-0.912c0.009-0.502 0.005-0.926-0.008-0.943s-0.024 0.39-0.024 0.903zM39.766 19.133c0.031 0.008 0.081 0.008 0.112 0s0.006-0.015-0.056-0.015c-0.062 0-0.087 0.007-0.056 0.015zM14.46 19.311c-0.009 0.057-0.003 0.118 0.012 0.134 0.017 0.018 0.029-0.024 0.029-0.104 0-0.161-0.019-0.174-0.041-0.030zM37.868 19.53c-0.020 0.037-0.027 0.075-0.017 0.085s0.019 0.005 0.019-0.011c0.002-0.092 0.062-0.124 0.112-0.061s0.050 0.062 0.016-0.008c-0.044-0.090-0.084-0.092-0.13-0.005zM9.906 19.967l0.001 0.44 0.485 0.016c0.267 0.009 0.479 0.005 0.47-0.008s-0.222-0.024-0.476-0.024h-0.461l-0.021-0.864 0.001 0.44zM32.468 19.572c0.013 0.098 0.109 0.141 0.168 0.075 0.027-0.030 0.031-0.041 0.010-0.023-0.063 0.052-0.122 0.037-0.155-0.040-0.024-0.055-0.029-0.058-0.023-0.011zM33.977 19.605c-0.010 0.025-0.011 0.079-0.003 0.12 0.010 0.055 0.015 0.046 0.018-0.033 0.003-0.083 0.016-0.103 0.054-0.088 0.028 0.011 0.041 0.006 0.030-0.013-0.028-0.046-0.079-0.039-0.099 0.014zM34.385 19.657c-0.002 0.045-0.015 0.095-0.028 0.112s-0.005 0.014 0.019-0.005c0.023-0.020 0.036-0.070 0.028-0.112-0.014-0.075-0.014-0.075-0.019 0.005zM16.014 19.655c0.014 0.053 0.333 0.088 0.379 0.042 0.014-0.014-0.055-0.021-0.153-0.015-0.124 0.008-0.188-0.002-0.209-0.032-0.024-0.035-0.028-0.034-0.017 0.005zM24.833 19.71c0.057 0.007 0.151 0.007 0.208 0s0.010-0.013-0.104-0.013c-0.114 0-0.161 0.006-0.104 0.013zM12.073 19.847c0 0.026 0.012 0.077 0.027 0.112 0.017 0.040 0.027 0.046 0.027 0.016 0-0.026-0.012-0.077-0.027-0.112-0.017-0.040-0.027-0.046-0.027-0.016zM37.596 20.048c-0.009 0.022-0.011 0.415-0.006 0.872l0.009 0.832 0.007-0.854c0.006-0.647 0.017-0.858 0.047-0.87 0.031-0.013 0.031-0.017-0.001-0.019-0.023-0.001-0.048 0.016-0.056 0.038zM38.192 20.157c-0.001 0.038-0.021 0.077-0.042 0.086-0.031 0.013-0.031 0.017 0.001 0.019 0.048 0.003 0.084-0.074 0.060-0.133-0.009-0.023-0.018-0.010-0.019 0.028zM27.112 20.415l0.415 0.010 0.024 0.43-0.003-0.224-0.003-0.224-0.848-0.003 0.415 0.010zM20.767 20.446c0.040 0.008 0.104 0.008 0.144 0s0.007-0.014-0.072-0.014-0.112 0.006-0.072 0.014zM12.923 20.711c0.012 0.044 0.023 0.112 0.024 0.152s0.012 0.072 0.026 0.072c0.038 0 0.025-0.103-0.025-0.208-0.037-0.076-0.042-0.079-0.024-0.016zM20.323 20.838c0.041 0.036 0.091 0.066 0.109 0.066 0.039 0 0.038-0.002-0.089-0.076l-0.096-0.056 0.076 0.066zM21.304 20.842c-0.053 0.034-0.080 0.062-0.060 0.062s0.071-0.028 0.112-0.063c0.095-0.079 0.072-0.079-0.052 0.001zM24.555 20.83c-0.002 0.066-0.020 0.071-0.251 0.082l-0.248 0.011 0.249 0.006c0.254 0.007 0.312-0.021 0.269-0.129-0.009-0.023-0.018-0.009-0.019 0.030zM14.498 20.913c0.014 0.014 0.125 0.021 0.247 0.016l0.221-0.010-0.247-0.016c-0.136-0.009-0.235-0.004-0.221 0.010zM4.794 20.927c0.057 0.007 0.151 0.007 0.208 0s0.010-0.013-0.104-0.013c-0.114 0-0.161 0.006-0.104 0.013zM5.706 20.927c0.066 0.007 0.174 0.007 0.24 0s0.012-0.013-0.12-0.013-0.186 0.006-0.12 0.013zM6.89 20.927c0.066 0.007 0.174 0.007 0.24 0s0.012-0.013-0.12-0.013-0.186 0.006-0.12 0.013zM9.723 20.927c0.198 0.006 0.522 0.006 0.72 0s0.036-0.010-0.36-0.010c-0.396 0-0.558 0.005-0.36 0.010zM12.508 20.927c0.075 0.007 0.197 0.007 0.272 0s0.014-0.012-0.136-0.012-0.211 0.006-0.136 0.012zM15.454 20.927c0.057 0.007 0.151 0.007 0.208 0s0.010-0.013-0.104-0.013-0.161 0.006-0.104 0.013zM16.703 20.927c0.075 0.007 0.191 0.007 0.256-0s0.004-0.012-0.137-0.012-0.194 0.006-0.119 0.013zM17.742 20.927c0.084 0.007 0.22 0.007 0.304 0s0.015-0.012-0.152-0.012c-0.167 0-0.236 0.005-0.152 0.012zM19.151 20.927c0.084 0.007 0.22 0.007 0.304 0s0.015-0.012-0.152-0.012c-0.167 0-0.236 0.005-0.152 0.012zM23.393 20.927c0.058 0.007 0.144 0.007 0.192-0s0.001-0.013-0.105-0.013c-0.106 0-0.145 0.006-0.087 0.013zM25.442 20.927c0.075 0.007 0.19 0.007 0.256-0s0.004-0.012-0.137-0.012-0.194 0.006-0.119 0.013zM26.497 20.927c0.181 0.006 0.476 0.006 0.656 0s0.033-0.010-0.328-0.010-0.509 0.005-0.328 0.010zM34.556 21.32c0.035 0.015 0.093 0.027 0.128 0.027 0.051-0.001 0.048-0.006-0.016-0.027-0.109-0.035-0.194-0.035-0.112 0z"></path>
<path fill="#7d740c" d="M36.796 10.476l-0.127 0.136 0.136-0.127c0.075-0.070 0.136-0.131 0.136-0.136 0-0.024-0.028 0-0.145 0.127zM37.816 10.884c0 0.132 0.006 0.186 0.013 0.12s0.007-0.174 0-0.24c-0.007-0.066-0.013-0.012-0.013 0.12zM34.97 11.020l-0.094 0.104 0.104-0.094c0.057-0.052 0.104-0.099 0.104-0.104 0-0.025-0.026-0.003-0.114 0.094zM20.176 11.035c0.049 0.007 0.121 0.007 0.16-0s-0-0.014-0.089-0.013c-0.088 0-0.12 0.006-0.072 0.014zM11.571 13.733c0 1.453 0.004 2.047 0.009 1.321s0.005-1.915 0-2.641c-0.005-0.726-0.009-0.132-0.009 1.32zM14.334 12.596c-0.005 0.819 0.002 1.489 0.015 1.489s0.024-0.67 0.024-1.489c0-0.819-0.007-1.489-0.015-1.489s-0.019 0.67-0.024 1.489zM18.406 11.486l0.016 0.375 0.009-0.349c0.005-0.192-0.002-0.361-0.016-0.375s-0.018 0.143-0.009 0.349zM12.404 13.749c0 1.444 0.004 2.030 0.009 1.302s0.005-1.909 0-2.625c-0.005-0.716-0.009-0.121-0.009 1.323zM35.803 11.34l-0.127 0.136 0.136-0.126c0.075-0.070 0.136-0.131 0.136-0.136 0-0.024-0.028 0-0.145 0.126zM19.817 11.961c-0.037 0.046-0.066 0.1-0.065 0.12s0.017 0.007 0.037-0.028c0.019-0.035 0.057-0.089 0.084-0.12s0.040-0.056 0.030-0.056c-0.010 0-0.049 0.038-0.085 0.084zM34.39 12.196c0 0.097 0.006 0.136 0.013 0.088s0.007-0.128 0-0.176-0.013-0.009-0.013 0.088zM37.212 12.204l-0.159 0.168 0.168-0.159c0.092-0.087 0.168-0.163 0.168-0.168 0-0.024-0.030 0.003-0.177 0.159zM5.902 12.212c-0.011 0.028-0.011 0.060 0 0.071s0.021-0 0.022-0.025c0.001-0.027 0.013-0.019 0.030 0.019 0.027 0.062 0.028 0.062 0.030-0.006 0.003-0.087-0.055-0.128-0.082-0.059zM18.863 12.324c0 0.079 0.006 0.112 0.014 0.072s0.008-0.104 0-0.144c-0.008-0.040-0.014-0.007-0.014 0.072zM8.676 12.342c0.001 0.083 0.005 0.087 0.035 0.035 0.025-0.042 0.024-0.069-0.001-0.094s-0.035-0.010-0.034 0.059zM10.78 12.462c0.017 0.279 0.034 0.301 0.037 0.048 0.001-0.118-0.009-0.221-0.023-0.23s-0.020 0.073-0.014 0.182zM35.223 12.5c0 0.106 0.006 0.145 0.013 0.087s0.007-0.144-0-0.192c-0.007-0.048-0.013-0.001-0.013 0.105zM8.69 14.405c0 1.083 0.004 1.526 0.009 0.984s0.005-1.427 0-1.969c-0.005-0.541-0.009-0.098-0.009 0.984zM36.668 12.717l-0.255 0.264 0.264-0.255c0.145-0.14 0.264-0.259 0.264-0.264 0-0.023-0.036 0.010-0.273 0.255zM20.103 13.045c0.113 0.114 0.213 0.208 0.222 0.208s-0.077-0.094-0.19-0.208c-0.113-0.114-0.213-0.208-0.222-0.208s0.077 0.094 0.19 0.208zM13.2 13.142c-0.010 0.027-0.010 0.058 0.001 0.069s0.020-0.005 0.020-0.035 0.014-0.046 0.032-0.036c0.018 0.011 0.032 0.005 0.032-0.014 0-0.052-0.064-0.040-0.085 0.015zM34.78 13.221c0.069 0.070 0.132 0.128 0.141 0.128s-0.040-0.058-0.109-0.128c-0.069-0.070-0.132-0.128-0.141-0.128s0.040 0.058 0.109 0.128zM35.99 13.349c0 0.079 0.006 0.112 0.014 0.072s0.008-0.104 0-0.144c-0.008-0.040-0.014-0.007-0.014 0.072zM35.565 13.397c0.060 0.062 0.116 0.112 0.125 0.112s-0.033-0.050-0.093-0.112c-0.060-0.062-0.116-0.112-0.125-0.112s0.033 0.050 0.093 0.112zM20.647 13.519c0 0.005 0.047 0.052 0.104 0.104l0.104 0.094-0.094-0.104c-0.088-0.097-0.114-0.119-0.114-0.094zM36.182 13.637c0 0.079 0.006 0.112 0.014 0.072s0.008-0.104 0-0.144c-0.008-0.040-0.014-0.007-0.014 0.072zM35.471 13.649c0.033 0.029 0.221 0.116 0.221 0.102 0-0.018-0.177-0.114-0.212-0.114-0.013 0-0.017 0.005-0.010 0.012zM10.421 13.943c-0.012 0.064-0.015 0.123-0.008 0.131s0.024-0.038 0.036-0.103c0.012-0.064 0.015-0.123 0.008-0.131s-0.024 0.038-0.036 0.103zM21.064 13.941c0.060 0.062 0.116 0.112 0.125 0.112s-0.033-0.050-0.093-0.112-0.116-0.112-0.125-0.112c-0.009 0 0.033 0.050 0.093 0.112zM34.821 13.917c0.163 0.006 0.429 0.006 0.592 0s0.030-0.010-0.296-0.010c-0.326 0-0.459 0.005-0.296 0.010zM36.631 13.917c0.155 0.006 0.4 0.006 0.544-0s0.018-0.011-0.282-0.011c-0.299 0-0.417 0.005-0.263 0.011zM9.763 14.072c-0 0.051-0.006 0.053-0.031 0.013s-0.031-0.040-0.031 0.008c-0 0.031 0.014 0.056 0.032 0.056 0.040 0 0.079-0.091 0.051-0.119-0.011-0.011-0.020 0.008-0.020 0.041zM37.562 14.533c0 0.255 0.005 0.36 0.011 0.232s0.006-0.336 0-0.464c-0.006-0.128-0.011-0.023-0.011 0.232zM26.584 15.237c0 0.625 0.004 0.881 0.009 0.568s0.005-0.824 0-1.136c-0.005-0.313-0.009-0.057-0.009 0.568zM25.688 15.253c0 0.616 0.004 0.864 0.010 0.55s0.005-0.818 0-1.12c-0.005-0.303-0.010-0.046-0.010 0.57zM20.311 14.405c0.087 0.088 0.165 0.16 0.174 0.16s-0.055-0.072-0.142-0.16c-0.087-0.088-0.165-0.16-0.174-0.16s0.055 0.072 0.142 0.16zM5.581 14.341c0.005 0.082 0.623 0.147 0.697 0.073 0.014-0.014-0.131-0.021-0.323-0.015-0.341 0.010-0.348 0.009-0.364-0.064-0.015-0.069-0.015-0.068-0.010 0.006zM35.042 14.528c-0.057 0.063-0.085 2.991-0.029 3.026 0.013 0.008 0.020-0.656 0.015-1.475-0.008-1.356-0.004-1.496 0.045-1.55 0.029-0.032 0.046-0.059 0.038-0.059s-0.040 0.026-0.069 0.059zM36.981 15.983l-0.008 1.338-0.072 0.029c-0.049 0.020-0.055 0.030-0.020 0.031 0.121 0.005 0.125-0.048 0.116-1.41l-0.009-1.325-0.008 1.337zM19.543 14.877c0.035 0.009 0.075 0.032 0.088 0.052 0.015 0.023 0.024 0.016 0.024-0.020 0-0.041-0.023-0.055-0.088-0.052-0.067 0.003-0.073 0.007-0.024 0.020zM20.689 15.141c0 0.097 0.006 0.136 0.013 0.088s0.007-0.128 0-0.176c-0.007-0.049-0.013-0.009-0.013 0.088zM37.884 15.010c-0.017 0.016-0.059 0.036-0.094 0.044-0.061 0.015-0.060 0.016 0.004 0.019 0.038 0.002 0.086-0.018 0.108-0.044 0.044-0.052 0.031-0.066-0.018-0.019zM5.936 15.197l0.494 0.010 0.015 0.087c0.014 0.081 0.014 0.081 0.010-0.009l-0.005-0.096-1.008-0.003 0.494 0.010zM37.556 16.22c-0.004 0.532 0.004 0.973 0.017 0.981s0.020-0.275 0.016-0.63c-0.015-1.204-0.026-1.32-0.033-0.351zM32.725 15.373c-0.056 0.073-0.079 0.137-0.025 0.072 0.029-0.035 0.067-0.060 0.085-0.055s0.023-0.006 0.012-0.024c-0.026-0.042-0.034-0.041-0.072 0.007zM37.811 15.484c-0.006 0.126 0.037 0.157 0.13 0.092 0.039-0.027 0.054-0.050 0.034-0.050s-0.046 0.014-0.057 0.032c-0.038 0.062-0.076 0.031-0.089-0.072l-0.013-0.104-0.005 0.102zM17.693 15.581l0.807 0.009 0.021 0.751-0.003-0.768-1.633-0.002 0.807 0.009zM39.372 15.758c0.095 0.108 0.113 0.109 0.232 0.008 0.052-0.044 0.082-0.080 0.066-0.080s-0.056 0.029-0.087 0.064c-0.074 0.082-0.105 0.080-0.206-0.008l-0.082-0.072 0.078 0.088zM39.438 16.517c0 0.059-0.038 0.141-0.1 0.216l-0.1 0.121 0.116-0.12c0.101-0.104 0.168-0.313 0.1-0.313-0.009 0-0.016 0.043-0.016 0.095zM35.882 17.246l-0.078 0.088 0.096-0.080c0.053-0.044 0.102-0.084 0.109-0.088s-0.001-0.008-0.018-0.008-0.067 0.040-0.109 0.088zM35.468 17.357c-0.009 0.083-0.004 0.139 0.011 0.124s0.021-0.082 0.015-0.151l-0.011-0.124-0.015 0.151zM36.566 17.405c0.049 0.007 0.121 0.007 0.16-0s-0-0.014-0.088-0.013c-0.088 0-0.12 0.006-0.072 0.014zM37.588 17.485c-0.070 0.070-0.053 2.183 0.018 2.237 0.048 0.036 0.050 0.036 0.016-0.002-0.056-0.063-0.058-2.178-0.002-2.234 0.021-0.021 0.031-0.038 0.022-0.038s-0.033 0.017-0.054 0.038zM36.293 17.597c0.040 0.008 0.097 0.007 0.128-0.001s-0.002-0.014-0.072-0.014c-0.071 0-0.096 0.007-0.056 0.015zM36.988 19.383c0 0.968 0.004 1.369 0.009 0.891s0.005-1.271 0-1.761c-0.005-0.49-0.009-0.098-0.009 0.87zM35.085 17.715c0 0.007 0.056 0.018 0.125 0.025s0.118 0.001 0.11-0.013c-0.015-0.025-0.236-0.036-0.236-0.012zM4.529 19.311l0 1.577h0.544l0.001-3.105-0.018 3.089h-0.511l-0.018-3.137 0 1.577zM5.554 19.311l0 1.577 0.494 0.019 0.009-0.975c0.005-0.536-0.002-0.968-0.015-0.96s-0.024 0.439-0.024 0.957v0.942h-0.448l-0.009-1.569-0.009-1.569 0 1.577zM7.21 19.294l-0.008 1.575-0.496 0.022 0.249 0.006c0.175 0.004 0.254-0.006 0.264-0.034 0.008-0.022 0.011-0.739 0.007-1.593l-0.009-1.552-0.008 1.575zM9.059 17.965c-0.009 0.136-0.004 0.235 0.010 0.221s0.021-0.125 0.016-0.247l-0.010-0.221-0.016 0.247zM19.030 19.311l0 1.577h0.544l0-1.585 0.001-1.584-0.009 1.576-0.009 1.577h-0.511l-0.009-1.569-0.009-1.569 0 1.577zM22.039 19.311l0 1.577 0.48 0.004-0.464-0.023-0.018-3.135 0 1.577zM23.208 18.621c-0.009 0.497-0.005 0.892 0.009 0.878s0.021-0.42 0.016-0.903l-0.009-0.878-0.016 0.903zM23.689 19.305v1.571l-0.237-0.010c-0.13-0.006-0.23 0-0.222 0.013s0.122 0.024 0.253 0.024h0.238v-1.585c0-0.871-0.007-1.585-0.016-1.585s-0.016 0.707-0.016 1.571zM26.129 19.311l-0.008 1.593h1.409v-0.477l-0.429-0.010c-0.236-0.005-0.422 0.001-0.414 0.014s0.194 0.024 0.413 0.024h0.398v0.416h-1.344l-0.009-1.577-0.009-1.576-0.008 1.593zM35.003 17.774c-0.008 0.022-0.012 0.717-0.007 1.545l0.008 1.505 0.016-1.545c0.009-0.849 0.012-1.545 0.007-1.545s-0.016 0.018-0.024 0.040zM20.8 18.173c0.040 0.008 0.097 0.007 0.128-0.001s-0.002-0.014-0.072-0.014c-0.070 0-0.095 0.007-0.056 0.015zM17.573 18.204c0.022 0.011 0.033 0.474 0.033 1.358v1.342l0.56-0.013-0.527-0.022-0.008-1.333c-0.007-1.049-0.017-1.334-0.049-1.341-0.022-0.005-0.026-0.001-0.008 0.008zM8.515 19.542v1.327l-0.528 0.022 0.56 0.013v-1.345c0-0.739-0.007-1.344-0.016-1.344s-0.016 0.597-0.016 1.327zM9.874 18.623l0.001 0.408 0.693 0.018-0.011 0.221c-0.006 0.122 0.001 0.21 0.015 0.196s0.021-0.118 0.016-0.231l-0.010-0.205-0.686-0.018-0.021-0.798 0.002 0.408zM20.021 19.319c0 0.581 0.004 0.823 0.010 0.538s0.005-0.76 0-1.056c-0.005-0.296-0.010-0.063-0.010 0.518zM21.654 19.319c0 0.581 0.004 0.823 0.010 0.538s0.005-0.76 0-1.056c-0.005-0.296-0.010-0.063-0.010 0.518zM12.303 18.663c0 0.114 0.006 0.161 0.013 0.104s0.007-0.151 0-0.208c-0.007-0.057-0.013-0.010-0.013 0.104zM12.878 18.663c0 0.097 0.006 0.136 0.013 0.088s0.007-0.128 0-0.176c-0.007-0.048-0.013-0.009-0.013 0.088zM21.141 19.303c0 0.449 0.005 0.633 0.010 0.408s0.006-0.592 0-0.816c-0.005-0.224-0.010-0.041-0.010 0.408zM12.22 19.023l-0.056 0.104 0.065-0.076c0.055-0.064 0.084-0.133 0.056-0.132-0.004 0-0.033 0.047-0.065 0.104zM22.516 18.998c-0.011 0.028-0.011 0.060 0 0.071s0.020 0.002 0.020-0.019 0.014-0.030 0.032-0.019c0.018 0.011 0.032 0.005 0.032-0.012 0-0.058-0.064-0.073-0.084-0.020zM12.751 19.209c-0.038 0.069-0.056 0.118-0.039 0.108 0.036-0.022 0.135-0.208 0.119-0.223-0.006-0.006-0.042 0.046-0.080 0.115zM13.804 19.966l-0.007 0.903-0.496 0.022 0.249 0.006c0.309 0.008 0.282 0.103 0.271-0.954l-0.009-0.88-0.007 0.903zM11.772 19.165c0.040 0.008 0.104 0.008 0.144 0s0.007-0.014-0.072-0.014-0.112 0.006-0.072 0.014zM6.722 19.427c0 0.022-0.014 0.030-0.032 0.019s-0.032-0.005-0.032 0.012c0 0.018 0.015 0.041 0.032 0.052 0.036 0.022 0.083-0.072 0.052-0.103-0.011-0.011-0.020-0.002-0.020 0.019zM9.874 19.959l0.001 0.48 0.976 0.003-0.959-0.020-0.020-0.943 0.001 0.48zM24.726 19.655c0.005 0.132 0.417 0.124 0.423-0.008 0.004-0.081 0.003-0.082-0.010-0.008-0.020 0.117-0.381 0.125-0.403 0.008-0.011-0.063-0.013-0.062-0.010 0.008zM38.026 19.663c0.027 0.034 0.082 0.054 0.144 0.051l0.1-0.005-0.096-0.014c-0.053-0.008-0.118-0.031-0.144-0.051-0.042-0.032-0.042-0.030-0.004 0.019zM15.982 19.687c0.010 0.037 0.066 0.049 0.235 0.051l0.222 0.003-0.207-0.012c-0.114-0.007-0.22-0.030-0.235-0.051-0.019-0.027-0.023-0.024-0.014 0.010zM33.164 19.767c0.044 0.025 0.094 0.046 0.112 0.046s-0.004-0.021-0.048-0.046-0.094-0.046-0.112-0.046c-0.018 0 0.004 0.021 0.048 0.046zM37.564 20.016c-0.009 0.022-0.011 0.422-0.006 0.888l0.009 0.848 0.007-0.87c0.007-0.798 0.012-0.871 0.063-0.885 0.053-0.014 0.053-0.015-0.001-0.018-0.031-0.002-0.064 0.014-0.073 0.037zM37.712 20.253c-0.001 0.074 0.009 0.141 0.023 0.15s0.020-0.037 0.014-0.102c-0.017-0.177-0.034-0.198-0.036-0.048zM20.767 20.478c0.040 0.008 0.104 0.008 0.144 0s0.007-0.014-0.072-0.014-0.112 0.006-0.072 0.014zM20.135 20.625c0 0.005 0.047 0.052 0.104 0.104l0.104 0.094-0.094-0.104c-0.088-0.097-0.114-0.119-0.114-0.094zM16.592 20.823c0.006 0.058 0.031 0.064 0.27 0.066l0.264 0.002-0.254-0.011c-0.206-0.009-0.257-0.022-0.27-0.066-0.012-0.041-0.015-0.038-0.010 0.009zM25.833 20.837c0 0.029-0.068 0.037-0.256 0.029-0.141-0.006-0.256 0-0.256 0.014 0 0.038 0.506 0.028 0.53-0.010 0.012-0.019 0.012-0.043 0.002-0.053s-0.019-0.001-0.019 0.021zM12.417 20.881c0.014 0.014 0.132 0.021 0.263 0.016l0.237-0.010-0.263-0.016c-0.145-0.009-0.251-0.004-0.237 0.010zM24.037 20.881c0.014 0.014 0.14 0.021 0.279 0.016l0.253-0.010-0.279-0.016c-0.153-0.009-0.267-0.004-0.253 0.010zM9.725 20.895c0.217 0.006 0.562 0.006 0.768 0s0.029-0.010-0.394-0.010c-0.422 0-0.591 0.005-0.374 0.010zM11.341 20.895c0.084 0.007 0.214 0.007 0.288-0s0.005-0.012-0.153-0.012c-0.158 0-0.219 0.006-0.135 0.012zM14.622 20.895c0.075 0.007 0.191 0.007 0.256-0s0.004-0.012-0.137-0.012-0.194 0.006-0.119 0.012zM15.422 20.895c0.075 0.007 0.197 0.007 0.272 0s0.014-0.012-0.136-0.012-0.211 0.006-0.136 0.012z"></path>
</svg>
