<!-- Generated by IcoMoon.io -->
<svg version="1.1" xmlns="http://www.w3.org/2000/svg" width="61" height="32" viewBox="0 0 61 32">
<title>ccr</title>
<path fill="#ec2718" d="M45.981 19.219c-0.010 0.009-0.275 0.038-0.59 0.064s-0.651 0.061-0.748 0.079c-0.097 0.017-0.802 0.046-1.568 0.063s-1.781 0.047-2.256 0.067c-0.656 0.027-1.080 0.027-1.76-0.002-0.908-0.039-1.237-0.031-2.128 0.048-0.273 0.024-0.633 0.053-0.8 0.065-0.223 0.016-0.333 0.039-0.413 0.088-0.087 0.053-0.155 0.065-0.336 0.060-0.421-0.012-0.719 0.027-0.809 0.104l-0.081 0.070 0.137 0.142c0.224 0.233 0.223 0.224 0.223 1.403v1.054l-0.116 0.226-0.116 0.226 0.216 0.337v1.544c0 1.828 0.047 1.653-0.441 1.668-0.503 0.016-0.452 0.187-0.471-1.583l-0.016-1.498-0.073-0.037c-0.041-0.021-0.118-0.027-0.176-0.016l-0.103 0.021-0.016 1.509c-0.012 1.178-0.025 1.518-0.057 1.551-0.060 0.060-0.745 0.058-0.817-0.002-0.049-0.040-0.053-0.302-0.053-3.204 0-2.712-0.007-3.166-0.046-3.198-0.082-0.068-2.491-0.030-2.674 0.042-0.109 0.043-0.303 0.064-0.8 0.086-0.361 0.016-0.771 0.044-0.912 0.062s-0.577 0.054-0.97 0.081c-0.393 0.027-0.796 0.069-0.896 0.094s-0.351 0.062-0.557 0.082-0.422 0.050-0.48 0.067c-0.057 0.017-0.278 0.044-0.491 0.061s-0.513 0.052-0.668 0.079c-0.369 0.064-0.816 0.065-0.899 0.002s-0.173-0.061-0.373 0.014c-0.436 0.161-1.977 0.242-2.248 0.118l-0.185-0.085h-0.919c-0.843 0-0.936-0.006-1.132-0.067-0.202-0.063-0.221-0.064-0.363-0.016-0.082 0.028-0.216 0.051-0.298 0.051-0.212 0-0.288 0.101-0.172 0.229 0.072 0.079 0.003 0.105-0.204 0.077-0.315-0.043-0.947-0.055-1.078-0.020-0.177 0.048-0.965 0.13-1.239 0.13-0.241 0-0.553 0.090-0.617 0.177-0.027 0.038-0.124 0.059-0.357 0.079-0.176 0.015-0.361 0.044-0.413 0.063s-0.26 0.043-0.463 0.052c-0.642 0.028-0.63 0.024-0.726 0.213-0.112 0.221-0.153 0.696-0.124 1.432 0.012 0.308 0.020 0.683 0.017 0.834-0.004 0.204 0.012 0.325 0.061 0.471 0.036 0.108 0.066 0.27 0.066 0.359s0.030 0.244 0.066 0.345c0.056 0.154 0.068 0.276 0.078 0.765 0.011 0.555 0.016 0.591 0.099 0.766 0.062 0.131 0.091 0.253 0.102 0.423 0.015 0.227 0.116 0.462 0.229 0.532 0.015 0.009 0.038 0.078 0.050 0.152 0.028 0.165 0.19 0.377 0.288 0.377 0.039 0 0.106 0.028 0.15 0.063 0.177 0.139 3.381 0.16 4.569 0.030 0.15-0.016 0.531-0.050 0.848-0.076s0.727-0.068 0.912-0.095c0.462-0.067 0.731-0.063 0.958 0.014 0.193 0.065 0.443 0.056 0.85-0.030 0.070-0.015 0.372-0.037 0.67-0.050 0.351-0.015 0.588-0.039 0.672-0.071 0.15-0.056 1.096-0.098 2.305-0.103 0.45-0.002 0.927-0.023 1.152-0.050 0.211-0.025 0.457-0.047 0.547-0.047 0.111-0 0.211-0.026 0.311-0.079l0.148-0.079h1.289c1.418 0 2.484-0.039 2.633-0.098 0.053-0.021 0.226-0.052 0.384-0.070s0.403-0.061 0.544-0.095c0.239-0.059 0.408-0.064 2.512-0.081 1.816-0.014 2.287-0.026 2.416-0.063 0.097-0.028 0.456-0.058 0.912-0.078 0.414-0.018 0.844-0.047 0.957-0.065s0.343-0.045 0.512-0.060c0.169-0.015 0.372-0.052 0.451-0.083 0.125-0.048 0.328-0.059 1.52-0.080 1.088-0.019 1.416-0.035 1.568-0.075 0.106-0.028 0.363-0.066 0.573-0.085s0.42-0.055 0.467-0.079c0.047-0.025 0.153-0.061 0.235-0.082 0.196-0.049 0.199-0.135 0.013-0.356l-0.136-0.161-0.010-1.125c-0.012-1.354-0.058-1.236 0.487-1.236 0.475 0 0.435-0.091 0.435 0.994 0 1.029-0.007 1 0.23 0.983l0.138-0.010 0.008-0.998 0.009-0.998-0.121-0.090c-0.066-0.050-0.138-0.104-0.158-0.122s-0.086-0.065-0.144-0.105-0.221-0.16-0.362-0.265c-0.141-0.106-0.302-0.222-0.359-0.258-0.156-0.099-0.168-0.193-0.169-1.312-0-1.193-0.005-1.157 0.199-1.387 0.242-0.271 0.249-0.273 0.944-0.273 0.684 0 0.653-0.010 0.926 0.283 0.205 0.219 0.203 0.21 0.202 1.089-0.001 0.906 0.022 0.868-0.522 0.868-0.444 0-0.418 0.043-0.438-0.733l-0.016-0.627-0.143-0.010c-0.22-0.016-0.225 0-0.225 0.749v0.647l0.258 0.187c0.278 0.202 0.456 0.334 0.558 0.414 0.035 0.028 0.096 0.064 0.136 0.079s0.072 0.041 0.072 0.056c0 0.015 0.035 0.044 0.079 0.064s0.116 0.092 0.162 0.161l0.083 0.125-0.009 1.425c-0.009 1.304-0.014 1.43-0.066 1.487-0.121 0.134-0.083 0.147 0.352 0.128 0.271-0.012 0.449-0.035 0.53-0.070 0.067-0.029 0.24-0.061 0.384-0.072 0.181-0.014 0.274-0.035 0.299-0.070 0.020-0.027 0.085-0.066 0.144-0.085 0.087-0.029 0.11-0.055 0.117-0.134 0.006-0.059 0.047-0.131 0.104-0.181 0.075-0.067 0.094-0.111 0.094-0.213 0-0.071 0.037-0.217 0.083-0.325 0.058-0.137 0.078-0.232 0.066-0.311-0.009-0.063-0.033-0.222-0.053-0.354s-0.041-0.355-0.045-0.496c-0.010-0.332-0.064-0.679-0.125-0.8-0.026-0.053-0.065-0.204-0.087-0.336s-0.053-0.267-0.071-0.301c-0.036-0.068-0.097-0.732-0.087-0.931 0.032-0.593 0.011-1.457-0.038-1.506-0.042-0.042-0.046-0.070-0.018-0.142 0.045-0.12-0.089-0.242-0.298-0.272-0.079-0.011-0.202-0.047-0.272-0.080s-0.176-0.069-0.235-0.081c-0.059-0.012-0.173-0.051-0.254-0.087-0.121-0.053-0.188-0.062-0.386-0.047-0.191 0.014-0.272 0.006-0.402-0.044-0.161-0.061-0.28-0.078-0.313-0.045zM36.175 19.87c0.053 0.044 0.085 6.328 0.033 6.522-0.026 0.098-0.168 0.138-0.489 0.137-0.308-0.001-0.337-0.011-0.385-0.138-0.063-0.166-0.046-6.422 0.018-6.513 0.062-0.089 0.719-0.095 0.824-0.009zM38.583 19.938c0.069 0.062 0.168 0.161 0.221 0.221l0.096 0.11v0.889c0 1.059 0.033 0.978-0.416 1.007-0.492 0.032-0.477 0.055-0.49-0.76-0.012-0.725-0.016-0.739-0.21-0.724l-0.131 0.010v4.928l0.103 0.010c0.235 0.023 0.233 0.030 0.233-0.821 0-0.619-0.009-0.772-0.047-0.823-0.061-0.081-0.070-0.812-0.011-0.872 0.065-0.065 0.87-0.052 0.926 0.014 0.058 0.070 0.083 2.656 0.027 2.862-0.044 0.163-0.371 0.493-0.518 0.522-0.053 0.011-0.326 0.020-0.606 0.020-0.586 0-0.617-0.011-0.907-0.324l-0.16-0.172v-5.774l0.16-0.165c0.287-0.296 0.264-0.289 0.979-0.279l0.627 0.009 0.125 0.112zM40.205 19.847c0.116 0.061 0.117 0.067 0.117 1.317 0 1.31 0.003 1.334 0.167 1.334 0.223 0 0.217 0.033 0.217-1.333 0-1.478-0.041-1.355 0.457-1.355 0.246 0 0.347 0.012 0.4 0.050l0.071 0.050v3.226c0 3.808 0.054 3.394-0.447 3.394-0.262 0-0.327-0.010-0.39-0.061l-0.075-0.061-0.009-1.49-0.009-1.49-0.075-0.019c-0.041-0.010-0.123-0.014-0.183-0.008l-0.108 0.010-0.016 1.495c-0.019 1.776 0.032 1.604-0.477 1.62-0.332 0.010-0.349 0.007-0.399-0.063-0.080-0.115-0.079-6.504 0.001-6.593 0.063-0.070 0.635-0.086 0.757-0.022zM43.836 19.86c0.066 0.046 0.071 0.075 0.071 0.38 0 0.388-0.014 0.41-0.285 0.434l-0.179 0.016-0.016 2.848c-0.013 2.238-0.025 2.863-0.057 2.92-0.077 0.134-0.79 0.097-0.859-0.046-0.016-0.032-0.035-1.333-0.044-2.89l-0.016-2.832-0.176-0.025c-0.234-0.033-0.256-0.070-0.255-0.422 0-0.306 0.009-0.338 0.111-0.396 0.109-0.062 1.615-0.051 1.705 0.012zM33.561 20.695c-0.041 0.041-0.025 1.723 0.017 1.764 0.056 0.056 0.2 0.047 0.28-0.018 0.090-0.073 0.092-1.68 0.002-1.737-0.055-0.035-0.267-0.042-0.299-0.010z"></path>
<path fill="#0e0e0e" d="M24.766 3.837l-0.187 0.187v5.78l0.378 0.377 1.324-0.020 0.076-0.088c0.042-0.048 0.090-0.088 0.107-0.088s0.041-0.029 0.052-0.064c0.011-0.035 0.048-0.079 0.082-0.097 0.076-0.041 0.098-1.742 0.023-1.816-0.060-0.060-0.602-0.051-0.691 0.011-0.069 0.049-0.071 0.065-0.071 0.686 0 0.761-0.053 0.848-0.43 0.705l-0.082-0.031v-2.446c0-2.774-0.024-2.547 0.271-2.547 0.23 0 0.241 0.037 0.241 0.797 0.001 0.733-0.033 0.68 0.418 0.668l0.365-0.009 0.009-0.894c0.010-1.006 0.038-0.874-0.243-1.146-0.152-0.147-0.149-0.147-0.834-0.149l-0.621-0.002-0.187 0.187zM27.306 3.688c-0.056 0.056-0.056 6.395 0 6.451 0.027 0.027 0.222 0.038 0.671 0.038 0.739 0 0.675 0.042 0.66-0.432l-0.009-0.288-0.256-0.016c-0.368-0.023-0.336 0.088-0.336-1.166 0-1.263-0.029-1.163 0.338-1.177l0.255-0.009 0.009-0.304c0.014-0.454 0.017-0.448-0.25-0.448-0.366 0-0.351 0.041-0.351-1.004 0-1.012-0.025-0.941 0.338-0.954l0.255-0.010 0.009-0.288c0.016-0.474 0.079-0.432-0.66-0.432-0.45 0-0.644 0.011-0.671 0.038zM29.243 3.671c-0.053 0.014-0.056 0.196-0.056 3.244v3.229l0.072 0.018c0.040 0.010 0.187 0.014 0.328 0.009l0.256-0.009 0.018-1.344c0.017-1.264 0.029-1.456 0.096-1.456 0.028 0 0.094 0.203 0.094 0.292 0 0.029 0.029 0.117 0.064 0.197 0.038 0.086 0.079 0.286 0.1 0.492 0.020 0.191 0.047 0.361 0.061 0.379 0.029 0.037 0.081 0.326 0.111 0.624 0.012 0.114 0.033 0.222 0.048 0.24s0.043 0.145 0.062 0.284c0.019 0.138 0.043 0.264 0.053 0.28 0.034 0.055 0.645 0.035 0.667-0.022 0.040-0.105 0.022-6.398-0.019-6.439-0.062-0.063-0.622-0.052-0.646 0.012-0.011 0.028-0.019 0.531-0.019 1.118 0 1.009-0.024 1.363-0.097 1.408-0.052 0.032-0.097-0.111-0.125-0.408-0.016-0.163-0.052-0.351-0.080-0.417s-0.059-0.231-0.070-0.368-0.046-0.33-0.079-0.429c-0.033-0.1-0.070-0.297-0.081-0.438-0.014-0.17-0.044-0.297-0.090-0.379l-0.069-0.122-0.271-0.005c-0.149-0.003-0.296 0.002-0.327 0.010zM31.819 3.689c-0.067 0.032-0.072 0.055-0.072 0.335 0 0.338 0.019 0.362 0.288 0.362 0.239 0 0.224-0.194 0.224 2.934 0 3.241-0.058 2.866 0.44 2.851l0.312-0.009 0.016-2.848c0.009-1.566 0.028-2.866 0.042-2.888 0.015-0.023 0.092-0.040 0.181-0.040 0.258 0 0.257 0.002 0.257-0.349 0-0.199-0.014-0.324-0.038-0.349-0.051-0.051-1.544-0.050-1.65 0.001zM34.107 3.672c-0.092 0.024-0.086 6.423 0.006 6.473 0.037 0.020 0.32 0.033 0.697 0.033 0.806 0 0.777 0.014 0.777-0.398 0-0.35 0.015-0.337-0.402-0.338-0.361-0.001-0.335 0.092-0.335-1.171 0-1.26-0.032-1.154 0.358-1.17 0.35-0.014 0.359-0.023 0.372-0.373l0.011-0.278-0.096-0.056c-0.067-0.039-0.164-0.056-0.321-0.056-0.337 0-0.325 0.037-0.325-1.009 0-1.005-0.021-0.943 0.324-0.943 0.405 0 0.412-0.006 0.412-0.362 0-0.29-0.003-0.301-0.082-0.337s-1.269-0.049-1.398-0.015zM36.219 3.672c-0.053 0.014-0.056 0.195-0.056 3.244v3.229l0.072 0.018c0.040 0.010 0.216 0.014 0.392 0.009l0.32-0.009 0.016-1.488c0.018-1.671 0.001-1.568 0.257-1.568 0.269 0 0.255-0.082 0.255 1.547 0 0.783 0.009 1.446 0.020 1.474 0.025 0.064 0.647 0.075 0.71 0.012 0.122-0.122 0.036-3.29-0.089-3.29-0.081 0-0.069-0.165 0.020-0.297l0.092-0.135v-2.423l-0.371-0.345-0.791 0.004c-0.435 0.002-0.816 0.010-0.846 0.018zM39.786 3.688c-0.056 0.056-0.056 6.395 0 6.451 0.025 0.025 0.149 0.038 0.346 0.038 0.422 0 0.384 0.152 0.384-1.522 0-1.673-0.030-1.536 0.342-1.556 0.287-0.015 0.279-0.006 0.293-0.351 0.014-0.365-0.017-0.412-0.281-0.412-0.148 0-0.195-0.014-0.267-0.081l-0.088-0.081v-0.842c0-0.986-0.013-0.948 0.317-0.948 0.313 0 0.323-0.012 0.323-0.368 0-0.266-0.007-0.306-0.062-0.335-0.091-0.049-1.258-0.044-1.308 0.005zM41.954 3.776c-0.279 0.26-0.254-0.057-0.254 3.165l-0 2.859 0.383 0.382 1.337-0.020 0.36-0.384v-2.872c0-2.837-0.001-2.872-0.064-2.912-0.035-0.022-0.064-0.052-0.064-0.067 0-0.042-0.197-0.217-0.281-0.249-0.041-0.016-0.346-0.029-0.678-0.029h-0.603l-0.135 0.126zM44.443 3.684c-0.094 0.055-0.086 6.411 0.008 6.461 0.037 0.020 0.197 0.030 0.376 0.025l0.312-0.009 0.016-1.488c0.018-1.68-0.001-1.568 0.27-1.568 0.262 0 0.241-0.131 0.242 1.515 0.001 1.734-0.041 1.558 0.363 1.556 0.484-0.002 0.436 0.174 0.436-1.598v-1.512l-0.089-0.133c-0.049-0.073-0.099-0.148-0.111-0.167s0.028-0.127 0.088-0.24l0.109-0.206 0.001-1.094c0.001-0.602-0.012-1.127-0.029-1.168-0.037-0.092-0.25-0.323-0.344-0.373-0.090-0.048-1.569-0.050-1.65-0.003zM37.442 4.448c0.020 0.038 0.033 0.383 0.033 0.897v0.836l-0.078 0.079c-0.12 0.12-0.319 0.111-0.385-0.016-0.059-0.114-0.073-1.689-0.016-1.796 0.027-0.051 0.068-0.062 0.223-0.062s0.196 0.011 0.223 0.062zM42.946 4.448c0.061 0.114 0.044 4.882-0.017 4.944-0.057 0.057-0.255 0.067-0.38 0.019l-0.082-0.031v-2.458c0-1.869 0.009-2.468 0.038-2.497 0.067-0.067 0.402-0.049 0.44 0.024zM45.63 4.427c0.067 0.080 0.057 1.773-0.011 1.848-0.081 0.090-0.304 0.088-0.387-0.004-0.064-0.070-0.097-1.685-0.038-1.828 0.029-0.069 0.38-0.082 0.435-0.015zM14.594 11.91c-0.317 0.297-0.286-0.039-0.287 3.119l-0 2.787 0.091 0.125c0.050 0.069 0.158 0.186 0.239 0.261l0.148 0.136h1.204l0.169-0.168c0.27-0.268 0.262-0.229 0.252-1.184l-0.009-0.84-0.749-0.018-0.010 0.688c-0.011 0.771-0.006 0.756-0.244 0.779-0.281 0.027-0.262 0.212-0.262-2.552 0-2.726-0.015-2.56 0.236-2.56 0.258 0 0.258 0 0.276 0.773l0.016 0.683 0.312 0.009c0.477 0.014 0.44 0.088 0.44-0.885 0-0.878-0.016-0.983-0.162-1.061-0.034-0.018-0.062-0.054-0.062-0.080s-0.021-0.047-0.048-0.047c-0.026 0-0.066-0.029-0.088-0.064-0.038-0.060-0.075-0.064-0.666-0.064h-0.625l-0.175 0.164zM17.243 11.959l-0.216 0.213 0.008 2.883 0.009 2.883 0.377 0.384h1.287l0.368-0.365v-5.829l-0.386-0.382-1.23 0-0.217 0.213zM19.735 11.846c-0.041 0.202-0.023 6.412 0.018 6.454s0.395 0.053 0.563 0.019l0.098-0.020 0.010-1.305c0.010-1.239 0.014-1.309 0.073-1.374 0.086-0.095 0.103-0.053 0.158 0.389 0.025 0.202 0.063 0.4 0.084 0.44s0.053 0.225 0.070 0.411c0.017 0.187 0.053 0.39 0.078 0.452s0.060 0.25 0.076 0.418c0.056 0.587 0.192 0.696 0.732 0.588l0.1-0.020v-3.225c0-1.774-0.009-3.248-0.019-3.276-0.016-0.041-0.076-0.051-0.332-0.051h-0.313l-0.020 0.1c-0.011 0.055-0.021 0.627-0.023 1.272s-0.013 1.205-0.024 1.246c-0.035 0.126-0.082 0.082-0.135-0.128-0.028-0.111-0.068-0.234-0.089-0.273s-0.059-0.23-0.085-0.425c-0.026-0.195-0.064-0.385-0.084-0.424s-0.049-0.196-0.063-0.348c-0.014-0.153-0.055-0.365-0.091-0.472s-0.065-0.251-0.065-0.32c0-0.227-0.002-0.228-0.367-0.228h-0.329l-0.020 0.1zM22.582 11.957c-0.265 0.265-0.248 0.158-0.236 1.437l0.010 1.087 0.082 0.080c0.045 0.044 0.167 0.138 0.271 0.208 0.181 0.123 0.225 0.156 0.366 0.28 0.035 0.031 0.072 0.056 0.081 0.056 0.034 0 0.338 0.222 0.431 0.315l0.096 0.096v0.978c0 1.124 0.004 1.107-0.27 1.107-0.241 0-0.242-0.003-0.242-1.041 0-1.056 0.032-0.975-0.39-0.975-0.476 0-0.442-0.091-0.442 1.172 0 1.195-0.016 1.119 0.306 1.416l0.177 0.164h1.202l0.18-0.172c0.256-0.244 0.246-0.17 0.246-1.779v-1.434l-0.136-0.116c-0.255-0.217-0.29-0.243-0.333-0.243-0.024 0-0.043-0.014-0.043-0.031s-0.042-0.053-0.093-0.079c-0.051-0.026-0.112-0.067-0.136-0.091s-0.133-0.105-0.243-0.18c-0.306-0.209-0.296-0.176-0.296-0.931 0-0.805 0.067-0.935 0.394-0.763 0.113 0.060 0.117 0.081 0.117 0.689 0.001 0.743-0.032 0.683 0.371 0.683 0.425 0 0.398 0.061 0.398-0.892 0-0.841-0.007-0.878-0.187-1.042-0.059-0.053-0.13-0.123-0.159-0.153-0.046-0.050-0.123-0.056-0.682-0.056h-0.63l-0.211 0.211zM25.016 11.866c-0.069 0.416-0.006 0.616 0.194 0.616 0.053 0 0.135 0.030 0.181 0.066l0.084 0.066v2.823c0 2.153 0.009 2.832 0.038 2.862 0.052 0.052 0.639 0.052 0.691 0 0.029-0.029 0.038-0.712 0.038-2.876 0-3.171-0.022-2.904 0.239-2.933 0.218-0.025 0.252-0.082 0.235-0.4-0.020-0.374 0.057-0.344-0.872-0.344h-0.81l-0.020 0.12zM27.299 11.827c-0.071 0.188-0.040 6.44 0.032 6.479 0.037 0.020 0.197 0.030 0.376 0.025l0.312-0.009v-6.56l-0.689-0.018-0.032 0.083zM28.579 12.083c0 0.372 0.017 0.399 0.253 0.399 0.206 0 0.195-0.175 0.195 2.955v2.838l0.082 0.031c0.119 0.045 0.664 0.040 0.712-0.007 0.029-0.029 0.038-0.707 0.038-2.857 0-3.196-0.020-2.961 0.254-2.961 0.191 0 0.194-0.007 0.194-0.419v-0.317h-1.728v0.337zM30.851 14.821v3.075l0.444 0.446 0.593-0.010c0.647-0.011 0.595 0.003 0.795-0.213 0.022-0.024 0.072-0.076 0.112-0.116l0.072-0.073v-6.185h-0.38c-0.367 0-0.381 0.002-0.4 0.072-0.011 0.040-0.020 1.335-0.020 2.878-0.001 3.104 0.013 2.906-0.204 2.906-0.19 0-0.18 0.154-0.18-2.867 0-1.534-0.009-2.835-0.020-2.889l-0.020-0.1h-0.792v3.075zM33.411 12.063c0 0.411 0.003 0.419 0.19 0.419 0.28 0 0.258-0.257 0.258 2.953v2.836l0.067 0.036c0.103 0.055 0.695 0.028 0.733-0.034 0.018-0.029 0.030-1.149 0.031-2.867 0.001-3.196-0.024-2.925 0.266-2.925 0.209 0 0.266-0.181 0.194-0.616l-0.020-0.12h-1.72v0.317zM35.691 15.034l0.008 3.288 0.323 0.009c0.178 0.005 0.361-0.005 0.408-0.023l0.085-0.032v-3.165c0-1.741-0.009-3.21-0.020-3.265l-0.020-0.1h-0.792l0.008 3.288zM37.285 11.971l-0.225 0.225v2.817c0 2.050 0.010 2.836 0.036 2.887 0.020 0.038 0.116 0.149 0.214 0.246l0.178 0.176 1.253 0.020 0.175-0.176c0.096-0.097 0.185-0.202 0.197-0.234 0.036-0.091 0.032-5.688-0.004-5.783-0.017-0.045-0.107-0.154-0.199-0.242l-0.168-0.16h-1.232l-0.225 0.225zM39.787 15.034l0.008 3.288h0.64l0.021-1.28c0.019-1.136 0.042-1.481 0.103-1.543 0.032-0.032 0.081 0.143 0.114 0.41 0.018 0.144 0.045 0.277 0.061 0.297 0.042 0.053 0.065 0.174 0.101 0.515 0.018 0.17 0.047 0.337 0.066 0.372s0.054 0.229 0.079 0.432c0.025 0.203 0.057 0.386 0.069 0.407s0.040 0.117 0.059 0.214l0.035 0.176h0.667l0.008-3.288 0.008-3.288h-0.333c-0.412 0-0.371-0.145-0.371 1.315-0 1.122-0.018 1.373-0.098 1.373-0.036 0-0.094-0.212-0.094-0.345-0-0.058-0.030-0.187-0.065-0.288s-0.078-0.313-0.094-0.471-0.050-0.34-0.077-0.403c-0.027-0.063-0.063-0.255-0.081-0.427s-0.045-0.328-0.060-0.349-0.046-0.12-0.068-0.221l-0.039-0.184h-0.668l0.008 3.288zM42.968 11.77c-0.008 0.013-0.031 0.161-0.051 0.328s-0.049 0.354-0.064 0.416-0.037 0.342-0.048 0.624c-0.011 0.282-0.048 0.685-0.081 0.896s-0.070 0.607-0.082 0.88-0.041 0.597-0.066 0.72c-0.025 0.123-0.060 0.505-0.077 0.848s-0.053 0.718-0.079 0.832c-0.025 0.114-0.050 0.388-0.056 0.608l-0.009 0.4 0.317 0.009c0.387 0.011 0.364 0.036 0.391-0.408 0.028-0.453 0.067-0.513 0.34-0.513 0.271 0 0.286 0.023 0.317 0.48 0.032 0.476-0.013 0.431 0.438 0.431h0.373l-0.006-0.343c-0.004-0.189-0.022-0.398-0.041-0.464s-0.050-0.409-0.068-0.76c-0.018-0.352-0.054-0.748-0.080-0.88s-0.061-0.529-0.079-0.881c-0.018-0.352-0.046-0.683-0.063-0.736-0.039-0.122-0.094-0.75-0.097-1.104-0.001-0.149-0.016-0.344-0.032-0.432s-0.051-0.34-0.077-0.56-0.047-0.404-0.048-0.408c-0.004-0.021-0.959-0.005-0.972 0.016zM45.079 11.846c-0.026 0.129-0.026 6.374-0.001 6.441 0.017 0.044 0.103 0.051 0.638 0.051 0.817 0 0.783 0.016 0.783-0.368 0-0.353-0.014-0.368-0.336-0.368-0.331 0-0.304 0.258-0.304-2.93 0-1.717-0.012-2.793-0.031-2.844-0.031-0.081-0.035-0.082-0.38-0.082h-0.349l-0.020 0.1zM18.255 12.56l0.085 0.079v4.806l-0.078 0.078c-0.090 0.090-0.256 0.105-0.355 0.033s-0.114-4.911-0.015-5.010c0.091-0.091 0.258-0.085 0.364 0.014zM38.347 12.579c0.085 0.105 0.073 4.86-0.012 4.945-0.079 0.079-0.322 0.098-0.39 0.031-0.085-0.085-0.083-4.925 0.002-5.018 0.077-0.085 0.317-0.060 0.399 0.042zM43.519 14.985c0.060 0.648 0.063 1.62 0.004 1.657-0.091 0.058-0.251 0.037-0.292-0.039-0.068-0.127-0.010-1.024 0.1-1.561 0.052-0.255 0.095-0.468 0.095-0.474s0.013-0.002 0.028 0.007c0.015 0.009 0.044 0.194 0.064 0.41z"></path>
<path fill="#fbfbfb" d="M0.003 16.002v16h60.96v-32h-60.96v16zM26.288 3.552c0.055 0.034 0.183 0.147 0.284 0.251l0.184 0.189v0.948c0 1.12 0.055 1.014-0.522 1.014-0.522 0-0.483 0.061-0.497-0.789l-0.011-0.683h-0.089c-0.132 0-0.128-0.081-0.128 2.483v2.381h0.218l0.014-0.68c0.017-0.871-0.033-0.792 0.502-0.792 0.568 0 0.515-0.106 0.515 1.019v0.942l-0.514 0.503h-1.295l-0.208-0.202c-0.114-0.111-0.233-0.237-0.264-0.279-0.052-0.071-0.056-0.263-0.056-2.943 0-3.207-0.025-2.869 0.235-3.146 0.266-0.283 0.247-0.278 0.928-0.278 0.545 0 0.616 0.006 0.706 0.063zM28.663 3.514c0.082 0.055 0.109 0.179 0.109 0.513 0 0.419-0.009 0.431-0.325 0.449-0.324 0.018-0.315-0.007-0.315 0.906 0 0.863-0.026 0.795 0.315 0.823 0.309 0.025 0.325 0.050 0.324 0.516-0.001 0.442-0.014 0.46-0.349 0.475-0.314 0.014-0.289-0.085-0.289 1.109 0 1.109-0.022 1.029 0.291 1.045 0.342 0.017 0.348 0.025 0.348 0.449 0 0.334-0.026 0.459-0.109 0.514-0.048 0.032-1.401 0.030-1.452-0.002-0.096-0.061-0.103-0.297-0.103-3.403 0-3.209 0.003-3.29 0.119-3.378 0.059-0.045 1.371-0.059 1.436-0.016zM29.95 3.57c0.086 0.073 0.097 0.104 0.118 0.34 0.013 0.143 0.049 0.32 0.080 0.392s0.067 0.254 0.079 0.404c0.012 0.15 0.041 0.317 0.066 0.371s0.059 0.227 0.077 0.384c0.018 0.157 0.036 0.3 0.040 0.317s0.015-0.466 0.024-1.075c0.021-1.325-0.021-1.213 0.45-1.213h0.345l0.083 0.098 0.083 0.098v3.196c0 3.177-0.004 3.295-0.112 3.403-0.068 0.068-0.725 0.079-0.776 0.013-0.069-0.089-0.197-0.599-0.211-0.843-0.009-0.154-0.037-0.302-0.070-0.365s-0.061-0.209-0.069-0.365c-0.020-0.351-0.036-0.423-0.085-0.374-0.027 0.027-0.043 0.304-0.054 0.945-0.020 1.118 0.015 1.042-0.483 1.042-0.272 0-0.355-0.011-0.395-0.051-0.075-0.075-0.061-6.718 0.014-6.766 0.115-0.073 0.692-0.037 0.794 0.049zM33.574 3.572c0.070 0.075 0.079 0.114 0.088 0.425 0.013 0.401-0.015 0.449-0.273 0.477-0.291 0.031-0.265-0.255-0.265 2.939 0 3.309 0.065 2.925-0.496 2.925-0.558 0-0.495 0.37-0.496-2.927-0-3.142 0.013-2.929-0.181-2.929-0.261 0-0.266-0.009-0.266-0.479 0-0.561-0.089-0.513 0.957-0.513h0.856l0.078 0.082zM35.575 3.514c0.082 0.055 0.109 0.179 0.109 0.513 0 0.434 0.002 0.433-0.413 0.454l-0.307 0.016-0.017 1.672 0.121 0.020c0.066 0.011 0.207 0.020 0.313 0.021 0.289 0.001 0.286-0.002 0.298 0.473 0.013 0.505 0.024 0.491-0.412 0.512l-0.319 0.015v2.127l0.319 0.015c0.433 0.021 0.425 0.010 0.412 0.49-0.007 0.27-0.024 0.405-0.054 0.442-0.065 0.078-1.54 0.080-1.618 0.003s-0.077-6.671 0-6.747c0.054-0.054 1.492-0.077 1.569-0.026zM37.915 3.554c0.030 0.035 0.067 0.064 0.083 0.064s0.113 0.090 0.217 0.2l0.188 0.2-0 1.168c-0 0.965-0.008 1.182-0.047 1.248-0.161 0.276-0.161 0.411-0.001 0.543 0.042 0.035 0.049 0.247 0.049 1.622v1.582l-0.079 0.079c-0.102 0.102-0.802 0.122-0.898 0.026-0.104-0.104-0.112-0.222-0.112-1.647v-1.44l-0.24 0.020-0.016 1.529c-0.014 1.313-0.023 1.533-0.064 1.559-0.102 0.065-0.858 0.038-0.895-0.031-0.059-0.111-0.029-6.716 0.031-6.754 0.107-0.068 1.723-0.038 1.784 0.033zM41.219 3.554c0.057 0.057 0.064 0.107 0.064 0.444 0 0.456-0.002 0.458-0.347 0.483l-0.245 0.017v1.696l0.265 0.016c0.33 0.020 0.326 0.013 0.326 0.5 0.001 0.464 0.004 0.459-0.35 0.483l-0.257 0.018v2.97l-0.079 0.079c-0.113 0.113-0.801 0.121-0.901 0.011-0.098-0.108-0.111-6.518-0.014-6.677l0.064-0.104h0.705c0.662 0 0.708 0.004 0.768 0.064zM43.439 3.565c0.061 0.041 0.184 0.15 0.273 0.242l0.163 0.167v2.923c0 2.918-0.003 3.025-0.080 3.025-0.022 0-0.049 0.030-0.058 0.066s-0.047 0.074-0.084 0.084c-0.037 0.009-0.066 0.035-0.066 0.056 0 0.208-1.382 0.328-1.589 0.138-0.13-0.12-0.292-0.29-0.378-0.397l-0.081-0.101 0.001-5.687 0.091-0.135c0.050-0.074 0.176-0.207 0.279-0.296l0.188-0.161 0.615-0c0.593-0 0.619 0.002 0.725 0.075zM46.114 3.546c0.042 0.031 0.167 0.148 0.28 0.261l0.204 0.205-0.009 1.23c-0.008 1.138-0.013 1.233-0.066 1.272-0.116 0.085-0.123 0.224-0.019 0.38l0.094 0.142-0.009 1.606c-0.011 1.899 0.052 1.697-0.523 1.697-0.531 0-0.476 0.181-0.487-1.621l-0.010-1.515h-0.282l-0.009 1.496c-0.007 1.146-0.019 1.513-0.051 1.568-0.063 0.111-0.84 0.111-0.917 0.001-0.088-0.126-0.074-6.624 0.014-6.713 0.092-0.093 1.667-0.1 1.791-0.008zM37.093 4.544c-0.020 0.038-0.033 0.366-0.033 0.844v0.782l0.091 0.013c0.050 0.007 0.108 0.008 0.128 0.001 0.040-0.013 0.055-1.489 0.017-1.631-0.024-0.091-0.156-0.098-0.203-0.010zM42.648 4.531c-0.011 0.029-0.020 1.124-0.020 2.434v2.381h0.256l-0.008-2.424-0.008-2.424-0.1-0.010c-0.069-0.007-0.106 0.006-0.12 0.043zM45.322 4.52c-0.028 0.028-0.038 0.26-0.038 0.844v0.806l0.072 0.012c0.040 0.007 0.104 0.007 0.144 0.002l0.072-0.011v-0.807c0-0.848-0.006-0.884-0.144-0.884-0.037 0-0.085 0.017-0.106 0.038zM16.312 11.891l0.236 0.241v0.921c0 1.125 0.034 1.041-0.431 1.056-0.6 0.019-0.593 0.030-0.593-0.841v-0.626h-0.288v4.761l0.088 0.017c0.195 0.037 0.2 0.019 0.2-0.664v-0.621l0.084-0.066c0.096-0.076 0.593-0.095 0.82-0.033l0.12 0.033v1.872l-0.171 0.185c-0.291 0.315-0.267 0.308-0.971 0.308-0.714 0-0.71 0.001-0.976-0.258l-0.203-0.198v-5.882l0.456-0.445h1.392l0.236 0.241zM18.969 11.855c0.112 0.113 0.203 0.227 0.203 0.254s0.014 0.058 0.032 0.069c0.051 0.031 0.042 5.6-0.008 5.745-0.022 0.062-0.124 0.199-0.228 0.304l-0.189 0.191h-1.423l-0.408-0.413v-5.928l0.416-0.425 1.402-0.001 0.203 0.205zM20.498 11.721c0.027 0.039 0.050 0.11 0.050 0.158s0.013 0.095 0.028 0.104c0.035 0.021 0.064 0.173 0.1 0.513 0.015 0.142 0.048 0.301 0.074 0.354s0.057 0.222 0.069 0.376c0.021 0.267 0.050 0.34 0.093 0.229 0.011-0.028 0.020-0.416 0.020-0.863 0-1.004-0.032-0.943 0.488-0.943 0.191 0 0.376 0.015 0.41 0.033 0.061 0.032 0.062 0.103 0.062 3.339 0 3.881 0.066 3.423-0.493 3.407-0.463-0.014-0.464-0.015-0.506-0.416-0.017-0.165-0.043-0.314-0.057-0.331-0.034-0.044-0.058-0.173-0.096-0.516-0.018-0.16-0.052-0.34-0.077-0.4s-0.055-0.243-0.068-0.408c-0.045-0.584-0.079-0.211-0.079 0.881-0 0.951-0.007 1.1-0.051 1.144-0.084 0.084-0.714 0.072-0.826-0.016l-0.085-0.067 0.009-3.28c0.008-3.205 0.010-3.281 0.071-3.325 0.114-0.084 0.802-0.063 0.864 0.026zM24.163 11.714c0.035 0.035 0.073 0.064 0.083 0.064 0.029 0 0.205 0.193 0.29 0.317 0.073 0.107 0.075 0.122 0.075 0.929 0 1.042 0.043 0.963-0.522 0.962-0.582-0.001-0.566 0.023-0.566-0.807v-0.536h-0.256v1.241l0.093 0.099c0.051 0.055 0.107 0.099 0.124 0.099s0.051 0.024 0.075 0.053c0.024 0.029 0.091 0.073 0.148 0.096s0.104 0.056 0.104 0.071c0 0.015 0.085 0.081 0.189 0.146s0.214 0.146 0.245 0.18 0.071 0.062 0.089 0.062c0.018 0 0.088 0.059 0.155 0.131l0.122 0.131v1.455c0 1.639 0.017 1.524-0.262 1.792-0.247 0.238-0.237 0.236-0.918 0.236-0.705 0-0.713-0.002-0.962-0.254-0.238-0.241-0.234-0.211-0.22-1.573 0.012-1.267-0.041-1.149 0.525-1.149 0.54 0 0.493-0.098 0.493 1.034v0.911l0.078 0.020c0.043 0.011 0.116 0.002 0.162-0.018l0.084-0.038-0.010-0.888-0.010-0.888-0.11-0.114c-0.061-0.063-0.127-0.114-0.146-0.114s-0.070-0.036-0.111-0.080c-0.041-0.044-0.094-0.080-0.116-0.080s-0.057-0.029-0.076-0.064c-0.019-0.035-0.050-0.064-0.069-0.064-0.043 0-0.354-0.223-0.389-0.279-0.014-0.023-0.044-0.041-0.066-0.041s-0.083-0.044-0.134-0.098l-0.094-0.098-0.010-1.142c-0.012-1.335-0.018-1.299 0.263-1.569l0.206-0.197h0.691c0.648 0 0.695 0.004 0.755 0.064zM26.805 11.695c0.055 0.040 0.062 0.087 0.062 0.413 0 0.436-0.033 0.502-0.253 0.503-0.072 0-0.149 0.012-0.17 0.025-0.030 0.019-0.041 0.664-0.048 2.845l-0.009 2.82-0.080 0.069c-0.115 0.1-0.864 0.087-0.942-0.016-0.042-0.056-0.048-0.421-0.049-2.885-0.001-3.135 0.020-2.858-0.22-2.86-0.214-0.002-0.229-0.035-0.229-0.489 0-0.35 0.007-0.407 0.056-0.436 0.094-0.055 1.805-0.045 1.882 0.011zM28.124 11.7l0.071 0.050v6.552l-0.084 0.066c-0.111 0.087-0.782 0.1-0.901 0.016l-0.071-0.050v-3.309c0-3.117 0.003-3.31 0.056-3.341 0.096-0.056 0.845-0.043 0.929 0.015zM30.396 11.7c0.066 0.046 0.071 0.075 0.071 0.396 0 0.441-0.033 0.495-0.319 0.528l-0.193 0.022v2.836c0 3.342 0.068 2.953-0.515 2.953-0.574 0-0.509 0.38-0.509-2.963v-2.821l-0.184-0.023c-0.101-0.013-0.202-0.038-0.224-0.056-0.055-0.045-0.056-0.828-0.002-0.883 0.064-0.064 1.782-0.053 1.874 0.011zM31.711 11.693c0.026 0.031 0.038 0.851 0.044 2.888l0.008 2.845h0.192l0.008-2.845c0.006-2.037 0.018-2.857 0.044-2.888 0.048-0.058 0.86-0.062 0.917-0.005 0.029 0.029 0.038 0.78 0.038 3.183v3.145l-0.079 0.052c-0.043 0.028-0.087 0.079-0.098 0.113s-0.036 0.061-0.056 0.061c-0.020 0-0.068 0.040-0.107 0.088l-0.070 0.088-0.587 0.010c-0.759 0.013-0.752 0.015-1.004-0.236l-0.208-0.207v-3.13c0-2.391 0.009-3.139 0.038-3.168 0.057-0.057 0.87-0.053 0.917 0.005zM35.197 11.688c0.055 0.055 0.053 0.838-0.002 0.882-0.022 0.018-0.123 0.042-0.224 0.054l-0.184 0.022v2.826c0 2.644-0.004 2.831-0.056 2.895-0.092 0.113-0.867 0.088-0.927-0.030-0.032-0.063-0.041-0.69-0.041-2.886l-0-2.806-0.193-0.022c-0.138-0.016-0.202-0.038-0.224-0.079-0.046-0.086-0.039-0.808 0.008-0.856 0.055-0.055 1.788-0.055 1.843 0zM36.551 11.703c0.063 0.076 0.081 6.513 0.019 6.635-0.053 0.104-0.836 0.143-0.932 0.047-0.067-0.067-0.080-6.629-0.013-6.696 0.065-0.065 0.87-0.052 0.926 0.015zM38.859 11.714c0.022 0.035 0.058 0.064 0.081 0.064s0.057 0.036 0.077 0.080c0.020 0.044 0.053 0.080 0.074 0.080s0.076 0.059 0.123 0.131l0.086 0.131v5.714l-0.072 0.092c-0.092 0.118-0.287 0.311-0.381 0.377-0.086 0.061-1.269 0.076-1.421 0.019-0.091-0.035-0.37-0.303-0.428-0.411-0.024-0.044-0.034-0.964-0.034-2.968v-2.904l0.469-0.469h0.693c0.659 0 0.695 0.003 0.733 0.064zM40.589 11.789c0.042 0.081 0.073 0.227 0.089 0.422 0.014 0.164 0.047 0.341 0.075 0.394s0.065 0.237 0.084 0.41c0.026 0.241 0.048 0.326 0.094 0.362 0.033 0.026 0.066 0.091 0.073 0.144s0.016-0.324 0.018-0.838c0.004-0.802 0.012-0.941 0.055-0.984 0.064-0.064 0.745-0.074 0.807-0.012 0.066 0.066 0.054 6.629-0.012 6.695-0.039 0.039-0.124 0.050-0.394 0.050-0.474 0-0.506-0.031-0.564-0.552-0.022-0.198-0.063-0.417-0.091-0.488s-0.051-0.202-0.052-0.292c-0.003-0.294-0.036-0.454-0.099-0.47-0.037-0.010-0.063-0.053-0.071-0.123-0.007-0.059-0.015 0.318-0.018 0.837-0.006 1.174 0.031 1.087-0.47 1.087-0.328 0-0.368-0.006-0.398-0.062-0.052-0.096-0.046-6.633 0.006-6.685 0.028-0.028 0.151-0.037 0.421-0.030l0.382 0.009 0.064 0.124zM44.050 11.743c0.068 0.132 0.107 0.45 0.129 1.072 0.011 0.297 0.040 0.62 0.065 0.717s0.061 0.472 0.079 0.835 0.047 0.717 0.063 0.787c0.051 0.223 0.063 0.337 0.097 0.984 0.018 0.348 0.049 0.672 0.068 0.72 0.055 0.139 0.11 1.399 0.066 1.496-0.039 0.085-0.78 0.126-0.9 0.050-0.047-0.030-0.090-0.276-0.096-0.562-0.009-0.397-0.386-0.469-0.386-0.074 0 0.149-0.101 0.547-0.154 0.61-0.147 0.173-0.909 0.042-0.856-0.147 0.011-0.038 0.035-0.364 0.053-0.725s0.055-0.748 0.080-0.861 0.061-0.494 0.078-0.848c0.018-0.354 0.052-0.722 0.077-0.819s0.060-0.48 0.078-0.852c0.019-0.372 0.050-0.717 0.070-0.768s0.049-0.366 0.064-0.7c0.050-1.068 0.006-1.008 0.735-1.008h0.541l0.048 0.093zM45.923 11.681c0.042 0.027 0.050 0.394 0.064 2.888l0.016 2.857 0.251 0.016c0.334 0.021 0.341 0.032 0.341 0.516 0 0.513 0.061 0.476-0.808 0.476-0.682 0-0.71-0.002-0.782-0.070l-0.074-0.070v-3.264c0-2.992 0.004-3.269 0.053-3.322 0.059-0.066 0.842-0.088 0.939-0.027zM17.963 12.647c-0.031 0.031-0.040 0.558-0.040 2.381 0 2.532-0.007 2.432 0.166 2.408l0.074-0.010v-4.8l-0.080-0.009c-0.044-0.005-0.098 0.009-0.12 0.030zM37.978 12.662c-0.013 0.012-0.023 1.079-0.023 2.37v2.347l0.076 0.035c0.055 0.025 0.095 0.025 0.144-0.002l0.068-0.036-0.008-2.359-0.008-2.359-0.113-0.010c-0.062-0.005-0.123 0.001-0.136 0.013zM43.417 15.906c-0.013 0.079-0.046 0.212-0.073 0.295-0.067 0.205-0.051 0.297 0.051 0.297 0.096 0 0.116-0.14 0.072-0.512l-0.026-0.224-0.024 0.144zM46.274 19.199c0.059 0.039 0.166 0.052 0.437 0.053 0.272 0.002 0.377 0.015 0.437 0.054 0.043 0.028 0.134 0.061 0.203 0.074s0.18 0.049 0.248 0.081c0.068 0.032 0.188 0.068 0.268 0.080 0.208 0.031 0.364 0.174 0.359 0.329-0.002 0.064 0.014 0.181 0.035 0.26 0.027 0.101 0.034 0.357 0.024 0.848-0.020 0.968 0.042 1.626 0.185 1.957 0.024 0.055 0.059 0.192 0.078 0.304s0.057 0.279 0.085 0.372c0.030 0.102 0.043 0.217 0.031 0.288-0.024 0.147-0.025 0.125 0.013 0.471 0.045 0.417 0.042 0.562-0.018 0.722-0.029 0.078-0.063 0.21-0.076 0.294-0.015 0.097-0.053 0.184-0.106 0.24-0.046 0.048-0.088 0.131-0.094 0.184-0.009 0.079-0.032 0.103-0.129 0.135-0.065 0.021-0.148 0.068-0.184 0.104-0.052 0.052-0.107 0.065-0.265 0.066-0.125 0-0.249 0.023-0.331 0.060-0.198 0.090-1.003 0.128-1.080 0.051-0.051-0.051-0.051-0.061 0.010-0.159 0.063-0.101 0.065-0.155 0.065-1.514 0-1.501-0.006-1.566-0.16-1.621-0.027-0.009-0.185-0.117-0.352-0.24s-0.352-0.256-0.411-0.297c-0.059-0.041-0.163-0.122-0.232-0.181l-0.125-0.108v-0.715c0-0.802-0.006-0.781 0.24-0.781 0.242 0 0.24-0.007 0.24 0.671 0 0.767-0.032 0.705 0.358 0.705 0.48 0 0.442 0.070 0.442-0.836 0-0.886-0.004-0.902-0.268-1.133l-0.163-0.143h-1.231l-0.402 0.378v1.208c0 1.15 0.003 1.209 0.060 1.243 0.033 0.020 0.094 0.064 0.135 0.1s0.127 0.1 0.191 0.144c0.064 0.044 0.163 0.12 0.221 0.168s0.116 0.088 0.129 0.088c0.013 0 0.068 0.036 0.124 0.080s0.129 0.101 0.165 0.127c0.035 0.026 0.104 0.078 0.152 0.115l0.088 0.067-0.001 0.998c-0 1.11 0.005 1.080-0.216 1.102-0.298 0.029-0.295 0.039-0.295-1.049v-0.929l-0.752 0.018-0.009 1.128c-0.009 1.241-0.018 1.176 0.193 1.387 0.14 0.14 0.114 0.254-0.072 0.318-0.079 0.027-0.176 0.067-0.215 0.088s-0.226 0.054-0.416 0.072c-0.19 0.018-0.388 0.048-0.441 0.066-0.185 0.063-0.684 0.096-1.904 0.124-1.14 0.026-1.259 0.034-1.595 0.109-0.417 0.093-0.867 0.137-1.685 0.164-0.344 0.012-0.705 0.044-0.896 0.079-0.288 0.054-0.545 0.061-2.562 0.074-1.639 0.010-2.261 0.024-2.313 0.052-0.039 0.021-0.242 0.058-0.453 0.083s-0.444 0.066-0.519 0.091c-0.088 0.030-0.354 0.054-0.745 0.068-0.334 0.012-0.867 0.041-1.184 0.066-0.419 0.032-0.681 0.036-0.96 0.015-0.732-0.057-1.025-0.043-1.329 0.063-0.32 0.111-0.859 0.145-2.829 0.179-0.861 0.015-1.195 0.031-1.328 0.067-0.098 0.026-0.451 0.068-0.785 0.093s-0.673 0.060-0.752 0.077c-0.24 0.053-0.763 0.042-0.935-0.019-0.141-0.051-0.181-0.051-0.624-0.001-0.26 0.029-0.625 0.062-0.809 0.073s-0.458 0.041-0.608 0.066c-0.15 0.025-0.697 0.059-1.216 0.076s-0.994 0.045-1.056 0.063c-0.137 0.041-0.8 0.042-1.104 0.002-0.123-0.016-0.548-0.039-0.944-0.050-0.639-0.018-0.73-0.028-0.808-0.082-0.048-0.034-0.132-0.070-0.186-0.081-0.117-0.024-0.246-0.18-0.274-0.334-0.011-0.060-0.082-0.203-0.156-0.317-0.125-0.19-0.138-0.23-0.153-0.464-0.012-0.191-0.038-0.297-0.1-0.416-0.079-0.152-0.084-0.189-0.093-0.72-0.006-0.338-0.024-0.587-0.046-0.627-0.020-0.037-0.052-0.195-0.072-0.352s-0.051-0.328-0.071-0.381c-0.052-0.142-0.094-1.242-0.080-2.064l0.012-0.72 0.101-0.149c0.124-0.181 0.135-0.186 0.533-0.219 0.67-0.055 1.315-0.136 1.38-0.171 0.391-0.214 0.345-0.203 0.924-0.226 0.376-0.015 0.628-0.042 0.816-0.088 0.236-0.057 0.342-0.064 0.806-0.051l0.534 0.015 0.019-0.087c0.050-0.228 0.557-0.323 1.105-0.207 0.255 0.054 0.653 0.065 1.057 0.030 0.155-0.014 0.306-0.008 0.404 0.016 0.11 0.026 0.198 0.028 0.298 0.006 0.089-0.020 0.155-0.021 0.178-0.002 0.164 0.136 0.573 0.185 1.052 0.127 0.142-0.017 0.467-0.044 0.722-0.058 0.326-0.019 0.488-0.042 0.544-0.077 0.111-0.070 0.319-0.095 0.449-0.054 0.216 0.068 0.352 0.084 0.486 0.056 0.075-0.015 0.375-0.049 0.668-0.075s0.624-0.068 0.736-0.093c0.112-0.025 0.348-0.055 0.524-0.067s0.434-0.049 0.573-0.082c0.139-0.033 0.434-0.069 0.656-0.080s0.569-0.041 0.771-0.066c0.202-0.025 0.721-0.061 1.152-0.078 0.583-0.024 0.821-0.046 0.928-0.085 0.158-0.058 2.772-0.115 2.888-0.064 0.053 0.024 0.056 0.206 0.056 3.174 0 3.659-0.054 3.249 0.428 3.249 0.446 0 0.404 0.16 0.404-1.54 0-1.671-0.015-1.583 0.261-1.556 0.269 0.026 0.251-0.085 0.251 1.546 0 0.797 0.009 1.472 0.020 1.5 0.033 0.085 0.67 0.074 0.716-0.013 0.023-0.043 0.031-0.558 0.025-1.595l-0.009-1.531-0.088-0.115c-0.048-0.063-0.088-0.141-0.088-0.172s0.039-0.114 0.088-0.183l0.088-0.127v-2.383l-0.152-0.148c-0.3-0.291-0.216-0.377 0.407-0.417 0.175-0.011 0.393-0.042 0.483-0.068s0.407-0.069 0.705-0.096c0.298-0.026 0.628-0.061 0.733-0.076s0.977-0.030 1.936-0.031c2.166-0.003 5.116-0.059 5.324-0.101 0.086-0.017 0.417-0.046 0.736-0.065 0.556-0.032 0.768-0.057 1.012-0.117 0.134-0.033 0.244-0.016 0.351 0.053zM35.402 19.912c-0.041 0.041-0.059 6.366-0.019 6.471 0.031 0.080 0.654 0.074 0.728-0.008 0.084-0.093 0.081-6.393-0.003-6.457-0.074-0.056-0.651-0.061-0.706-0.006zM37.145 19.91c-0.152 0.089-0.372 0.366-0.39 0.492-0.052 0.367 0 5.621 0.057 5.662 0.031 0.023 0.056 0.052 0.056 0.065 0 0.030 0.163 0.183 0.269 0.252 0.068 0.044 0.176 0.053 0.667 0.053 0.655 0 0.637 0.005 0.88-0.247l0.136-0.141v-1.404c0-0.772-0.009-1.426-0.019-1.454-0.016-0.042-0.084-0.051-0.417-0.051h-0.397l-0.034 0.088c-0.055 0.141-0.021 0.632 0.049 0.709 0.065 0.071 0.090 1.64 0.028 1.703s-0.345 0.071-0.403 0.014c-0.083-0.083-0.083-4.912 0-4.995 0.051-0.051 0.308-0.052 0.39-0.001 0.015 0.009 0.034 0.328 0.043 0.709 0.019 0.804-0.010 0.748 0.383 0.749 0.418 0.001 0.379 0.101 0.379-0.948v-0.91l-0.386-0.382-0.615 0.001c-0.374 0.001-0.638 0.014-0.673 0.035zM39.481 19.895c-0.027 0.027-0.029 6.419-0.002 6.488 0.030 0.079 0.644 0.074 0.704-0.005 0.034-0.045 0.043-0.347 0.043-1.482 0.001-1.648-0.017-1.55 0.285-1.55 0.283 0 0.264-0.108 0.261 1.52-0.002 1.314 0.002 1.455 0.051 1.509 0.082 0.091 0.666 0.088 0.715-0.003 0.051-0.095 0.046-6.409-0.005-6.46-0.047-0.047-0.626-0.052-0.698-0.007-0.041 0.026-0.049 0.206-0.055 1.255-0.004 0.674-0.014 1.255-0.023 1.292-0.039 0.161-0.324 0.189-0.447 0.043l-0.083-0.098v-1.223c0-0.909-0.010-1.233-0.038-1.262-0.041-0.041-0.669-0.056-0.708-0.017zM42.171 19.908c-0.047 0.028-0.056 0.081-0.056 0.348 0 0.345 0.005 0.354 0.204 0.354 0.056 0 0.134 0.022 0.173 0.050l0.071 0.050v2.809c0 3.282-0.055 2.915 0.439 2.915 0.307 0 0.323-0.003 0.341-0.072 0.011-0.040 0.020-1.325 0.020-2.856 0.001-3.011-0.009-2.862 0.195-2.884 0.306-0.034 0.285-0.007 0.285-0.358 0-0.201-0.014-0.327-0.038-0.351-0.049-0.049-1.549-0.053-1.634-0.004zM33.937 20.675c0.063 0.063 0.046 1.777-0.018 1.842-0.107 0.107-0.335 0.099-0.392-0.013-0.077-0.149-0.076-1.716 0.002-1.826 0.056-0.080 0.329-0.082 0.409-0.002z"></path>
<path fill="#9a9a9a" d="M24.876 3.563c-0.104 0.077-0.305 0.281-0.401 0.409-0.052 0.069-0.056 0.261-0.056 2.941s0.004 2.872 0.056 2.943c0.031 0.042 0.149 0.167 0.264 0.279l0.208 0.202h1.295l0.514-0.503v-0.942c0-1.125 0.053-1.019-0.515-1.019-0.534 0-0.485-0.079-0.502 0.792l-0.014 0.68h-0.218v-2.381c0-2.564-0.004-2.483 0.128-2.483h0.089l0.011 0.683c0.014 0.85-0.025 0.789 0.497 0.789 0.577 0 0.522 0.106 0.522-1.014v-0.948l-0.184-0.189c-0.311-0.319-0.293-0.313-0.99-0.313-0.582 0-0.61 0.003-0.706 0.074zM27.227 3.53c-0.117 0.089-0.119 0.169-0.119 3.378 0 3.106 0.007 3.342 0.103 3.403 0.051 0.032 1.404 0.034 1.452 0.002 0.082-0.055 0.109-0.179 0.109-0.514 0-0.424-0.006-0.432-0.348-0.449-0.313-0.016-0.291 0.064-0.291-1.045 0-1.193-0.026-1.095 0.289-1.109 0.335-0.015 0.348-0.033 0.349-0.475 0.001-0.466-0.015-0.491-0.324-0.516-0.34-0.028-0.315 0.040-0.315-0.823 0-0.913-0.009-0.888 0.315-0.906 0.316-0.018 0.325-0.030 0.325-0.449 0-0.334-0.026-0.458-0.109-0.513-0.064-0.043-1.377-0.029-1.436 0.016zM29.155 3.521c-0.075 0.048-0.089 6.691-0.014 6.766 0.040 0.040 0.123 0.051 0.395 0.051 0.498 0 0.463 0.076 0.483-1.042 0.011-0.642 0.027-0.918 0.054-0.945 0.049-0.049 0.065 0.023 0.085 0.374 0.009 0.156 0.036 0.301 0.069 0.365s0.061 0.211 0.070 0.365c0.014 0.244 0.142 0.754 0.211 0.843 0.051 0.066 0.708 0.055 0.776-0.013 0.108-0.108 0.112-0.226 0.112-3.403v-3.196l-0.083-0.098-0.083-0.098h-0.345c-0.471 0-0.43-0.112-0.45 1.213-0.009 0.609-0.020 1.093-0.024 1.075s-0.022-0.16-0.040-0.317c-0.018-0.157-0.053-0.33-0.077-0.384s-0.054-0.221-0.066-0.371c-0.012-0.149-0.047-0.331-0.079-0.404s-0.068-0.249-0.080-0.392c-0.033-0.375-0.092-0.42-0.539-0.42-0.179 0-0.347 0.014-0.374 0.031zM31.734 3.54c-0.041 0.041-0.050 0.13-0.050 0.463 0 0.47 0.005 0.479 0.266 0.479 0.194 0 0.181-0.213 0.182 2.929 0 3.298-0.062 2.927 0.496 2.927 0.562 0 0.496 0.384 0.496-2.925 0-3.194-0.026-2.908 0.265-2.939 0.258-0.027 0.286-0.075 0.273-0.477-0.010-0.31-0.018-0.35-0.088-0.425l-0.078-0.082h-0.856c-0.736 0-0.863 0.007-0.906 0.050zM34.006 3.54c-0.077 0.077-0.077 6.671 0 6.748s1.553 0.075 1.618-0.003c0.030-0.037 0.047-0.172 0.054-0.442 0.013-0.48 0.022-0.47-0.412-0.49l-0.319-0.015v-2.127l0.319-0.015c0.435-0.021 0.424-0.007 0.412-0.512-0.012-0.475-0.010-0.472-0.298-0.473-0.106-0-0.246-0.010-0.313-0.021l-0.121-0.020 0.017-1.672 0.307-0.016c0.415-0.021 0.413-0.020 0.413-0.454 0-0.334-0.026-0.458-0.109-0.513-0.077-0.052-1.515-0.028-1.569 0.026zM36.131 3.521c-0.060 0.038-0.091 6.643-0.031 6.754 0.037 0.069 0.793 0.096 0.895 0.031 0.041-0.026 0.050-0.247 0.064-1.559l0.016-1.529 0.24-0.020v1.44c0 1.425 0.008 1.543 0.112 1.647 0.096 0.096 0.796 0.076 0.898-0.026l0.079-0.079v-1.582c0-1.375-0.006-1.587-0.049-1.622-0.16-0.133-0.16-0.268 0.001-0.543 0.039-0.066 0.047-0.283 0.047-1.248l0-1.168-0.188-0.2c-0.104-0.11-0.201-0.2-0.217-0.2s-0.053-0.029-0.083-0.064c-0.061-0.071-1.676-0.1-1.784-0.033zM39.683 3.594c-0.097 0.159-0.084 6.568 0.014 6.677 0.1 0.11 0.788 0.101 0.901-0.011l0.079-0.079v-2.97l0.257-0.018c0.355-0.024 0.351-0.019 0.35-0.483-0.001-0.487 0.004-0.48-0.326-0.5l-0.265-0.016v-1.696l0.245-0.017c0.345-0.025 0.347-0.027 0.347-0.482 0-0.54 0.053-0.508-0.832-0.508h-0.705l-0.064 0.104zM41.911 3.651c-0.103 0.089-0.229 0.222-0.279 0.296l-0.091 0.135-0.001 5.687 0.081 0.101c0.086 0.106 0.248 0.276 0.378 0.397 0.207 0.191 1.589 0.071 1.589-0.138 0-0.021 0.030-0.046 0.066-0.056s0.074-0.047 0.084-0.084c0.010-0.036 0.036-0.066 0.058-0.066 0.077 0 0.080-0.107 0.080-3.025v-2.923l-0.163-0.167c-0.314-0.323-0.297-0.317-0.999-0.317l-0.615 0-0.188 0.161zM44.323 3.554c-0.089 0.089-0.102 6.587-0.014 6.713 0.077 0.111 0.854 0.11 0.917-0.001 0.032-0.055 0.043-0.422 0.051-1.568l0.009-1.496h0.282l0.010 1.515c0.011 1.802-0.043 1.621 0.487 1.621 0.575 0 0.513 0.203 0.523-1.697l0.009-1.606-0.094-0.142c-0.104-0.156-0.097-0.295 0.019-0.38 0.053-0.039 0.058-0.134 0.066-1.272l0.009-1.23-0.204-0.205c-0.342-0.344-0.242-0.317-1.181-0.317-0.783 0-0.829 0.003-0.889 0.064zM26.231 3.605c0.208 0.087 0.453 0.381 0.477 0.573 0.039 0.307 0.003 1.633-0.045 1.691-0.051 0.061-0.639 0.077-0.786 0.022l-0.082-0.031v-0.682c0-0.73-0.006-0.759-0.16-0.759-0.222 0-0.207-0.18-0.216 2.504l-0.009 2.413 0.082 0.037c0.274 0.125 0.298 0.070 0.309-0.721 0.006-0.372 0.022-0.688 0.036-0.703s0.196-0.031 0.402-0.037c0.5-0.014 0.465-0.074 0.478 0.807 0.016 1.009 0.009 1.050-0.199 1.272-0.257 0.274-0.286 0.283-0.878 0.283-0.637 0-0.676-0.008-0.872-0.185-0.275-0.247-0.253 0.025-0.253-3.185v-2.861l0.094-0.13c0.11-0.152 0.281-0.29 0.408-0.328 0.174-0.052 1.077-0.038 1.214 0.019zM28.648 3.623c0.050 0.058 0.060 0.123 0.060 0.399 0 0.383-0.010 0.396-0.294 0.397-0.094 0-0.203 0.009-0.243 0.020l-0.073 0.019 0.009 0.884 0.009 0.884 0.248 0.009c0.319 0.012 0.344 0.050 0.344 0.516 0 0.376-0.009 0.387-0.315 0.387-0.321 0-0.293-0.108-0.293 1.136v1.097l0.072 0.019c0.040 0.011 0.159 0.020 0.266 0.020 0.26 0.001 0.27 0.016 0.27 0.4 0 0.489 0.039 0.465-0.739 0.465-0.637 0-0.64-0-0.718-0.079l-0.078-0.079v-3.195c0-3.376-0.006-3.249 0.144-3.331 0.136-0.074 1.264-0.047 1.332 0.032zM29.862 3.608c0.11 0.065 0.144 0.159 0.187 0.515 0.018 0.146 0.043 0.282 0.055 0.302 0.022 0.036 0.132 0.62 0.218 1.159 0.025 0.158 0.055 0.324 0.067 0.368l0.021 0.081 0.034-0.080c0.021-0.049 0.039-0.513 0.048-1.191 0.016-1.286-0.016-1.182 0.379-1.203 0.249-0.013 0.278-0.008 0.35 0.059l0.078 0.074v3.197c0 2.347-0.010 3.215-0.037 3.266-0.126 0.24-0.795 0.156-0.795-0.1 0-0.042-0.028-0.186-0.061-0.321s-0.071-0.339-0.083-0.453c-0.012-0.114-0.041-0.276-0.065-0.359s-0.061-0.297-0.083-0.475c-0.022-0.178-0.056-0.341-0.077-0.361-0.074-0.074-0.112-0.179-0.119-0.33-0.004-0.085-0.015 0.417-0.024 1.115-0.020 1.529 0.016 1.415-0.443 1.398-0.251-0.009-0.306-0.021-0.344-0.073-0.063-0.087-0.069-6.472-0.005-6.553 0.076-0.098 0.551-0.121 0.699-0.034zM33.491 3.604c0.055 0.042 0.065 0.093 0.075 0.389 0.013 0.382-0.008 0.424-0.207 0.424-0.057 0-0.141 0.014-0.186 0.031l-0.082 0.031v2.826c0 3.336 0.054 2.978-0.447 2.963-0.507-0.016-0.449 0.356-0.449-2.904 0-3.148 0.016-2.947-0.228-2.947-0.237 0-0.252-0.023-0.252-0.393 0.001-0.363 0.012-0.397 0.146-0.438 0.175-0.052 1.556-0.038 1.629 0.017zM35.481 3.588c0.129 0.049 0.138 0.076 0.138 0.437 0 0.391-0.002 0.393-0.374 0.394-0.36 0.001-0.332-0.078-0.323 0.93l0.009 0.878 0.301 0.019c0.385 0.024 0.387 0.027 0.387 0.481 0 0.408 0.017 0.39-0.384 0.412l-0.304 0.016v2.24l0.328 0.009c0.316 0.009 0.328 0.012 0.347 0.086 0.027 0.107 0.003 0.709-0.029 0.742-0.064 0.064-1.495 0.031-1.544-0.036-0.063-0.087-0.069-6.472-0.005-6.553 0.067-0.086 1.252-0.131 1.453-0.054zM37.909 3.629c0.413 0.261 0.43 0.323 0.43 1.635l0 1.022-0.113 0.231-0.113 0.231 0.209 0.309v3.094l-0.076 0.061c-0.063 0.051-0.128 0.061-0.386 0.061-0.48 0-0.432 0.17-0.451-1.588l-0.016-1.497-0.102-0.029c-0.056-0.016-0.139-0.020-0.184-0.009l-0.082 0.021-0 1.463c-0 1.119-0.010 1.482-0.041 1.543-0.056 0.111-0.762 0.126-0.841 0.018-0.063-0.087-0.069-6.472-0.005-6.553 0.085-0.11 1.599-0.121 1.77-0.013zM41.081 3.588c0.129 0.049 0.138 0.076 0.138 0.437 0.001 0.381-0.009 0.393-0.304 0.393-0.323 0-0.304-0.056-0.304 0.907 0 0.94-0.006 0.917 0.226 0.917 0.348 0 0.381 0.046 0.382 0.521 0.001 0.363-0.011 0.375-0.347 0.375-0.278 0-0.26-0.105-0.26 1.528v1.451l-0.079 0.079c-0.099 0.099-0.675 0.12-0.767 0.028-0.079-0.079-0.076-6.524 0.003-6.611 0.062-0.069 1.143-0.089 1.312-0.025zM43.37 3.6c0.061 0.025 0.192 0.135 0.292 0.244l0.182 0.198v5.737l-0.149 0.17c-0.271 0.31-0.313 0.325-0.919 0.325-0.656 0-0.684-0.006-0.874-0.187-0.295-0.281-0.269 0.049-0.259-3.2l0.009-2.876 0.128-0.141c0.271-0.299 0.297-0.307 0.98-0.312 0.369-0.002 0.529 0.009 0.61 0.043zM46.104 3.625c0.055 0.030 0.174 0.138 0.264 0.239l0.163 0.183v2.292l-0.096 0.18c-0.053 0.099-0.096 0.197-0.096 0.219s0.043 0.098 0.096 0.171l0.096 0.133v1.546c0 1.844 0.047 1.666-0.448 1.681-0.493 0.015-0.446 0.182-0.447-1.586-0.001-1.657 0.016-1.545-0.232-1.545-0.191 0-0.185-0.049-0.185 1.518-0.001 1.756 0.041 1.602-0.436 1.602-0.253 0-0.369-0.013-0.407-0.044-0.057-0.047-0.084-6.466-0.027-6.554 0.077-0.122 1.544-0.15 1.755-0.035zM37.066 4.458c-0.029 0.035-0.037 0.265-0.031 0.907l0.009 0.86 0.119 0.010c0.256 0.021 0.249 0.044 0.249-0.883-0-0.453-0.013-0.842-0.027-0.865-0.041-0.065-0.27-0.086-0.318-0.029zM42.598 4.474l-0.068 0.056 0.009 2.416 0.009 2.416 0.123 0.030c0.247 0.061 0.228 0.255 0.238-2.462 0.006-1.765-0.002-2.437-0.028-2.469-0.050-0.061-0.2-0.054-0.281 0.013zM45.275 4.451c-0.057 0.035-0.090 1.602-0.037 1.741 0.034 0.089 0.358 0.070 0.382-0.022 0.025-0.1 0.004-1.677-0.022-1.704-0.039-0.039-0.266-0.050-0.323-0.015zM37.295 4.554c0.038 0.142 0.023 1.618-0.017 1.631-0.020 0.007-0.078 0.006-0.128-0.001l-0.091-0.013v-0.782c0-0.478 0.013-0.806 0.033-0.844 0.047-0.088 0.178-0.081 0.203 0.010zM42.876 6.922l0.008 2.424h-0.256v-2.381c0-2.59-0.006-2.491 0.14-2.476l0.1 0.010 0.008 2.424zM45.533 4.52c0.028 0.028 0.038 0.261 0.038 0.846v0.807l-0.072 0.011c-0.040 0.006-0.104 0.005-0.144-0.002l-0.072-0.012v-0.806c0-0.846 0.006-0.883 0.144-0.883 0.037 0 0.084 0.017 0.106 0.038zM14.456 11.872l-0.228 0.222v5.882l0.203 0.198c0.265 0.26 0.262 0.259 0.976 0.258 0.704-0 0.68 0.007 0.971-0.308l0.171-0.185v-1.872l-0.12-0.033c-0.226-0.063-0.723-0.043-0.82 0.033l-0.084 0.066v0.621c0 0.683-0.005 0.701-0.2 0.664l-0.088-0.017v-4.761h0.288v0.626c0 0.872-0.008 0.861 0.593 0.841 0.466-0.015 0.431 0.069 0.431-1.056v-0.921l-0.472-0.482h-1.392l-0.228 0.223zM17.155 11.864l-0.208 0.213v5.928l0.408 0.413h1.423l0.189-0.191c0.104-0.105 0.206-0.242 0.228-0.304 0.051-0.145 0.059-5.713 0.008-5.745-0.018-0.011-0.032-0.042-0.032-0.069s-0.091-0.141-0.203-0.254l-0.203-0.205-1.402 0.001-0.208 0.213zM19.634 11.695c-0.061 0.044-0.062 0.121-0.071 3.325l-0.009 3.28 0.085 0.067c0.112 0.088 0.742 0.101 0.826 0.016 0.044-0.044 0.050-0.193 0.051-1.144 0.001-1.093 0.034-1.466 0.079-0.881 0.013 0.165 0.043 0.349 0.068 0.408s0.059 0.24 0.077 0.4c0.038 0.343 0.062 0.472 0.096 0.516 0.014 0.018 0.039 0.167 0.057 0.331 0.042 0.401 0.044 0.402 0.506 0.416 0.559 0.016 0.493 0.474 0.493-3.407 0-3.236-0.001-3.307-0.062-3.339-0.034-0.018-0.219-0.033-0.41-0.033-0.52 0-0.488-0.061-0.488 0.943 0 0.447-0.009 0.835-0.020 0.863-0.042 0.111-0.072 0.038-0.093-0.229-0.012-0.154-0.043-0.323-0.069-0.376s-0.059-0.212-0.074-0.354c-0.036-0.34-0.065-0.491-0.1-0.513-0.016-0.010-0.028-0.057-0.028-0.104 0-0.2-0.061-0.229-0.476-0.229-0.274 0-0.393 0.012-0.438 0.045zM22.512 11.847c-0.28 0.269-0.274 0.234-0.263 1.569l0.010 1.142 0.094 0.098c0.052 0.054 0.112 0.098 0.134 0.098s0.052 0.018 0.066 0.041c0.035 0.056 0.346 0.279 0.389 0.279 0.019 0 0.050 0.029 0.069 0.064s0.053 0.064 0.076 0.064 0.075 0.036 0.116 0.080c0.041 0.044 0.091 0.080 0.111 0.080s0.086 0.051 0.146 0.114l0.11 0.114 0.010 0.888 0.010 0.888-0.084 0.038c-0.046 0.021-0.119 0.029-0.162 0.018l-0.078-0.020v-0.911c0-1.132 0.047-1.034-0.493-1.034-0.566 0-0.513-0.118-0.525 1.149-0.014 1.362-0.018 1.332 0.22 1.573 0.249 0.252 0.257 0.254 0.962 0.254 0.681 0 0.671 0.002 0.918-0.236 0.278-0.269 0.262-0.153 0.262-1.792v-1.455l-0.122-0.131c-0.067-0.072-0.137-0.131-0.155-0.131s-0.058-0.028-0.089-0.062c-0.031-0.034-0.141-0.115-0.245-0.18s-0.189-0.131-0.189-0.146c0-0.015-0.047-0.047-0.104-0.071s-0.124-0.067-0.148-0.096c-0.024-0.029-0.058-0.053-0.075-0.053s-0.073-0.045-0.124-0.099l-0.093-0.099v-1.241h0.256v0.536c0 0.83-0.016 0.807 0.566 0.807 0.565 0.001 0.522 0.080 0.522-0.962 0-0.807-0.001-0.822-0.075-0.929-0.085-0.124-0.262-0.317-0.29-0.317-0.011 0-0.048-0.029-0.083-0.064-0.060-0.060-0.107-0.064-0.755-0.064h-0.691l-0.206 0.197zM24.923 11.684c-0.049 0.028-0.056 0.086-0.056 0.436 0 0.454 0.015 0.487 0.229 0.489 0.24 0.002 0.218-0.275 0.22 2.86 0.001 2.464 0.007 2.829 0.049 2.885 0.078 0.103 0.827 0.115 0.942 0.016l0.080-0.069 0.009-2.82c0.007-2.181 0.018-2.825 0.048-2.845 0.022-0.014 0.098-0.025 0.17-0.025 0.22-0.001 0.253-0.067 0.253-0.503-0-0.326-0.007-0.373-0.062-0.413-0.076-0.056-1.788-0.065-1.882-0.011zM27.195 11.684c-0.053 0.031-0.056 0.224-0.056 3.341v3.309l0.071 0.050c0.119 0.083 0.79 0.071 0.901-0.016l0.084-0.066v-6.552l-0.071-0.050c-0.084-0.059-0.833-0.071-0.929-0.015zM28.522 11.688c-0.055 0.055-0.053 0.838 0.002 0.883 0.022 0.018 0.123 0.043 0.224 0.056l0.184 0.023v2.821c0 3.343-0.065 2.963 0.509 2.963 0.583 0 0.515 0.389 0.515-2.953v-2.836l0.193-0.022c0.286-0.032 0.319-0.087 0.319-0.528 0-0.478 0.074-0.446-1.025-0.446-0.644 0-0.893 0.011-0.921 0.038zM30.794 11.688c-0.029 0.029-0.038 0.777-0.038 3.168v3.13l0.208 0.207c0.252 0.25 0.245 0.249 1.004 0.236l0.587-0.010 0.070-0.088c0.039-0.048 0.087-0.088 0.107-0.088s0.045-0.027 0.056-0.061 0.055-0.084 0.098-0.113l0.079-0.052v-3.145c0-2.403-0.009-3.154-0.038-3.183-0.057-0.057-0.87-0.053-0.917 0.005-0.026 0.031-0.038 0.851-0.044 2.888l-0.008 2.845h-0.192l-0.008-2.845c-0.006-2.037-0.018-2.857-0.044-2.888-0.048-0.058-0.86-0.062-0.917-0.005zM33.354 11.688c-0.047 0.047-0.053 0.77-0.008 0.856 0.022 0.041 0.086 0.064 0.224 0.079l0.193 0.022 0 2.806c0 2.196 0.009 2.824 0.041 2.886 0.059 0.118 0.835 0.142 0.927 0.030 0.052-0.064 0.056-0.251 0.056-2.895v-2.826l0.184-0.022c0.101-0.012 0.202-0.037 0.224-0.054 0.055-0.044 0.056-0.827 0.002-0.882s-1.788-0.055-1.843 0zM35.626 11.688c-0.067 0.067-0.054 6.629 0.013 6.696 0.096 0.096 0.879 0.057 0.932-0.047 0.062-0.122 0.044-6.559-0.019-6.635-0.055-0.067-0.861-0.080-0.926-0.015zM37.198 11.884l-0.234 0.234v2.904c0 2.004 0.011 2.924 0.034 2.968 0.058 0.109 0.337 0.377 0.428 0.411 0.151 0.057 1.334 0.042 1.421-0.019 0.094-0.066 0.289-0.259 0.381-0.377l0.072-0.092v-5.714l-0.086-0.131c-0.047-0.072-0.102-0.131-0.123-0.131s-0.053-0.036-0.074-0.080c-0.020-0.044-0.055-0.080-0.077-0.080s-0.059-0.029-0.081-0.064c-0.038-0.061-0.075-0.064-0.733-0.064h-0.693l-0.234 0.234zM39.723 11.687c-0.052 0.052-0.058 6.588-0.006 6.685 0.030 0.056 0.070 0.062 0.398 0.062 0.501 0 0.463 0.087 0.47-1.087 0.003-0.52 0.011-0.897 0.018-0.837 0.009 0.070 0.034 0.113 0.071 0.123 0.063 0.016 0.096 0.176 0.099 0.47 0.001 0.090 0.024 0.221 0.052 0.292s0.069 0.29 0.091 0.488c0.058 0.521 0.090 0.552 0.564 0.552 0.27 0 0.355-0.011 0.394-0.050 0.066-0.066 0.078-6.629 0.012-6.695-0.062-0.062-0.744-0.052-0.807 0.012-0.043 0.043-0.051 0.182-0.055 0.984-0.003 0.514-0.011 0.89-0.018 0.838s-0.040-0.118-0.073-0.144c-0.046-0.037-0.068-0.122-0.094-0.362-0.019-0.173-0.057-0.357-0.084-0.41s-0.061-0.23-0.075-0.394c-0.016-0.195-0.047-0.342-0.089-0.422l-0.064-0.124-0.382-0.009c-0.269-0.006-0.393 0.003-0.421 0.030zM42.856 11.731c-0.083 0.106-0.097 0.202-0.131 0.927-0.016 0.334-0.044 0.65-0.064 0.7s-0.051 0.396-0.070 0.768c-0.018 0.372-0.054 0.755-0.078 0.852s-0.059 0.465-0.077 0.819c-0.018 0.354-0.053 0.735-0.078 0.848s-0.062 0.5-0.080 0.861c-0.019 0.361-0.043 0.687-0.053 0.725-0.053 0.189 0.709 0.32 0.856 0.147 0.053-0.063 0.154-0.462 0.154-0.61 0-0.395 0.376-0.322 0.386 0.074 0.007 0.286 0.049 0.532 0.096 0.562 0.12 0.076 0.861 0.035 0.9-0.050 0.044-0.097-0.011-1.357-0.066-1.496-0.019-0.048-0.050-0.372-0.068-0.72-0.034-0.647-0.046-0.761-0.097-0.984-0.016-0.070-0.044-0.425-0.063-0.787s-0.054-0.738-0.079-0.835c-0.025-0.097-0.055-0.419-0.065-0.717-0.023-0.622-0.061-0.94-0.129-1.072l-0.048-0.093h-0.541c-0.54 0-0.541 0-0.604 0.081zM44.984 11.708c-0.049 0.054-0.053 0.33-0.053 3.322v3.264l0.074 0.070c0.071 0.067 0.099 0.070 0.782 0.070 0.87 0 0.808 0.036 0.808-0.476 0-0.483-0.007-0.494-0.341-0.516l-0.251-0.016-0.016-2.857c-0.014-2.493-0.022-2.861-0.064-2.888-0.097-0.061-0.88-0.038-0.939 0.027zM16.173 11.834c0.323 0.288 0.31 0.236 0.31 1.216-0.001 1.031 0.035 0.95-0.427 0.963-0.493 0.014-0.469 0.054-0.469-0.767v-0.63l-0.111-0.037c-0.087-0.029-0.13-0.027-0.2 0.006l-0.089 0.043-0.008 2.385c-0.009 2.628-0.019 2.497 0.191 2.503 0.213 0.006 0.217-0.008 0.217-0.703 0-0.794-0.027-0.746 0.427-0.746 0.522 0 0.48-0.084 0.472 0.945-0.008 0.963 0.003 0.915-0.264 1.176l-0.19 0.186-1.345-0.020-0.413-0.425v-5.772l0.2-0.209c0.258-0.27 0.228-0.261 0.928-0.264l0.6-0.002 0.171 0.152zM18.916 11.89c0.277 0.274 0.261 0.063 0.25 3.239l-0.010 2.823-0.414 0.418h-1.323l-0.123-0.103c-0.068-0.057-0.167-0.153-0.219-0.214l-0.096-0.111-0.009-2.835c-0.010-3.22-0.031-2.926 0.222-3.189 0.233-0.243 0.189-0.232 0.93-0.226l0.599 0.005 0.194 0.192zM20.441 11.722c0.037 0.057 0.13 0.47 0.182 0.808 0.024 0.158 0.067 0.374 0.095 0.48s0.065 0.313 0.083 0.462c0.024 0.191 0.052 0.289 0.096 0.337 0.039 0.042 0.073 0.14 0.088 0.258 0.016 0.125 0.031-0.245 0.041-1.062 0.009-0.689 0.028-1.265 0.043-1.28 0.033-0.033 0.623-0.036 0.701-0.004 0.071 0.029 0.089 6.539 0.018 6.611-0.025 0.025-0.154 0.038-0.368 0.038-0.426 0-0.433-0.006-0.486-0.443-0.022-0.179-0.059-0.394-0.083-0.478s-0.053-0.245-0.065-0.359c-0.012-0.114-0.048-0.316-0.080-0.448s-0.068-0.319-0.079-0.416c-0.087-0.767-0.127-0.534-0.145 0.858-0.009 0.664-0.028 1.224-0.042 1.246-0.032 0.050-0.637 0.056-0.728 0.007-0.099-0.053-0.097-6.492 0.002-6.591 0.078-0.078 0.678-0.097 0.726-0.024zM24.119 11.754c0.143 0.107 0.332 0.298 0.332 0.335 0 0.018 0.022 0.051 0.048 0.073 0.069 0.057 0.072 1.62 0.003 1.714-0.052 0.071-0.725 0.111-0.819 0.048-0.039-0.026-0.051-0.15-0.064-0.665l-0.016-0.633-0.089-0.043c-0.061-0.029-0.116-0.034-0.176-0.014l-0.087 0.029-0.009 0.673-0.009 0.673 0.174 0.148c0.096 0.082 0.181 0.148 0.191 0.148 0.028 0 0.764 0.542 0.861 0.633l0.088 0.083v2.89l-0.091 0.125c-0.050 0.069-0.158 0.187-0.241 0.263l-0.15 0.138-1.339-0.020-0.418-0.433 0-1.127c0-1.424-0.053-1.271 0.448-1.271 0.499 0 0.448-0.109 0.448 0.961 0 1.029 0.029 1.127 0.3 1.024 0.146-0.056 0.153-0.107 0.142-1.057-0.012-1.027 0.019-0.928-0.375-1.199-0.116-0.080-0.284-0.203-0.372-0.272s-0.171-0.127-0.184-0.127c-0.013-0.001-0.049-0.023-0.080-0.050s-0.117-0.1-0.192-0.164l-0.136-0.116 0-2.345 0.134-0.156c0.074-0.086 0.191-0.197 0.261-0.248l0.127-0.092h0.597c0.569 0 0.602 0.003 0.693 0.072zM26.705 11.713c0.081 0.031 0.082 0.036 0.082 0.361 0 0.396-0.035 0.472-0.219 0.472-0.066 0-0.151 0.022-0.19 0.050l-0.071 0.050v2.812c0 2.514-0.005 2.817-0.050 2.862-0.059 0.059-0.679 0.073-0.784 0.017-0.060-0.032-0.062-0.098-0.062-2.838v-2.805l-0.070-0.074c-0.048-0.051-0.106-0.074-0.187-0.074-0.198 0-0.227-0.063-0.216-0.466 0.009-0.339 0.011-0.347 0.089-0.369 0.125-0.035 1.586-0.032 1.678 0.003zM28.038 11.715c0.077 0.041 0.1 6.54 0.023 6.616-0.054 0.054-0.73 0.052-0.804-0.002-0.051-0.037-0.054-0.265-0.046-3.319l0.008-3.279 0.080-0.022c0.127-0.035 0.67-0.032 0.738 0.005zM30.31 11.715c0.055 0.030 0.062 0.070 0.062 0.378 0 0.403-0.018 0.44-0.232 0.461-0.271 0.028-0.248-0.247-0.248 2.936 0 2.561-0.005 2.843-0.051 2.86-0.097 0.037-0.767 0.021-0.807-0.019-0.029-0.029-0.038-0.704-0.038-2.841 0-3.182 0.021-2.945-0.259-2.945-0.204 0-0.227-0.053-0.214-0.491 0.009-0.313 0.011-0.322 0.089-0.344 0.132-0.037 1.629-0.033 1.698 0.005zM31.665 11.732c0.045 0.045 0.050 0.348 0.051 2.856 0 1.543 0.009 2.838 0.020 2.878 0.017 0.062 0.201 0.11 0.243 0.064 0.004-0.004 0.015-1.3 0.024-2.878 0.013-2.278 0.025-2.879 0.058-2.912 0.055-0.055 0.709-0.079 0.803-0.028l0.068 0.036v3.073c0 1.821-0.012 3.096-0.030 3.128-0.016 0.030-0.106 0.134-0.199 0.23l-0.169 0.175h-1.323l-0.408-0.416-0.009-3.008c-0.010-3.129-0.008-3.203 0.082-3.226 0.157-0.041 0.74-0.020 0.789 0.028zM35.142 11.715c0.055 0.029 0.062 0.069 0.062 0.35 0 0.433-0.021 0.481-0.213 0.481-0.292 0-0.267-0.274-0.267 2.927 0 2.151-0.009 2.83-0.038 2.859-0.053 0.053-0.766 0.053-0.819 0-0.029-0.029-0.039-0.708-0.039-2.856-0-1.699-0.012-2.836-0.030-2.865s-0.101-0.054-0.214-0.064c-0.178-0.016-0.184-0.020-0.213-0.129-0.042-0.161-0.009-0.673 0.046-0.707 0.064-0.040 1.65-0.036 1.726 0.004zM36.507 11.724c0.057 0.037 0.059 6.55 0.002 6.607-0.073 0.073-0.816 0.052-0.857-0.025-0.058-0.109-0.029-6.504 0.030-6.575 0.050-0.060 0.734-0.066 0.826-0.008zM38.949 11.874c0.317 0.315 0.287-0.022 0.287 3.153 0 3.176 0.026 2.881-0.281 3.177l-0.176 0.17-1.364-0.020-0.386-0.416-0.001-5.794 0.216-0.212c0.272-0.266 0.206-0.249 0.92-0.241l0.608 0.006 0.177 0.176zM40.457 11.722c0.072 0.058 0.147 0.309 0.187 0.628 0.019 0.152 0.055 0.341 0.079 0.42s0.060 0.265 0.080 0.414c0.020 0.148 0.056 0.328 0.080 0.4s0.060 0.231 0.079 0.354c0.020 0.123 0.042 0.229 0.050 0.237 0.051 0.051 0.063-0.163 0.071-1.223 0.008-1.065 0.015-1.194 0.062-1.229 0.063-0.048 0.608-0.055 0.681-0.009 0.063 0.040 0.091 6.538 0.028 6.614-0.029 0.035-0.118 0.043-0.392 0.036l-0.355-0.009-0.057-0.172c-0.031-0.095-0.072-0.282-0.090-0.416s-0.060-0.366-0.093-0.516c-0.033-0.15-0.069-0.366-0.080-0.48s-0.047-0.287-0.079-0.384c-0.032-0.097-0.069-0.27-0.081-0.384s-0.032-0.222-0.042-0.24c-0.049-0.081-0.064 0.216-0.066 1.329-0.002 0.888-0.013 1.212-0.042 1.24-0.072 0.072-0.689 0.051-0.729-0.025-0.060-0.111-0.029-6.556 0.031-6.594 0.073-0.046 0.618-0.039 0.678 0.009zM43.94 11.714c0.040 0.021 0.067 0.082 0.080 0.184 0.011 0.084 0.032 0.217 0.048 0.296s0.044 0.418 0.064 0.752c0.020 0.335 0.056 0.745 0.081 0.912s0.061 0.549 0.080 0.848c0.019 0.299 0.054 0.688 0.079 0.864s0.054 0.507 0.065 0.736c0.011 0.229 0.047 0.625 0.080 0.88 0.155 1.217 0.164 1.184-0.354 1.184-0.476 0-0.463 0.012-0.493-0.447-0.026-0.407-0.050-0.45-0.252-0.449-0.226 0.001-0.262 0.060-0.296 0.501-0.032 0.414-0.014 0.399-0.439 0.388l-0.358-0.009 0.004-0.48c0.002-0.264 0.027-0.639 0.056-0.832s0.067-0.604 0.085-0.912c0.018-0.308 0.047-0.617 0.063-0.688s0.046-0.38 0.065-0.688c0.019-0.308 0.055-0.711 0.081-0.896s0.067-0.631 0.094-0.992c0.056-0.773 0.104-1.089 0.172-1.144 0.061-0.049 0.907-0.056 0.997-0.008zM45.883 11.724c0.032 0.020 0.040 0.625 0.040 2.849 0 3.249-0.029 2.965 0.306 2.965 0.301 0 0.334 0.042 0.334 0.43 0 0.425 0.043 0.402-0.768 0.402-0.367 0-0.69-0.009-0.718-0.020-0.068-0.026-0.078-6.563-0.011-6.633 0.044-0.046 0.743-0.040 0.816 0.006zM17.93 12.584c-0.066 0.066-0.054 4.837 0.012 4.903 0.068 0.067 0.184 0.064 0.249-0.008 0.086-0.095 0.081-4.803-0.006-4.881-0.068-0.062-0.2-0.069-0.255-0.014zM37.973 12.597c-0.055 0.055-0.064 4.842-0.009 4.897 0.056 0.056 0.255 0.026 0.315-0.049 0.063-0.077 0.097-4.698 0.035-4.79-0.071-0.106-0.261-0.138-0.342-0.058zM18.163 15.026v2.4l-0.074 0.010c-0.173 0.025-0.166 0.124-0.166-2.408 0-2.507-0.005-2.431 0.16-2.412l0.080 0.009v2.4zM38.236 15.017l0.008 2.359-0.068 0.036c-0.050 0.027-0.089 0.027-0.144 0.002l-0.076-0.035v-2.347c0-1.291 0.010-2.358 0.023-2.37s0.074-0.019 0.136-0.013l0.113 0.010 0.008 2.359zM43.355 15.543c-0.153 0.841-0.144 1.067 0.040 1.067 0.122 0 0.137-0.101 0.112-0.76-0.032-0.85-0.048-0.882-0.152-0.306zM43.484 16.354c-0.008 0.13-0.017 0.144-0.089 0.144-0.103 0-0.118-0.091-0.051-0.297 0.027-0.083 0.060-0.216 0.073-0.295l0.024-0.144 0.026 0.224c0.014 0.123 0.022 0.289 0.017 0.368zM45.923 19.146c-0.245 0.060-0.456 0.085-1.012 0.117-0.319 0.019-0.65 0.048-0.736 0.065-0.208 0.042-3.158 0.097-5.324 0.101-0.959 0.002-1.83 0.015-1.936 0.031s-0.436 0.050-0.733 0.076c-0.298 0.027-0.615 0.070-0.705 0.096s-0.307 0.057-0.483 0.068c-0.623 0.040-0.707 0.125-0.407 0.417l0.152 0.148v2.383l-0.088 0.127c-0.048 0.070-0.088 0.152-0.088 0.183s0.039 0.108 0.088 0.172l0.088 0.115 0.009 1.531c0.006 1.037-0.002 1.552-0.025 1.595-0.046 0.087-0.684 0.098-0.716 0.013-0.011-0.028-0.020-0.703-0.020-1.5 0-1.631 0.018-1.52-0.251-1.546-0.276-0.026-0.261-0.115-0.261 1.556 0 1.7 0.042 1.54-0.404 1.54-0.482 0-0.428 0.41-0.428-3.249 0-2.968-0.003-3.15-0.056-3.174-0.116-0.052-2.73 0.006-2.888 0.064-0.107 0.039-0.345 0.061-0.928 0.085-0.431 0.018-0.95 0.053-1.152 0.078s-0.55 0.055-0.771 0.066-0.517 0.047-0.656 0.080c-0.139 0.033-0.397 0.070-0.573 0.082s-0.412 0.042-0.524 0.067c-0.112 0.025-0.443 0.067-0.736 0.093s-0.593 0.060-0.668 0.075c-0.134 0.027-0.27 0.012-0.486-0.056-0.13-0.041-0.338-0.016-0.449 0.054-0.056 0.035-0.218 0.058-0.544 0.077-0.256 0.015-0.581 0.041-0.722 0.058-0.479 0.059-0.888 0.009-1.052-0.127-0.023-0.019-0.089-0.019-0.178 0.002-0.1 0.022-0.188 0.021-0.298-0.006-0.098-0.023-0.249-0.029-0.404-0.016-0.404 0.035-0.802 0.024-1.057-0.030-0.549-0.115-1.055-0.020-1.105 0.207l-0.019 0.087-0.534-0.015c-0.464-0.013-0.57-0.006-0.806 0.051-0.188 0.046-0.44 0.073-0.816 0.088-0.579 0.023-0.533 0.012-0.924 0.226-0.065 0.036-0.71 0.116-1.38 0.171-0.398 0.033-0.409 0.038-0.533 0.219l-0.101 0.149-0.012 0.72c-0.014 0.822 0.029 1.922 0.080 2.064 0.019 0.053 0.051 0.224 0.071 0.381s0.052 0.315 0.072 0.352c0.022 0.040 0.040 0.289 0.046 0.627 0.009 0.531 0.014 0.568 0.093 0.72 0.062 0.119 0.088 0.225 0.1 0.416 0.015 0.234 0.028 0.274 0.153 0.464 0.075 0.114 0.145 0.257 0.156 0.317 0.028 0.154 0.157 0.31 0.274 0.334 0.054 0.011 0.137 0.047 0.186 0.081 0.078 0.055 0.169 0.064 0.808 0.082 0.396 0.011 0.821 0.034 0.944 0.050 0.304 0.040 0.967 0.039 1.104-0.002 0.061-0.018 0.537-0.047 1.056-0.063s1.066-0.051 1.216-0.076c0.149-0.025 0.423-0.055 0.608-0.066s0.549-0.044 0.809-0.073c0.443-0.050 0.483-0.049 0.624 0.001 0.171 0.061 0.695 0.072 0.935 0.019 0.079-0.018 0.418-0.052 0.752-0.077s0.688-0.067 0.785-0.093c0.133-0.035 0.467-0.052 1.328-0.067 1.97-0.034 2.509-0.068 2.829-0.179 0.305-0.106 0.597-0.119 1.329-0.063 0.279 0.022 0.541 0.018 0.96-0.015 0.317-0.025 0.85-0.054 1.184-0.066 0.391-0.014 0.657-0.038 0.745-0.068 0.075-0.025 0.309-0.066 0.519-0.091s0.414-0.062 0.453-0.083c0.052-0.028 0.673-0.041 2.313-0.052 2.017-0.012 2.274-0.020 2.562-0.074 0.191-0.036 0.552-0.068 0.896-0.079 0.818-0.027 1.268-0.071 1.685-0.164 0.336-0.075 0.455-0.083 1.595-0.109 1.22-0.028 1.718-0.061 1.904-0.124 0.053-0.018 0.251-0.048 0.441-0.066s0.377-0.051 0.416-0.072 0.136-0.061 0.215-0.088c0.186-0.064 0.212-0.178 0.072-0.318-0.211-0.211-0.202-0.146-0.193-1.387l0.009-1.128 0.752-0.018v0.929c0 1.088-0.003 1.078 0.295 1.049 0.222-0.021 0.216 0.008 0.216-1.102l0.001-0.998-0.088-0.067c-0.048-0.037-0.117-0.088-0.152-0.115s-0.109-0.084-0.165-0.127c-0.055-0.044-0.111-0.080-0.124-0.080s-0.071-0.040-0.129-0.088c-0.058-0.048-0.157-0.124-0.221-0.168s-0.149-0.109-0.191-0.144c-0.041-0.035-0.102-0.080-0.135-0.1-0.057-0.034-0.060-0.093-0.060-1.243v-1.208l0.402-0.378h1.231l0.163 0.143c0.264 0.231 0.268 0.247 0.268 1.133 0 0.907 0.037 0.836-0.442 0.836-0.389 0-0.358 0.062-0.358-0.705 0-0.677 0.002-0.671-0.24-0.671-0.246 0-0.24-0.020-0.24 0.781v0.715l0.125 0.108c0.069 0.059 0.173 0.141 0.232 0.181s0.244 0.174 0.411 0.297c0.167 0.122 0.326 0.23 0.352 0.24 0.153 0.055 0.16 0.12 0.16 1.621 0 1.359-0.002 1.413-0.065 1.514-0.061 0.099-0.062 0.108-0.010 0.159 0.077 0.077 0.882 0.039 1.080-0.051 0.082-0.037 0.206-0.060 0.331-0.060 0.158-0 0.214-0.014 0.265-0.066 0.036-0.036 0.119-0.083 0.184-0.104 0.098-0.032 0.121-0.056 0.129-0.135 0.006-0.053 0.048-0.136 0.094-0.184 0.053-0.056 0.092-0.143 0.106-0.24 0.013-0.084 0.047-0.216 0.076-0.294 0.060-0.16 0.063-0.305 0.018-0.722-0.038-0.346-0.037-0.324-0.013-0.471 0.012-0.071-0.001-0.186-0.031-0.288-0.028-0.093-0.066-0.261-0.085-0.372s-0.054-0.249-0.078-0.304c-0.142-0.331-0.204-0.988-0.185-1.957 0.010-0.491 0.003-0.747-0.024-0.848-0.021-0.079-0.037-0.196-0.035-0.26 0.005-0.155-0.151-0.298-0.359-0.329-0.080-0.012-0.2-0.048-0.268-0.080s-0.179-0.068-0.248-0.081-0.16-0.046-0.203-0.074c-0.059-0.039-0.165-0.052-0.437-0.054-0.271-0.002-0.378-0.015-0.437-0.053-0.106-0.069-0.217-0.086-0.351-0.053zM46.294 19.264c0.13 0.049 0.211 0.058 0.402 0.044 0.197-0.015 0.265-0.007 0.386 0.047 0.081 0.036 0.195 0.075 0.254 0.087s0.165 0.049 0.235 0.081 0.193 0.068 0.272 0.080c0.209 0.030 0.343 0.153 0.298 0.272-0.027 0.072-0.024 0.1 0.018 0.142 0.049 0.049 0.070 0.913 0.038 1.506-0.011 0.199 0.051 0.863 0.087 0.931 0.018 0.034 0.050 0.169 0.071 0.301s0.060 0.283 0.087 0.336c0.060 0.121 0.114 0.468 0.125 0.8 0.004 0.141 0.025 0.364 0.045 0.496s0.045 0.291 0.053 0.354c0.011 0.080-0.009 0.174-0.066 0.311-0.046 0.108-0.083 0.255-0.083 0.325 0 0.102-0.019 0.146-0.094 0.213-0.057 0.051-0.098 0.122-0.104 0.181-0.008 0.079-0.031 0.105-0.117 0.134-0.059 0.020-0.124 0.058-0.144 0.085-0.025 0.034-0.117 0.056-0.299 0.070-0.144 0.011-0.317 0.044-0.384 0.072-0.081 0.035-0.259 0.058-0.53 0.070-0.435 0.019-0.473 0.005-0.352-0.128 0.051-0.057 0.057-0.183 0.066-1.487l0.009-1.425-0.083-0.125c-0.046-0.069-0.118-0.141-0.162-0.161s-0.079-0.048-0.079-0.064c0-0.015-0.032-0.040-0.072-0.056s-0.101-0.051-0.136-0.079c-0.102-0.080-0.279-0.212-0.558-0.414l-0.258-0.187v-0.647c0-0.749 0.005-0.765 0.225-0.749l0.143 0.010 0.016 0.627c0.020 0.776-0.006 0.733 0.438 0.733 0.544 0 0.521 0.038 0.522-0.868 0.001-0.88 0.002-0.87-0.202-1.089-0.273-0.292-0.242-0.283-0.926-0.283-0.695 0-0.703 0.002-0.944 0.273-0.204 0.229-0.199 0.193-0.199 1.387 0 1.119 0.012 1.213 0.169 1.312 0.057 0.036 0.218 0.152 0.359 0.258s0.304 0.225 0.362 0.265c0.058 0.040 0.123 0.087 0.144 0.105s0.092 0.072 0.158 0.122l0.121 0.090-0.009 0.998-0.008 0.998-0.138 0.010c-0.236 0.017-0.23 0.046-0.23-0.983 0-1.086 0.040-0.994-0.435-0.994-0.545 0-0.498-0.118-0.487 1.236l0.010 1.125 0.136 0.161c0.186 0.221 0.183 0.306-0.013 0.356-0.082 0.021-0.188 0.058-0.235 0.082s-0.258 0.060-0.467 0.079c-0.21 0.019-0.467 0.057-0.573 0.085-0.152 0.040-0.48 0.055-1.568 0.075-1.192 0.021-1.395 0.032-1.52 0.080-0.079 0.031-0.282 0.068-0.451 0.083s-0.399 0.042-0.512 0.060c-0.113 0.018-0.543 0.047-0.957 0.065-0.457 0.020-0.815 0.050-0.912 0.078-0.129 0.037-0.6 0.049-2.416 0.063-2.104 0.016-2.273 0.022-2.512 0.081-0.141 0.035-0.386 0.078-0.544 0.095s-0.331 0.049-0.384 0.070c-0.148 0.058-1.215 0.098-2.633 0.098h-1.289l-0.148 0.079c-0.101 0.053-0.2 0.079-0.311 0.079-0.090 0-0.336 0.021-0.547 0.047-0.225 0.027-0.701 0.048-1.152 0.050-1.21 0.005-2.155 0.048-2.305 0.103-0.084 0.031-0.321 0.056-0.672 0.071-0.298 0.012-0.6 0.035-0.67 0.050-0.406 0.086-0.657 0.095-0.85 0.030-0.228-0.077-0.497-0.080-0.958-0.014-0.185 0.027-0.595 0.069-0.912 0.095s-0.698 0.060-0.848 0.076c-1.188 0.13-4.392 0.11-4.569-0.030-0.044-0.034-0.111-0.063-0.15-0.063-0.098 0-0.26-0.212-0.288-0.377-0.012-0.074-0.035-0.142-0.050-0.152-0.113-0.070-0.215-0.305-0.229-0.532-0.011-0.17-0.041-0.292-0.102-0.423-0.083-0.175-0.088-0.211-0.099-0.766-0.010-0.49-0.022-0.611-0.078-0.765-0.037-0.101-0.066-0.256-0.066-0.345s-0.030-0.25-0.066-0.359c-0.049-0.146-0.065-0.267-0.061-0.471 0.003-0.151-0.005-0.526-0.017-0.834-0.029-0.736 0.012-1.212 0.124-1.432 0.096-0.189 0.084-0.185 0.726-0.213 0.203-0.009 0.412-0.032 0.463-0.052s0.237-0.048 0.413-0.063c0.233-0.020 0.33-0.042 0.357-0.079 0.064-0.087 0.376-0.177 0.617-0.177 0.274 0 1.062-0.083 1.239-0.13 0.13-0.035 0.762-0.023 1.078 0.020 0.207 0.028 0.276 0.002 0.204-0.077-0.116-0.128-0.040-0.229 0.172-0.229 0.081 0 0.215-0.023 0.298-0.051 0.142-0.048 0.161-0.047 0.363 0.016 0.196 0.062 0.289 0.067 1.132 0.067h0.919l0.185 0.085c0.271 0.124 1.812 0.043 2.248-0.118 0.2-0.074 0.289-0.077 0.373-0.014s0.531 0.062 0.899-0.002c0.155-0.027 0.456-0.063 0.668-0.079s0.433-0.044 0.491-0.061c0.058-0.017 0.274-0.047 0.48-0.067s0.457-0.057 0.557-0.082c0.1-0.025 0.503-0.067 0.896-0.094s0.829-0.063 0.97-0.081c0.141-0.018 0.551-0.046 0.912-0.062 0.497-0.023 0.691-0.043 0.8-0.086 0.183-0.072 2.592-0.11 2.674-0.042 0.039 0.033 0.046 0.486 0.046 3.198 0 2.902 0.004 3.164 0.053 3.204 0.073 0.060 0.757 0.062 0.817 0.002 0.032-0.032 0.045-0.373 0.057-1.551l0.016-1.509 0.103-0.021c0.058-0.012 0.135-0.005 0.176 0.016l0.073 0.037 0.016 1.498c0.019 1.769-0.032 1.598 0.471 1.583 0.488-0.015 0.441 0.16 0.441-1.668v-1.544l-0.216-0.337 0.116-0.226 0.116-0.226v-1.054c0-1.178 0.002-1.169-0.223-1.403l-0.137-0.142 0.081-0.070c0.090-0.077 0.388-0.116 0.809-0.104 0.181 0.005 0.249-0.007 0.336-0.060 0.080-0.049 0.19-0.072 0.413-0.088 0.167-0.012 0.527-0.041 0.8-0.065 0.891-0.079 1.22-0.086 2.128-0.048 0.68 0.029 1.104 0.029 1.76 0.002 0.475-0.020 1.49-0.050 2.256-0.067s1.471-0.045 1.568-0.063c0.097-0.018 0.434-0.053 0.748-0.079s0.58-0.055 0.59-0.064c0.033-0.033 0.152-0.016 0.313 0.045zM35.351 19.878c-0.064 0.091-0.081 6.347-0.018 6.513 0.048 0.127 0.078 0.138 0.385 0.138 0.321 0.001 0.463-0.039 0.489-0.137 0.052-0.194 0.020-6.478-0.033-6.522-0.104-0.087-0.762-0.080-0.824 0.009zM37.107 19.869c-0.053 0.034-0.168 0.136-0.256 0.226l-0.16 0.165v5.774l0.16 0.172c0.291 0.313 0.321 0.324 0.907 0.324 0.28 0 0.552-0.009 0.606-0.020 0.147-0.029 0.474-0.359 0.518-0.522 0.055-0.206 0.031-2.792-0.027-2.862-0.055-0.067-0.861-0.079-0.926-0.014-0.059 0.059-0.050 0.791 0.011 0.872 0.038 0.051 0.047 0.203 0.047 0.823 0 0.851 0.002 0.844-0.233 0.821l-0.103-0.010v-4.928l0.131-0.010c0.194-0.014 0.198-0 0.21 0.724 0.014 0.816-0.002 0.792 0.49 0.76 0.45-0.029 0.416 0.052 0.416-1.007v-0.889l-0.096-0.11c-0.053-0.060-0.152-0.16-0.221-0.221l-0.125-0.112-0.627-0.009c-0.574-0.008-0.636-0.004-0.723 0.052zM39.448 19.868c-0.080 0.089-0.082 6.478-0.001 6.593 0.050 0.071 0.067 0.073 0.399 0.063 0.509-0.016 0.458 0.156 0.477-1.62l0.016-1.495 0.108-0.010c0.060-0.006 0.142-0.002 0.183 0.008l0.075 0.019 0.009 1.49 0.009 1.49 0.075 0.061c0.063 0.051 0.128 0.061 0.39 0.061 0.501 0 0.447 0.414 0.447-3.394v-3.226l-0.071-0.050c-0.053-0.037-0.154-0.050-0.4-0.050-0.498 0-0.457-0.123-0.457 1.355 0 1.366 0.005 1.333-0.217 1.333-0.164 0-0.167-0.023-0.167-1.334-0-0.666-0.011-1.226-0.024-1.245-0.083-0.124-0.748-0.164-0.851-0.050zM42.131 19.848c-0.102 0.058-0.111 0.089-0.111 0.396-0.001 0.352 0.022 0.389 0.255 0.422l0.176 0.025 0.016 2.832c0.009 1.557 0.029 2.858 0.044 2.89 0.069 0.142 0.782 0.18 0.859 0.046 0.032-0.057 0.044-0.682 0.057-2.92l0.016-2.848 0.179-0.016c0.271-0.024 0.285-0.046 0.285-0.434 0-0.457 0.057-0.43-0.927-0.429-0.525 0.001-0.806 0.013-0.849 0.037zM36.107 19.918c0.084 0.064 0.087 6.364 0.003 6.457-0.074 0.082-0.697 0.088-0.728 0.008-0.040-0.105-0.022-6.43 0.019-6.471 0.055-0.055 0.632-0.050 0.706 0.006zM38.626 20.065l0.193 0.191v0.91c0 1.049 0.040 0.949-0.379 0.948-0.392-0.001-0.364 0.055-0.383-0.749-0.009-0.381-0.028-0.7-0.043-0.709-0.083-0.051-0.339-0.051-0.39 0.001-0.083 0.083-0.083 4.912 0 4.995 0.058 0.058 0.341 0.048 0.403-0.014s0.037-1.631-0.028-1.703c-0.070-0.077-0.104-0.568-0.049-0.709l0.034-0.088h0.397c0.333 0 0.401 0.008 0.417 0.051 0.011 0.028 0.019 0.682 0.019 1.454v1.404l-0.136 0.141c-0.244 0.252-0.226 0.247-0.88 0.247-0.491 0-0.599-0.009-0.667-0.053-0.106-0.069-0.269-0.222-0.269-0.252 0-0.013-0.025-0.042-0.056-0.065-0.052-0.038-0.057-0.215-0.065-2.788-0.011-3.165-0.023-2.949 0.184-3.168 0.226-0.238 0.206-0.233 0.889-0.234l0.615-0.001 0.193 0.191zM40.189 19.912c0.029 0.029 0.038 0.353 0.038 1.262v1.223l0.083 0.098c0.123 0.146 0.408 0.118 0.447-0.043 0.009-0.037 0.019-0.618 0.023-1.292 0.006-1.049 0.014-1.229 0.055-1.255 0.071-0.045 0.651-0.039 0.698 0.007 0.051 0.051 0.056 6.365 0.005 6.46-0.049 0.091-0.633 0.093-0.715 0.003-0.049-0.054-0.053-0.194-0.051-1.509 0.003-1.628 0.021-1.52-0.261-1.52-0.302 0-0.284-0.098-0.285 1.55-0.001 1.135-0.010 1.437-0.043 1.482-0.060 0.079-0.674 0.084-0.704 0.005-0.027-0.069-0.025-6.461 0.002-6.488 0.039-0.039 0.667-0.024 0.708 0.017zM43.805 19.912c0.025 0.025 0.038 0.151 0.038 0.351 0 0.351 0.022 0.324-0.285 0.358-0.205 0.023-0.194-0.126-0.195 2.884-0.001 1.531-0.010 2.816-0.020 2.856-0.018 0.069-0.034 0.072-0.341 0.072-0.494 0-0.439 0.367-0.439-2.915v-2.809l-0.071-0.050c-0.039-0.027-0.117-0.050-0.173-0.050-0.199 0-0.204-0.009-0.204-0.354 0-0.266 0.009-0.32 0.056-0.348 0.084-0.049 1.584-0.045 1.634 0.004zM33.528 20.677c-0.077 0.11-0.079 1.677-0.002 1.826 0.058 0.112 0.286 0.12 0.392 0.013 0.064-0.064 0.081-1.779 0.018-1.842-0.080-0.080-0.353-0.078-0.409 0.002zM33.859 20.705c0.090 0.057 0.088 1.664-0.002 1.737-0.080 0.065-0.224 0.074-0.28 0.018-0.042-0.042-0.058-1.724-0.017-1.764 0.032-0.032 0.244-0.025 0.299 0.010z"></path>
<path fill="#747474" d="M25.017 3.586c-0.127 0.038-0.298 0.175-0.408 0.328l-0.094 0.13v2.861c0 3.21-0.022 2.938 0.253 3.185 0.196 0.176 0.235 0.185 0.872 0.185 0.593 0 0.621-0.009 0.878-0.283 0.208-0.222 0.215-0.263 0.199-1.272-0.013-0.881 0.022-0.821-0.478-0.807-0.206 0.006-0.387 0.023-0.402 0.037s-0.031 0.331-0.036 0.703c-0.011 0.791-0.035 0.846-0.309 0.721l-0.082-0.037 0.009-2.413c0.009-2.684-0.006-2.504 0.216-2.504 0.154 0 0.16 0.029 0.16 0.759v0.682l0.082 0.031c0.147 0.056 0.735 0.040 0.786-0.022 0.048-0.058 0.084-1.383 0.045-1.691-0.024-0.192-0.269-0.486-0.477-0.573-0.137-0.057-1.040-0.071-1.214-0.019zM27.315 3.591c-0.149 0.082-0.144-0.045-0.144 3.331v3.195l0.078 0.079c0.078 0.078 0.082 0.079 0.718 0.079 0.778 0 0.739 0.025 0.739-0.465 0-0.383-0.011-0.399-0.27-0.4-0.107-0-0.226-0.009-0.266-0.020l-0.072-0.019v-1.097c0-1.244-0.028-1.136 0.293-1.136 0.306 0 0.315-0.011 0.315-0.387 0-0.466-0.025-0.504-0.344-0.516l-0.248-0.009-0.009-0.884-0.009-0.884 0.073-0.019c0.040-0.011 0.149-0.020 0.243-0.020 0.284-0.001 0.294-0.014 0.294-0.397 0-0.487 0.030-0.468-0.724-0.467-0.375 0.001-0.628 0.014-0.668 0.036zM29.283 3.576c-0.167 0.029-0.16-0.11-0.16 3.337 0 3.734-0.046 3.339 0.39 3.355 0.459 0.017 0.423 0.131 0.443-1.398 0.009-0.698 0.020-1.199 0.024-1.114 0.007 0.151 0.044 0.256 0.119 0.33 0.021 0.021 0.055 0.183 0.077 0.361s0.059 0.392 0.083 0.475c0.024 0.083 0.053 0.245 0.065 0.359s0.049 0.319 0.083 0.453 0.061 0.279 0.061 0.321c0 0.177 0.073 0.218 0.394 0.217 0.486-0.001 0.438 0.366 0.438-3.384v-3.197l-0.078-0.074c-0.072-0.068-0.1-0.073-0.35-0.059-0.395 0.021-0.363-0.083-0.379 1.203-0.009 0.678-0.027 1.142-0.048 1.191l-0.034 0.080-0.021-0.081c-0.012-0.045-0.042-0.21-0.067-0.368-0.086-0.539-0.196-1.123-0.218-1.159-0.012-0.020-0.037-0.156-0.055-0.302-0.066-0.544-0.207-0.645-0.766-0.547zM31.862 3.587c-0.134 0.040-0.146 0.075-0.146 0.438-0 0.37 0.014 0.393 0.252 0.393 0.244 0 0.228-0.201 0.228 2.947 0 3.26-0.058 2.888 0.449 2.903 0.501 0.016 0.447 0.373 0.447-2.963v-2.826l0.082-0.031c0.045-0.017 0.129-0.031 0.186-0.031 0.199 0 0.22-0.042 0.207-0.424-0.015-0.466 0.041-0.438-0.875-0.436-0.405 0.001-0.778 0.014-0.829 0.030zM34.147 3.576c-0.167 0.029-0.16-0.11-0.16 3.337 0 2.731 0.007 3.229 0.045 3.282 0.049 0.066 1.48 0.099 1.544 0.036 0.032-0.032 0.056-0.634 0.029-0.742-0.019-0.075-0.031-0.078-0.347-0.086l-0.328-0.009v-2.24l0.304-0.016c0.401-0.022 0.384-0.003 0.384-0.412 0-0.454-0.002-0.457-0.387-0.481l-0.301-0.019-0.009-0.878c-0.010-1.007-0.037-0.929 0.323-0.93 0.372-0.001 0.374-0.003 0.374-0.394-0.001-0.361-0.009-0.388-0.138-0.437-0.086-0.033-1.158-0.042-1.333-0.011zM36.259 3.575c-0.167 0.032-0.16-0.108-0.16 3.339 0 2.728 0.007 3.229 0.045 3.282 0.079 0.108 0.785 0.093 0.841-0.018 0.031-0.061 0.041-0.425 0.041-1.543l0-1.463 0.082-0.021c0.045-0.011 0.128-0.007 0.184 0.009l0.102 0.029 0.016 1.497c0.019 1.758-0.029 1.588 0.451 1.588 0.258 0 0.323-0.010 0.386-0.061l0.076-0.061v-3.094l-0.209-0.309 0.113-0.231 0.113-0.231-0-1.022c-0-1.311-0.017-1.374-0.43-1.635-0.093-0.059-1.4-0.102-1.65-0.054zM39.768 3.612c-0.079 0.087-0.082 6.532-0.003 6.611 0.092 0.092 0.668 0.071 0.767-0.028l0.079-0.079v-1.451c0-1.633-0.018-1.528 0.26-1.528 0.337 0 0.348-0.012 0.347-0.375-0.001-0.475-0.034-0.521-0.382-0.521-0.231 0-0.226 0.023-0.226-0.917 0-0.963-0.019-0.907 0.304-0.907 0.295 0 0.304-0.012 0.304-0.393-0.001-0.361-0.009-0.388-0.138-0.437-0.169-0.064-1.25-0.044-1.312 0.025zM42.16 3.584c-0.119 0.029-0.21 0.096-0.381 0.285l-0.128 0.141-0.009 2.876c-0.010 3.249-0.036 2.919 0.259 3.2 0.19 0.181 0.218 0.187 0.874 0.187 0.606 0 0.647-0.015 0.919-0.325l0.149-0.17v-5.737l-0.182-0.198c-0.252-0.275-0.302-0.291-0.902-0.287-0.275 0.002-0.545 0.014-0.6 0.027zM44.452 3.588c-0.043 0.018-0.090 0.050-0.103 0.071-0.056 0.089-0.029 6.507 0.027 6.554 0.038 0.031 0.154 0.044 0.407 0.044 0.477 0 0.435 0.154 0.436-1.602 0-1.568-0.005-1.518 0.185-1.518 0.248 0 0.231-0.112 0.232 1.545 0.001 1.767-0.046 1.601 0.447 1.586 0.495-0.015 0.448 0.163 0.448-1.681v-1.546l-0.096-0.133c-0.053-0.073-0.096-0.15-0.096-0.171s0.043-0.12 0.096-0.219l0.096-0.18v-2.292l-0.163-0.183c-0.263-0.295-0.253-0.292-1.101-0.301-0.449-0.004-0.767 0.006-0.815 0.026zM26.249 3.676c0.049 0.020 0.157 0.116 0.339 0.303 0.072 0.074 0.073 0.077 0.064 0.969l-0.009 0.894-0.365 0.009c-0.451 0.011-0.417 0.065-0.418-0.668-0.001-0.759-0.012-0.797-0.241-0.797-0.295 0-0.271-0.227-0.271 2.547v2.446l0.082 0.031c0.377 0.143 0.43 0.056 0.43-0.705 0-0.621 0.002-0.637 0.071-0.686 0.089-0.062 0.631-0.071 0.691-0.011 0.075 0.075 0.053 1.776-0.023 1.816-0.034 0.018-0.071 0.062-0.082 0.097s-0.034 0.064-0.052 0.064-0.065 0.040-0.107 0.088l-0.076 0.088-1.324 0.020-0.378-0.377v-5.78l0.374-0.374 0.621 0.002c0.342 0.001 0.645 0.012 0.674 0.024zM28.628 3.722c0.010 0.040 0.014 0.202 0.009 0.36l-0.009 0.288-0.255 0.010c-0.363 0.013-0.338-0.057-0.338 0.954 0 1.045-0.014 1.004 0.351 1.004 0.267 0 0.264-0.006 0.25 0.448l-0.009 0.304-0.255 0.009c-0.366 0.014-0.338-0.086-0.338 1.177 0 1.254-0.032 1.143 0.336 1.166l0.256 0.016 0.009 0.288c0.016 0.474 0.079 0.432-0.66 0.432-0.45 0-0.644-0.011-0.671-0.038-0.056-0.056-0.056-6.396 0-6.451 0.082-0.082 1.301-0.051 1.322 0.034zM29.91 3.788c0.046 0.081 0.076 0.208 0.090 0.379 0.012 0.141 0.048 0.338 0.081 0.438s0.068 0.293 0.079 0.429 0.041 0.302 0.070 0.368c0.028 0.066 0.064 0.254 0.080 0.417 0.029 0.297 0.073 0.44 0.125 0.408 0.073-0.045 0.097-0.399 0.097-1.408 0-0.587 0.009-1.091 0.019-1.118 0.025-0.064 0.584-0.075 0.646-0.012 0.041 0.041 0.059 6.334 0.019 6.439-0.022 0.057-0.632 0.077-0.667 0.022-0.010-0.016-0.033-0.142-0.053-0.28s-0.047-0.266-0.062-0.284c-0.015-0.018-0.036-0.126-0.048-0.24-0.030-0.297-0.081-0.586-0.111-0.624-0.014-0.018-0.041-0.188-0.061-0.379-0.021-0.206-0.062-0.406-0.1-0.492-0.035-0.080-0.064-0.168-0.064-0.197-0-0.089-0.066-0.292-0.094-0.292-0.067 0-0.079 0.192-0.096 1.456l-0.018 1.344-0.256 0.009c-0.141 0.005-0.288 0.001-0.328-0.009l-0.072-0.018v-3.229c0-3.048 0.003-3.23 0.056-3.244 0.031-0.008 0.178-0.013 0.327-0.010l0.271 0.005 0.069 0.122zM33.469 3.688c0.025 0.025 0.038 0.15 0.038 0.349 0 0.351 0.001 0.349-0.257 0.349-0.089 0-0.167 0.017-0.181 0.040-0.014 0.022-0.033 1.322-0.042 2.888l-0.016 2.848-0.312 0.009c-0.498 0.015-0.44 0.39-0.44-2.851 0-3.128 0.015-2.934-0.224-2.934-0.269 0-0.288-0.024-0.288-0.362 0-0.279 0.005-0.302 0.072-0.335 0.106-0.051 1.599-0.052 1.65-0.001zM35.506 3.687c0.079 0.036 0.082 0.047 0.082 0.337 0 0.356-0.007 0.362-0.412 0.362-0.345 0-0.324-0.061-0.324 0.943 0 1.046-0.012 1.009 0.325 1.009 0.157 0 0.254 0.017 0.321 0.056l0.096 0.056-0.011 0.278c-0.013 0.35-0.022 0.359-0.372 0.373-0.391 0.016-0.358-0.090-0.358 1.17 0 1.263-0.026 1.17 0.335 1.171 0.417 0.001 0.402-0.012 0.402 0.338 0 0.413 0.028 0.398-0.777 0.398-0.377 0-0.66-0.014-0.697-0.033-0.092-0.049-0.098-6.449-0.006-6.473 0.129-0.034 1.319-0.021 1.398 0.015zM38.042 3.822l0.185 0.173v2.423l-0.092 0.135c-0.090 0.132-0.101 0.297-0.020 0.297 0.126 0 0.212 3.167 0.089 3.29-0.063 0.063-0.685 0.052-0.71-0.012-0.011-0.028-0.020-0.691-0.020-1.474 0-1.629 0.014-1.547-0.255-1.547-0.256 0-0.239-0.103-0.257 1.568l-0.016 1.488-0.32 0.009c-0.176 0.005-0.352 0.001-0.392-0.009l-0.072-0.018v-3.229c0-3.048 0.003-3.23 0.056-3.244 0.031-0.008 0.412-0.016 0.846-0.018l0.791-0.004 0.186 0.173zM41.093 3.683c0.055 0.029 0.062 0.069 0.062 0.335 0 0.356-0.011 0.368-0.323 0.368-0.329 0-0.317-0.038-0.317 0.948v0.842l0.088 0.081c0.072 0.067 0.119 0.081 0.267 0.081 0.263 0 0.295 0.046 0.281 0.412-0.014 0.345-0.005 0.336-0.293 0.351-0.372 0.020-0.342-0.117-0.342 1.556 0 1.674 0.038 1.522-0.384 1.522-0.196 0-0.321-0.014-0.346-0.038-0.056-0.056-0.056-6.396 0-6.451 0.049-0.049 1.217-0.054 1.308-0.005zM43.37 3.678c0.084 0.032 0.281 0.206 0.281 0.249 0 0.015 0.029 0.045 0.064 0.067 0.063 0.039 0.064 0.075 0.064 2.912v2.872l-0.36 0.384-1.337 0.020-0.383-0.382 0-2.859c0-3.221-0.025-2.904 0.254-3.165l0.135-0.126h0.603c0.332 0 0.637 0.013 0.678 0.029zM46.094 3.687c0.094 0.050 0.308 0.281 0.344 0.373 0.016 0.041 0.029 0.566 0.029 1.168l-0.001 1.094-0.109 0.206c-0.060 0.113-0.1 0.221-0.088 0.24s0.061 0.094 0.111 0.167l0.089 0.133v1.512c0 1.772 0.048 1.596-0.436 1.598-0.404 0.001-0.363 0.178-0.363-1.556-0-1.646 0.021-1.515-0.242-1.515-0.272 0-0.253-0.112-0.27 1.568l-0.016 1.488-0.312 0.009c-0.179 0.005-0.339-0.005-0.376-0.025-0.094-0.050-0.102-6.407-0.008-6.461 0.082-0.048 1.56-0.045 1.65 0.003zM36.996 4.448c-0.057 0.107-0.044 1.681 0.016 1.796 0.066 0.127 0.265 0.136 0.385 0.016l0.078-0.079v-0.836c0-0.982 0.006-0.959-0.256-0.959-0.155 0-0.196 0.011-0.223 0.062zM42.506 4.424c-0.029 0.029-0.038 0.627-0.038 2.497v2.458l0.082 0.031c0.125 0.048 0.323 0.038 0.38-0.019 0.061-0.061 0.078-4.83 0.017-4.944-0.039-0.073-0.373-0.091-0.44-0.024zM45.194 4.442c-0.059 0.144-0.026 1.758 0.038 1.828 0.083 0.091 0.305 0.094 0.387 0.004 0.068-0.075 0.077-1.767 0.011-1.848-0.055-0.067-0.407-0.054-0.435 0.015zM37.383 4.487c0.015 0.023 0.027 0.413 0.027 0.865 0.001 0.927 0.007 0.904-0.249 0.883l-0.119-0.010-0.009-0.86c-0.006-0.642 0.001-0.872 0.031-0.907 0.047-0.057 0.277-0.036 0.318 0.029zM42.88 4.461c0.026 0.032 0.034 0.704 0.028 2.469-0.009 2.717 0.009 2.523-0.238 2.462l-0.123-0.030-0.009-2.416-0.009-2.416 0.068-0.056c0.081-0.067 0.231-0.073 0.281-0.013zM45.598 4.466c0.027 0.027 0.047 1.604 0.022 1.704-0.023 0.092-0.347 0.111-0.382 0.022-0.053-0.139-0.020-1.706 0.037-1.741s0.283-0.024 0.323 0.015zM14.739 11.712c-0.035 0.014-0.154 0.12-0.264 0.235l-0.2 0.209v5.772l0.413 0.425 1.345 0.020 0.19-0.186c0.266-0.261 0.256-0.213 0.264-1.176 0.009-1.029 0.050-0.945-0.472-0.945-0.454 0-0.427-0.048-0.427 0.746 0 0.695-0.004 0.709-0.217 0.703-0.21-0.006-0.2 0.125-0.191-2.503l0.008-2.385 0.089-0.043c0.070-0.033 0.113-0.035 0.2-0.006l0.111 0.037v0.63c0 0.821-0.024 0.782 0.469 0.767 0.462-0.013 0.426 0.068 0.427-0.963 0.001-0.979 0.014-0.928-0.31-1.216l-0.171-0.152-0.6 0.002c-0.33 0.001-0.628 0.014-0.664 0.028zM17.455 11.703c-0.089 0.019-0.45 0.395-0.475 0.494-0.010 0.042-0.015 1.352-0.010 2.911l0.009 2.835 0.096 0.111c0.053 0.061 0.151 0.157 0.219 0.214l0.123 0.103h1.323l0.414-0.418 0.010-2.823c0.011-3.176 0.027-2.965-0.25-3.239l-0.194-0.192-0.599-0.005c-0.329-0.003-0.63 0.002-0.668 0.010zM19.715 11.746c-0.099 0.099-0.101 6.538-0.002 6.591 0.091 0.049 0.696 0.043 0.728-0.007 0.014-0.022 0.033-0.583 0.042-1.246 0.018-1.392 0.058-1.624 0.145-0.858 0.011 0.097 0.047 0.284 0.079 0.416s0.068 0.334 0.080 0.448c0.012 0.114 0.041 0.276 0.065 0.359s0.061 0.298 0.083 0.478c0.053 0.437 0.060 0.443 0.486 0.443 0.214 0 0.343-0.014 0.368-0.038 0.071-0.071 0.054-6.581-0.018-6.611-0.078-0.032-0.669-0.029-0.701 0.004-0.015 0.015-0.034 0.591-0.043 1.28-0.011 0.817-0.025 1.187-0.041 1.062-0.016-0.119-0.049-0.217-0.088-0.258-0.044-0.048-0.073-0.146-0.096-0.337-0.018-0.148-0.056-0.356-0.083-0.462s-0.070-0.322-0.095-0.48c-0.052-0.338-0.145-0.751-0.182-0.808-0.048-0.073-0.648-0.054-0.726 0.024zM22.702 11.774c-0.070 0.050-0.187 0.162-0.261 0.248l-0.134 0.156-0 2.345 0.136 0.116c0.075 0.064 0.161 0.137 0.192 0.164s0.067 0.049 0.080 0.050c0.013 0.001 0.096 0.058 0.184 0.127s0.255 0.191 0.372 0.272c0.393 0.271 0.363 0.173 0.375 1.199 0.011 0.95 0.004 1.002-0.142 1.057-0.271 0.103-0.3 0.004-0.3-1.024 0-1.070 0.051-0.961-0.448-0.961-0.501 0-0.447-0.153-0.448 1.271l-0 1.127 0.418 0.433 1.339 0.020 0.15-0.138c0.083-0.076 0.191-0.194 0.241-0.263l0.091-0.125v-2.89l-0.088-0.083c-0.096-0.091-0.833-0.633-0.861-0.633-0.009 0-0.095-0.067-0.191-0.148l-0.174-0.148 0.009-0.673 0.009-0.673 0.087-0.029c0.060-0.020 0.115-0.016 0.176 0.014l0.089 0.043 0.016 0.633c0.013 0.514 0.025 0.639 0.064 0.665 0.094 0.062 0.767 0.022 0.819-0.048 0.069-0.094 0.067-1.656-0.003-1.714-0.026-0.022-0.048-0.055-0.048-0.073 0-0.038-0.189-0.229-0.332-0.335-0.092-0.069-0.124-0.072-0.693-0.072h-0.597l-0.127 0.092zM25.027 11.71c-0.078 0.022-0.080 0.030-0.089 0.369-0.011 0.404 0.018 0.466 0.216 0.466 0.081 0 0.139 0.023 0.187 0.074l0.070 0.074v2.805c0 2.74 0.002 2.806 0.062 2.838 0.105 0.056 0.724 0.042 0.784-0.017 0.045-0.045 0.050-0.349 0.050-2.862v-2.812l0.071-0.050c0.039-0.027 0.125-0.050 0.19-0.050 0.184 0 0.219-0.076 0.219-0.472 0-0.324-0.001-0.33-0.082-0.361-0.092-0.035-1.553-0.037-1.678-0.003zM27.299 11.71l-0.080 0.022-0.008 3.279c-0.008 3.054-0.004 3.281 0.046 3.318 0.073 0.054 0.75 0.055 0.804 0.002 0.076-0.076 0.053-6.575-0.023-6.616-0.068-0.037-0.611-0.040-0.738-0.005zM28.611 11.71c-0.078 0.021-0.080 0.031-0.089 0.344-0.012 0.439 0.011 0.491 0.214 0.491 0.279 0 0.259-0.238 0.259 2.945 0 2.137 0.009 2.812 0.038 2.841 0.040 0.040 0.71 0.056 0.807 0.019 0.046-0.017 0.051-0.299 0.051-2.86 0-3.183-0.023-2.908 0.248-2.936 0.214-0.022 0.232-0.058 0.232-0.461 0-0.308-0.007-0.348-0.062-0.378-0.069-0.037-1.566-0.041-1.698-0.005zM30.876 11.704c-0.090 0.024-0.092 0.097-0.082 3.226l0.009 3.008 0.408 0.416h1.323l0.169-0.175c0.093-0.096 0.182-0.199 0.199-0.23 0.018-0.033 0.030-1.307 0.030-3.128v-3.073l-0.068-0.036c-0.094-0.050-0.747-0.027-0.803 0.028-0.033 0.033-0.045 0.634-0.058 2.912-0.009 1.579-0.020 2.874-0.024 2.878-0.042 0.046-0.227-0.002-0.243-0.064-0.011-0.040-0.020-1.335-0.020-2.878-0-2.508-0.006-2.811-0.051-2.856-0.049-0.049-0.631-0.070-0.789-0.028zM33.416 11.711c-0.055 0.035-0.088 0.546-0.046 0.707 0.029 0.109 0.035 0.112 0.213 0.129 0.113 0.010 0.195 0.035 0.214 0.064s0.030 1.166 0.030 2.865c0 2.148 0.010 2.827 0.039 2.856 0.053 0.053 0.766 0.053 0.819 0 0.029-0.029 0.038-0.708 0.038-2.859 0-3.2-0.025-2.927 0.267-2.927 0.191 0 0.213-0.048 0.213-0.481 0-0.28-0.007-0.321-0.062-0.35-0.076-0.041-1.662-0.045-1.726-0.004zM35.682 11.732c-0.059 0.071-0.088 6.466-0.030 6.575 0.041 0.076 0.784 0.098 0.857 0.025 0.057-0.057 0.056-6.571-0.002-6.607-0.091-0.058-0.776-0.052-0.826 0.008zM37.507 11.703c-0.026 0.010-0.145 0.113-0.264 0.229l-0.216 0.212 0.001 5.794 0.386 0.416 1.364 0.020 0.176-0.17c0.307-0.296 0.281-0.001 0.281-3.177 0-3.175 0.031-2.838-0.287-3.153l-0.177-0.176-0.608-0.006c-0.335-0.004-0.63 0.002-0.656 0.012zM39.779 11.713c-0.060 0.038-0.091 6.482-0.031 6.594 0.041 0.076 0.657 0.096 0.729 0.025 0.028-0.028 0.039-0.352 0.042-1.24 0.003-1.113 0.018-1.41 0.066-1.329 0.011 0.018 0.029 0.125 0.042 0.24s0.049 0.287 0.081 0.384c0.032 0.097 0.067 0.27 0.079 0.384s0.047 0.33 0.080 0.48c0.033 0.149 0.075 0.382 0.093 0.516s0.059 0.321 0.090 0.416l0.057 0.172 0.355 0.009c0.274 0.007 0.364-0.001 0.392-0.036 0.063-0.076 0.036-6.574-0.028-6.614-0.073-0.046-0.618-0.039-0.681 0.009-0.048 0.036-0.054 0.165-0.062 1.229-0.008 1.060-0.020 1.274-0.071 1.223-0.008-0.008-0.030-0.115-0.050-0.237s-0.055-0.282-0.079-0.354c-0.024-0.072-0.060-0.252-0.080-0.4s-0.056-0.335-0.080-0.414c-0.025-0.079-0.060-0.268-0.079-0.42-0.040-0.319-0.115-0.57-0.187-0.628-0.060-0.048-0.605-0.055-0.678-0.009zM42.942 11.722c-0.068 0.055-0.116 0.371-0.172 1.144-0.026 0.361-0.068 0.807-0.094 0.992s-0.061 0.588-0.081 0.896-0.048 0.618-0.065 0.688c-0.017 0.070-0.045 0.38-0.063 0.688s-0.056 0.718-0.085 0.912c-0.029 0.194-0.054 0.568-0.056 0.832l-0.004 0.48 0.358 0.009c0.425 0.011 0.407 0.027 0.439-0.388 0.034-0.44 0.070-0.5 0.296-0.501 0.201-0.001 0.225 0.042 0.252 0.449 0.030 0.458 0.017 0.447 0.493 0.447 0.518 0 0.508 0.033 0.354-1.184-0.032-0.255-0.068-0.651-0.080-0.88s-0.041-0.56-0.065-0.736c-0.025-0.176-0.060-0.565-0.079-0.864s-0.055-0.681-0.080-0.848c-0.025-0.167-0.062-0.578-0.081-0.912s-0.048-0.673-0.064-0.752c-0.015-0.079-0.037-0.212-0.048-0.296-0.013-0.101-0.040-0.162-0.080-0.184-0.090-0.048-0.936-0.041-0.997 0.008zM45.067 11.718c-0.068 0.070-0.058 6.607 0.011 6.633 0.028 0.011 0.351 0.020 0.718 0.020 0.811 0 0.768 0.023 0.768-0.402 0-0.388-0.033-0.43-0.334-0.43-0.335 0-0.306 0.283-0.306-2.965 0-2.223-0.008-2.828-0.040-2.849-0.073-0.046-0.771-0.052-0.816-0.006zM16.060 11.81c0.022 0.035 0.061 0.064 0.088 0.064s0.048 0.021 0.048 0.047 0.028 0.062 0.062 0.080c0.146 0.078 0.162 0.183 0.162 1.061 0 0.974 0.037 0.899-0.44 0.885l-0.312-0.009-0.016-0.683c-0.018-0.773-0.018-0.773-0.276-0.773-0.251 0-0.236-0.166-0.236 2.56 0 2.764-0.019 2.579 0.262 2.552 0.237-0.023 0.233-0.008 0.244-0.779l0.010-0.688 0.749 0.018 0.009 0.84c0.010 0.954 0.018 0.916-0.252 1.184l-0.169 0.168h-1.204l-0.148-0.136c-0.082-0.075-0.189-0.192-0.239-0.261l-0.091-0.125 0-2.787c0-3.159-0.031-2.822 0.287-3.119l0.175-0.164h0.625c0.591 0 0.628 0.004 0.666 0.064zM18.882 11.937l0.193 0.191v5.829l-0.368 0.365h-1.287l-0.377-0.384-0.009-2.883-0.008-2.883 0.433-0.427 1.23-0 0.193 0.191zM20.432 11.796c0.011 0.028 0.019 0.107 0.019 0.177s0.029 0.214 0.065 0.32c0.036 0.107 0.077 0.319 0.091 0.472s0.043 0.31 0.063 0.348c0.021 0.039 0.059 0.229 0.084 0.424s0.064 0.386 0.085 0.425c0.021 0.039 0.061 0.162 0.089 0.273 0.053 0.21 0.099 0.254 0.135 0.128 0.011-0.041 0.022-0.601 0.024-1.246s0.012-1.217 0.023-1.272l0.020-0.1h0.313c0.256 0 0.316 0.009 0.332 0.051 0.011 0.028 0.019 1.502 0.019 3.276v3.225l-0.1 0.020c-0.54 0.108-0.676-0.001-0.732-0.588-0.016-0.168-0.050-0.356-0.076-0.418s-0.061-0.265-0.078-0.452c-0.017-0.187-0.049-0.372-0.070-0.411s-0.059-0.237-0.084-0.44c-0.055-0.442-0.071-0.484-0.158-0.389-0.059 0.065-0.063 0.135-0.073 1.374l-0.010 1.305-0.098 0.020c-0.168 0.034-0.522 0.022-0.563-0.019s-0.059-6.251-0.018-6.454l0.020-0.1h0.329c0.27 0 0.332 0.009 0.348 0.051zM24.105 11.802c0.029 0.031 0.1 0.1 0.159 0.153 0.18 0.164 0.187 0.201 0.187 1.042 0 0.954 0.027 0.892-0.398 0.892-0.403 0-0.37 0.061-0.371-0.683-0-0.607-0.004-0.629-0.117-0.689-0.327-0.172-0.394-0.042-0.394 0.763 0 0.755-0.011 0.722 0.296 0.931 0.11 0.075 0.22 0.156 0.243 0.18s0.085 0.065 0.136 0.091c0.051 0.027 0.093 0.062 0.093 0.079s0.019 0.031 0.043 0.031c0.043 0 0.078 0.026 0.333 0.243l0.136 0.116v1.434c0 1.609 0.010 1.535-0.246 1.779l-0.18 0.172h-1.202l-0.177-0.164c-0.323-0.297-0.306-0.221-0.306-1.416 0-1.264-0.034-1.172 0.442-1.172 0.423 0 0.39-0.081 0.39 0.975 0 1.038 0.001 1.041 0.242 1.041 0.274 0 0.27 0.017 0.27-1.107v-0.978l-0.096-0.096c-0.093-0.093-0.397-0.315-0.431-0.315-0.009 0-0.046-0.025-0.081-0.056-0.141-0.123-0.185-0.157-0.366-0.28-0.104-0.070-0.226-0.164-0.271-0.208l-0.082-0.080-0.010-1.087c-0.011-1.279-0.029-1.172 0.236-1.437l0.211-0.211h0.63c0.559 0 0.636 0.006 0.682 0.056zM26.68 11.785c0.013 0.021 0.030 0.159 0.038 0.305 0.017 0.318-0.017 0.376-0.235 0.4-0.26 0.029-0.239-0.238-0.239 2.933 0 2.164-0.009 2.847-0.038 2.876-0.052 0.052-0.639 0.052-0.691 0-0.029-0.029-0.038-0.709-0.038-2.862v-2.823l-0.084-0.066c-0.046-0.036-0.128-0.066-0.181-0.066-0.199 0-0.262-0.2-0.194-0.616l0.020-0.12h0.81c0.6 0 0.816 0.010 0.834 0.039zM28.019 15.042v3.28l-0.312 0.009c-0.179 0.005-0.339-0.005-0.376-0.025-0.073-0.039-0.104-6.291-0.032-6.479l0.032-0.083 0.689 0.018v3.28zM30.307 12.063c0 0.412-0.003 0.419-0.194 0.419-0.275 0-0.254-0.235-0.254 2.961 0 2.149-0.009 2.828-0.038 2.857-0.047 0.047-0.592 0.053-0.712 0.007l-0.082-0.031v-2.838c0-3.131 0.012-2.955-0.195-2.955-0.236 0-0.253-0.028-0.253-0.399v-0.337h1.728v0.317zM31.663 11.846c0.011 0.055 0.020 1.355 0.020 2.889 0 3.021-0.010 2.867 0.18 2.867 0.218 0 0.204 0.197 0.204-2.906 0-1.543 0.009-2.838 0.020-2.878 0.019-0.070 0.032-0.072 0.4-0.072h0.38v6.185l-0.072 0.073c-0.040 0.040-0.090 0.092-0.112 0.116-0.199 0.216-0.147 0.202-0.795 0.213l-0.593 0.010-0.444-0.446v-6.15h0.792l0.020 0.1zM35.151 11.866c0.072 0.435 0.015 0.616-0.194 0.616-0.29 0-0.265-0.272-0.266 2.925-0 1.718-0.012 2.838-0.031 2.867-0.039 0.061-0.631 0.089-0.733 0.034l-0.067-0.036v-2.836c0-3.21 0.022-2.953-0.258-2.953-0.187 0-0.19-0.008-0.19-0.419v-0.317h1.72l0.020 0.12zM36.495 11.846c0.011 0.055 0.020 1.524 0.020 3.265v3.165l-0.085 0.032c-0.047 0.018-0.23 0.028-0.408 0.023l-0.323-0.009-0.008-3.288-0.008-3.288h0.792l0.020 0.1zM38.909 11.906c0.092 0.088 0.182 0.197 0.199 0.242 0.036 0.095 0.040 5.692 0.004 5.783-0.013 0.032-0.101 0.137-0.197 0.234l-0.175 0.176-1.253-0.020-0.178-0.176c-0.098-0.097-0.194-0.207-0.214-0.246-0.027-0.051-0.036-0.837-0.036-2.887v-2.817l0.45-0.45h1.232l0.168 0.16zM40.486 11.93c0.022 0.101 0.052 0.201 0.068 0.221s0.043 0.178 0.060 0.349c0.018 0.171 0.054 0.363 0.081 0.427s0.062 0.245 0.077 0.403c0.016 0.158 0.058 0.37 0.094 0.471s0.065 0.23 0.065 0.288c0 0.133 0.058 0.345 0.094 0.345 0.080 0 0.098-0.251 0.098-1.373 0.001-1.46-0.040-1.315 0.371-1.315h0.333l-0.008 3.288-0.008 3.288h-0.667l-0.035-0.176c-0.019-0.097-0.046-0.193-0.059-0.214s-0.044-0.204-0.069-0.407c-0.025-0.203-0.061-0.398-0.079-0.432s-0.048-0.202-0.066-0.372c-0.035-0.342-0.059-0.462-0.101-0.515-0.015-0.020-0.043-0.153-0.061-0.297-0.034-0.267-0.082-0.442-0.114-0.41-0.062 0.062-0.085 0.407-0.103 1.543l-0.021 1.28h-0.64l-0.008-3.288-0.008-3.288h0.668l0.039 0.184zM43.941 11.754c0.001 0.004 0.022 0.188 0.048 0.408s0.060 0.472 0.077 0.56c0.016 0.088 0.031 0.282 0.032 0.432 0.003 0.354 0.058 0.982 0.097 1.104 0.017 0.053 0.045 0.384 0.063 0.736s0.053 0.748 0.079 0.881c0.026 0.132 0.062 0.528 0.080 0.88s0.048 0.694 0.068 0.76c0.019 0.066 0.038 0.275 0.041 0.464l0.006 0.343h-0.373c-0.45 0-0.406 0.044-0.438-0.431-0.031-0.457-0.046-0.48-0.317-0.48-0.273 0-0.313 0.060-0.34 0.513-0.027 0.444-0.004 0.42-0.391 0.408l-0.317-0.009 0.009-0.4c0.005-0.22 0.030-0.494 0.056-0.608s0.061-0.489 0.079-0.832c0.018-0.343 0.053-0.725 0.077-0.848s0.055-0.447 0.066-0.72 0.048-0.669 0.082-0.88c0.034-0.211 0.070-0.614 0.081-0.896s0.032-0.562 0.048-0.624 0.044-0.249 0.064-0.416c0.020-0.167 0.043-0.315 0.051-0.328 0.013-0.021 0.969-0.037 0.972-0.016zM45.828 11.828c0.019 0.051 0.031 1.127 0.031 2.844 0 3.188-0.027 2.93 0.304 2.93 0.322 0 0.336 0.015 0.336 0.368 0 0.384 0.034 0.368-0.783 0.368-0.534 0-0.621-0.007-0.638-0.051-0.026-0.067-0.025-6.313 0.001-6.441l0.020-0.1h0.349c0.345 0 0.349 0.001 0.38 0.082zM17.891 12.546c-0.099 0.099-0.085 4.937 0.015 5.010s0.265 0.057 0.355-0.033l0.078-0.078v-4.806l-0.085-0.079c-0.106-0.099-0.273-0.105-0.364-0.014zM37.947 12.537c-0.085 0.094-0.087 4.933-0.002 5.018 0.067 0.067 0.311 0.048 0.39-0.031 0.086-0.086 0.097-4.84 0.012-4.945-0.083-0.102-0.322-0.127-0.399-0.042zM18.185 12.599c0.086 0.078 0.092 4.786 0.006 4.881-0.065 0.072-0.181 0.076-0.249 0.008-0.066-0.066-0.078-4.837-0.012-4.903 0.055-0.055 0.187-0.047 0.255 0.014zM38.221 12.583c0.038 0.020 0.080 0.053 0.093 0.072 0.061 0.092 0.027 4.713-0.035 4.79-0.060 0.075-0.259 0.105-0.315 0.049-0.055-0.055-0.047-4.841 0.009-4.897 0.060-0.060 0.151-0.065 0.248-0.014zM43.427 14.568c0 0.005-0.043 0.219-0.095 0.474-0.111 0.538-0.168 1.435-0.1 1.561 0.041 0.076 0.2 0.097 0.292 0.039 0.086-0.055 0.021-2.012-0.068-2.067-0.015-0.009-0.028-0.013-0.028-0.007zM43.508 15.85c0.025 0.659 0.010 0.76-0.112 0.76-0.184 0-0.193-0.226-0.040-1.066 0.105-0.575 0.12-0.544 0.152 0.306z"></path>
</svg>
